<svg width="80" height="52" viewBox="0 0 80 52" fill="none" xmlns="http://www.w3.org/2000/svg">
    <path d="M78.6205 52H1.37937C0.617655 52 0 51.3872 0 50.6315V1.36848C0 0.612779 0.617655 0 1.37937 0H78.6206C79.3823 0 80 0.612779 80 1.36848V50.6315C79.9998 51.3874 79.3822 52 78.6205 52Z" fill="#F6F5F3"/>
    <path fill-rule="evenodd" clip-rule="evenodd" d="M1.37937 51.5937H78.6205C79.1569 51.5937 79.591 51.1625 79.5911 50.6315V1.36848C79.5911 0.83766 79.157 0.40625 78.6206 0.40625H1.37937C0.842981 0.40625 0.408931 0.837661 0.408931 1.36848V50.6315C0.408931 51.1623 0.842981 51.5937 1.37937 51.5937ZM1.37937 52H78.6205C79.3822 52 79.9998 51.3874 80 50.6315V1.36848C80 0.612779 79.3824 0 78.6206 0H1.37937C0.617655 0 0 0.612779 0 1.36848V50.6315C0 51.3872 0.617655 52 1.37937 52Z" fill="#A9A9A9"/>
    <path d="M40 44C49.9411 44 58 35.9411 58 26C58 16.0589 49.9411 8 40 8C30.0589 8 22 16.0589 22 26C22 35.9411 30.0589 44 40 44Z" fill="#2EBAC6"/>
    <path d="M47.8008 32.2707L41.782 17.0472C41.44 16.2597 40.9383 15.875 40.2734 15.875H39.7413C39.0753 15.875 38.5724 16.2609 38.2326 17.0472L35.6148 23.6802H33.6336C33.0396 23.6825 32.5581 24.1842 32.5536 24.8052V24.821C32.5581 25.4431 33.0396 25.9449 33.6336 25.9471H34.6979L32.1992 32.2707C32.1518 32.4099 32.1267 32.5557 32.125 32.7028C32.125 33.0571 32.2285 33.335 32.4209 33.551C32.6121 33.767 32.8787 33.875 33.2196 33.875C33.4444 33.8714 33.6621 33.7956 33.8406 33.659C34.0319 33.5206 34.1657 33.3193 34.2681 33.0886L37.0199 25.9471H38.9279C39.5207 25.9449 40.0022 25.442 40.0079 24.821V24.7906C40.0022 24.1685 39.5207 23.6656 38.9279 23.6645H37.9075L40.0068 18.1891L45.7296 33.0875C45.8331 33.3181 45.9659 33.5195 46.1583 33.6579C46.3394 33.7951 46.5565 33.8716 46.7804 33.8739C47.1201 33.8739 47.3867 33.7659 47.5791 33.5499C47.7704 33.3339 47.8739 33.056 47.8739 32.7016C47.8798 32.5541 47.8549 32.407 47.8008 32.2696V32.2707Z" fill="white"/>
</svg>
