<svg width="419" height="355" viewBox="0 0 419 355" fill="none" xmlns="http://www.w3.org/2000/svg">
    <path d="M398.977 306H19.7718C16.0323 306 13 302.971 13 299.237V55.7635C13 52.0285 16.0323 49 19.7718 49H398.977C402.717 49 405.749 52.0285 405.749 55.7635V299.237C405.748 302.972 402.716 306 398.977 306Z" fill="#F6F5F3"/>
    <path d="M398.977 305.25C402.302 305.25 404.999 302.558 404.999 299.237V55.7635C404.999 52.443 402.303 49.75 398.977 49.75H19.7718C16.4463 49.75 13.75 52.443 13.75 55.7635V299.237C13.75 302.557 16.4463 305.25 19.7718 305.25H398.977Z" stroke="#A9A9A9" stroke-width="1.5" fill="#f6f5f3"/>
    <g clip-path="url(#clip0)">
        <path d="M164.827 176.831C164.4 184.252 170.107 190.606 177.52 191.033C177.787 191.033 178.054 191.033 178.32 191.033C185.787 191.033 191.814 185 191.76 177.525C191.76 170.05 185.734 164.017 178.267 164.071C171.12 164.071 165.2 169.677 164.827 176.831Z" fill="#0033AD"/>
        <path d="M114.587 173.361C112.187 173.201 110.107 175.07 110.001 177.472C109.894 179.875 111.707 181.957 114.107 182.064C116.507 182.224 118.534 180.355 118.694 177.953C118.854 175.55 116.987 173.521 114.587 173.361Z" fill="#0033AD"/>
        <path d="M163.974 98.5634C166.108 97.4956 166.961 94.826 165.894 92.6904C164.828 90.5547 162.161 89.7005 160.028 90.7683C157.894 91.8361 157.041 94.4523 158.108 96.5879C159.174 98.777 161.788 99.6846 163.974 98.5634C163.921 98.5634 163.974 98.5634 163.974 98.5634Z" fill="#0033AD"/>
        <path d="M177.625 122.426C180.932 120.771 182.265 116.714 180.612 113.403C178.959 110.093 174.905 108.758 171.599 110.413C168.292 112.069 166.959 116.126 168.612 119.437C170.265 122.747 174.319 124.082 177.625 122.426Z" fill="#0033AD"/>
        <path d="M131.652 138.82C134.212 140.475 137.626 139.781 139.332 137.218C140.986 134.655 140.292 131.238 137.732 129.53C135.172 127.875 131.759 128.569 130.052 131.131C128.346 133.694 129.092 137.165 131.652 138.82Z" fill="#0033AD"/>
        <path d="M139.816 170.961C136.082 170.747 132.936 173.577 132.722 177.314C132.509 181.051 135.336 184.202 139.069 184.415C142.802 184.629 145.949 181.799 146.162 178.062C146.376 174.378 143.549 171.174 139.816 170.961Z" fill="#0033AD"/>
        <path d="M132.401 216.183C129.681 217.571 128.561 220.881 129.948 223.657C131.334 226.38 134.641 227.502 137.414 226.113C140.134 224.725 141.254 221.415 139.868 218.639C138.481 215.916 135.121 214.795 132.401 216.183Z" fill="#0033AD"/>
        <path d="M158.535 157.023C162.215 159.426 167.122 158.411 169.468 154.727C171.868 151.043 170.855 146.131 167.175 143.782C163.495 141.379 158.588 142.394 156.242 146.078C153.842 149.708 154.855 154.62 158.535 157.023Z" fill="#0033AD"/>
        <path d="M241.467 121.893C244.56 123.922 248.773 123.068 250.8 119.971C252.827 116.875 251.973 112.657 248.88 110.628C245.787 108.599 241.573 109.453 239.547 112.55C237.467 115.7 238.32 119.864 241.467 121.893Z" fill="#0033AD"/>
        <path d="M255.229 98.1355C257.255 99.4703 259.922 98.883 261.255 96.8541C262.589 94.8252 262.002 92.1557 259.975 90.8209C257.949 89.4861 255.282 90.0734 253.949 92.0489C252.669 94.0778 253.255 96.8007 255.229 98.1355Z" fill="#0033AD"/>
        <path d="M242.483 163.964C235.069 163.537 228.669 169.25 228.296 176.671C227.869 184.092 233.576 190.499 240.989 190.873C241.256 190.873 241.523 190.873 241.736 190.873C249.149 190.873 255.176 184.84 255.176 177.365C255.229 170.264 249.629 164.338 242.483 163.964Z" fill="#0033AD"/>
        <path d="M182.054 156.064C184.347 160.602 188.987 163.485 194.107 163.485C201.52 163.485 207.547 157.452 207.547 149.977C207.547 147.895 207.067 145.813 206.107 143.891C202.747 137.217 194.64 134.547 188.027 137.911C181.36 141.328 178.694 149.443 182.054 156.064Z" fill="#0033AD"/>
        <path d="M287.601 138.817C290.32 137.429 291.387 134.065 290 131.343C288.614 128.62 285.254 127.552 282.534 128.94C279.814 130.328 278.747 133.638 280.081 136.361C281.521 139.084 284.827 140.205 287.601 138.817Z" fill="#0033AD"/>
        <path d="M253.468 143.09C249.575 145.065 247.975 149.817 249.948 153.714C251.921 157.612 256.668 159.214 260.561 157.238C264.455 155.263 266.055 150.511 264.081 146.613C262.108 142.716 257.361 141.168 253.468 143.09Z" fill="#0033AD"/>
        <path d="M209.469 96.1054C212.509 96.2656 215.122 93.9164 215.335 90.8731C215.549 87.8298 213.149 85.2136 210.109 85.0001C207.069 84.8399 204.455 87.1357 204.242 90.179C204.082 93.2757 206.429 95.8919 209.469 96.1054Z" fill="#0033AD"/>
        <path d="M209.414 130.971C213.787 131.238 217.521 127.874 217.734 123.496C218.001 119.118 214.641 115.381 210.267 115.167C205.894 114.9 202.161 118.264 201.947 122.642C201.734 127.02 205.041 130.757 209.414 130.971Z" fill="#0033AD"/>
        <path d="M166.534 211.91C170.427 209.935 172.027 205.183 170.054 201.285C168.081 197.388 163.334 195.786 159.441 197.761C155.547 199.737 153.947 204.489 155.921 208.386C157.894 212.284 162.641 213.886 166.534 211.91Z" fill="#0033AD"/>
        <path d="M214.536 142.555C210.482 148.802 212.189 157.131 218.429 161.189C224.669 165.247 232.989 163.538 237.042 157.291C241.096 151.044 239.389 142.716 233.149 138.658C230.962 137.216 228.402 136.469 225.789 136.469C221.256 136.469 217.042 138.765 214.536 142.555Z" fill="#0033AD"/>
        <path d="M237.947 198.938C234.587 192.264 226.48 189.594 219.867 192.958C213.2 196.321 210.534 204.437 213.894 211.057C217.254 217.731 225.36 220.401 231.974 217.037C238.587 213.727 241.307 205.718 238 199.044C238 198.991 238 198.991 237.947 198.938Z" fill="#0033AD"/>
        <path d="M261.468 197.977C257.788 195.575 252.881 196.589 250.534 200.273C248.134 203.957 249.148 208.869 252.828 211.218C256.508 213.621 261.414 212.606 263.761 208.922C266.161 205.292 265.148 200.38 261.468 197.977Z" fill="#0033AD"/>
        <path d="M287.279 177.741C287.493 174.004 284.666 170.854 280.933 170.64C277.199 170.427 274.053 173.256 273.839 176.994C273.626 180.731 276.453 183.881 280.186 184.095C283.866 184.308 287.066 181.425 287.279 177.741Z" fill="#0033AD"/>
        <path d="M305.896 172.935C303.496 172.775 301.416 174.644 301.309 177.046C301.202 179.449 303.016 181.531 305.416 181.638C307.816 181.798 309.842 179.93 310.002 177.527C310.109 175.124 308.296 173.096 305.896 172.935Z" fill="#0033AD"/>
        <path d="M288.345 216.182C285.785 214.527 282.372 215.221 280.665 217.784C279.012 220.346 279.705 223.764 282.265 225.472C284.825 227.127 288.239 226.433 289.945 223.87C291.652 221.308 290.905 217.837 288.345 216.182Z" fill="#0033AD"/>
        <path d="M164.722 256.868C162.695 255.533 160.028 256.12 158.695 258.096C157.362 260.125 157.948 262.794 159.922 264.129C161.948 265.464 164.615 264.876 165.948 262.901C167.335 260.926 166.748 258.203 164.722 256.868Z" fill="#0033AD"/>
        <path d="M256.028 256.439C253.894 257.507 253.041 260.176 254.108 262.312C255.174 264.447 257.841 265.302 259.974 264.234C262.108 263.166 262.961 260.55 261.894 258.414C260.828 256.225 258.214 255.318 256.028 256.439C256.081 256.439 256.028 256.439 256.028 256.439Z" fill="#0033AD"/>
        <path d="M205.467 212.444C209.52 206.197 207.814 197.868 201.574 193.757C195.334 189.699 187.014 191.408 182.907 197.654C178.8 203.901 180.56 212.23 186.8 216.341C188.987 217.783 191.547 218.53 194.16 218.53C198.747 218.584 202.96 216.288 205.467 212.444Z" fill="#0033AD"/>
        <path d="M178.534 233.108C175.441 231.079 171.228 231.934 169.201 235.03C167.174 238.127 168.028 242.345 171.121 244.374C174.214 246.403 178.428 245.548 180.454 242.452C182.534 239.355 181.681 235.137 178.534 233.108Z" fill="#0033AD"/>
        <path d="M209.946 258.894C206.906 258.734 204.293 261.083 204.08 264.127C203.866 267.17 206.266 269.786 209.306 270C212.346 270.16 214.96 267.864 215.173 264.821C215.333 261.724 212.986 259.108 209.946 258.894Z" fill="#0033AD"/>
        <path d="M210.003 224.03C205.629 223.764 201.896 227.127 201.683 231.505C201.416 235.883 204.776 239.621 209.149 239.834C213.523 240.048 217.256 236.738 217.469 232.359C217.736 228.035 214.376 224.244 210.003 224.03Z" fill="#0033AD"/>
        <path d="M242.373 232.574C239.066 234.282 237.733 238.34 239.439 241.65C241.146 244.96 245.199 246.295 248.506 244.587C251.813 242.932 253.146 238.874 251.493 235.564C249.786 232.253 245.733 230.865 242.373 232.574Z" fill="#0033AD"/>
    </g>
    <defs>
        <clipPath id="clip0">
            <rect width="200" height="185" fill="white" transform="translate(110 85)"/>
        </clipPath>
    </defs>
</svg>
