<svg width="80" height="52" viewBox="0 0 80 52" fill="none" xmlns="http://www.w3.org/2000/svg">
    <path d="M78.6205 52H1.37937C0.617655 52 0 51.3872 0 50.6315V1.36848C0 0.612779 0.617655 0 1.37937 0H78.6206C79.3823 0 80 0.612779 80 1.36848V50.6315C79.9998 51.3874 79.3822 52 78.6205 52Z" fill="#F6F5F3"/>
    <path fill-rule="evenodd" clip-rule="evenodd" d="M1.37937 51.5938H78.6205C79.1569 51.5938 79.591 51.1625 79.5911 50.6315V1.36848C79.5911 0.83766 79.157 0.40625 78.6206 0.40625H1.37937C0.842981 0.40625 0.408931 0.837661 0.408931 1.36848V50.6315C0.408931 51.1623 0.842981 51.5938 1.37937 51.5938ZM1.37937 52H78.6205C79.3822 52 79.9998 51.3874 80 50.6315V1.36848C80 0.612779 79.3823 0 78.6206 0H1.37937C0.617655 0 0 0.612779 0 1.36848V50.6315C0 51.3872 0.617655 52 1.37937 52Z" fill="#A9A9A9"/>
    <path d="M40 44C49.9411 44 58 35.9411 58 26C58 16.0589 49.9411 8 40 8C30.0589 8 22 16.0589 22 26C22 35.9411 30.0589 44 40 44Z" fill="black"/>
    <path d="M33.5312 33.7805L36.1221 29.2963L38.7108 24.8278L41.2847 20.3435L41.7122 19.6325L41.9001 20.3435L42.6899 23.2955L41.8056 24.8278L39.217 29.2963L36.643 33.7805H39.7367L42.3265 29.2963L43.6686 26.9754L44.3009 29.2963L45.5001 33.7805H48.2789L47.0796 29.2963L45.8792 24.8278L45.5642 23.6746L47.4903 20.3435H44.68L44.5844 20.0116L43.6056 16.3486L43.4796 15.875H40.7796L40.7166 15.9695L38.1899 20.3435L35.6001 24.8278L33.0273 29.2963L30.4375 33.7805H33.5312Z" fill="white"/>
</svg>
