<svg width="80" height="52" viewBox="0 0 80 52" fill="none" xmlns="http://www.w3.org/2000/svg">
<path d="M78.6205 52H1.37937C0.617655 52 0 51.3872 0 50.6315V1.36848C0 0.612779 0.617655 0 1.37937 0H78.6206C79.3823 0 80 0.612779 80 1.36848V50.6315C79.9998 51.3874 79.3822 52 78.6205 52Z" fill="#F6F5F3"/>
<path fill-rule="evenodd" clip-rule="evenodd" d="M1.37937 51.5938H78.6205C79.1569 51.5938 79.591 51.1625 79.5911 50.6315V1.36848C79.5911 0.83766 79.157 0.40625 78.6206 0.40625H1.37937C0.842981 0.40625 0.408931 0.837661 0.408931 1.36848V50.6315C0.408931 51.1623 0.842981 51.5938 1.37937 51.5938ZM1.37937 52H78.6205C79.3822 52 79.9998 51.3874 80 50.6315V1.36848C80 0.612779 79.3823 0 78.6206 0H1.37937C0.617655 0 0 0.612779 0 1.36848V50.6315C0 51.3872 0.617655 52 1.37937 52Z" fill="#A9A9A9"/>
<circle cx="40" cy="26" r="18" fill="#F6EBDD"/>
<circle cx="40" cy="25.9999" r="16.7506" fill="white"/>
<path d="M28.3162 29.2391C29.4083 29.9239 31.27 30.0643 32.0643 30.0488C31.8252 30.4576 31.2684 31.4694 30.9538 32.2468C30.5604 33.2185 29.9358 35.2545 32.0643 37.6144C34.1928 39.9743 37.27 39.3265 39.144 38.0308C40.6432 36.9943 41.8972 34.6529 42.3368 33.6118C42.5682 33.8817 43.3317 34.6576 44.5347 35.6015C46.0386 36.7815 48.7687 37.1517 50.2494 36.6889C51.7301 36.2262 53.234 33.9589 53.234 31.275C53.234 29.128 51.2443 27.0488 50.2494 26.2776C50.5964 26.0463 51.3831 25.4586 51.7532 24.9589C52.216 24.3342 53.4191 23.4087 53.234 21.581C53.0489 19.7532 51.5219 17.2313 48.6067 16.7918C46.2746 16.4401 43.9178 17.9409 43.0309 18.7352C43.0926 18.0488 43.1234 16.4123 42.7532 15.3573C42.2905 14.0385 40.9255 12.5347 38.7969 12.4884C36.6684 12.4421 35.3265 12.7198 34.3548 14.7558C33.5774 16.3846 34.0309 19.6915 34.3548 21.1414C33.2211 20.4473 30.6021 19.1146 29.1954 19.3367C27.4371 19.6144 26.3265 20.3779 26.0951 23.293C25.8638 26.2082 26.9512 28.383 28.3162 29.2391Z" fill="#EA8397"/>
<path d="M34.91 25.815L35.7892 26.2546L38.7275 29.0078C37.9177 30.288 36.1316 33.0798 35.4653 34.0052C34.799 34.9307 34.0154 35.5322 33.7069 35.7173C33.7686 35.725 33.9337 35.7358 34.1002 35.7173L34.11 35.7162C34.3123 35.6939 34.4391 35.68 35.3727 34.7918C36.3213 33.8895 37.1311 32.2469 37.4087 31.7379C37.6308 31.3307 38.2725 30.2726 38.5655 29.7944L41.5038 28.1286C42.7301 28.6839 45.4416 29.9425 46.4781 30.5348C47.7738 31.2751 49.6478 32.9178 49.9717 33.2417C50.2956 33.5656 50.2956 33.4268 50.2956 33.1029C50.2956 32.779 49.8792 32.4782 49.5321 32.2469C49.1851 32.0155 47.5655 30.7893 46.1774 29.9564C45.0668 29.29 43.2005 28.4602 42.4062 28.1286L42.2442 25.0284C42.4833 24.7122 43.165 23.8577 43.9794 22.9692C44.9974 21.8587 46.2699 21.2803 47.311 20.7713C48.1439 20.3641 49.6478 20.3857 50.2956 20.4474C49.9486 20.3548 49.0972 20.1744 48.4679 20.1929C47.6812 20.216 46.5938 20.4936 45.1825 21.4191C44.0535 22.1595 42.8612 23.7173 42.4062 24.4037L39.1902 23.1775C39.1517 21.689 39.0236 18.4299 38.82 17.3008C38.6164 16.1718 37.9331 15.1338 37.617 14.7559C37.7712 15.2571 38.1259 16.4957 38.311 17.4397C38.4961 18.3836 38.7275 20.0541 38.82 20.7713L38.9126 22.7147L36.1825 25.6993C35.7583 25.5528 34.8128 25.2134 34.4242 25.0284C33.9383 24.797 32.0643 24.1954 31.1851 24.0798C30.3059 23.9641 28.9409 24.3574 28.5475 24.635C28.1542 24.9127 28.1774 25.3985 28.3162 25.3985C28.455 25.3985 28.8483 24.9821 30.3753 24.635C31.5969 24.3574 33.9074 25.306 34.91 25.815Z" fill="#D26B7F"/>
<path d="M35.6041 27.2032C35.7892 28.1286 37.0232 29.1775 37.617 29.5862C37.9949 29.779 38.908 30.1692 39.5373 30.1878C40.3239 30.2109 40.7404 30.1183 42.0592 28.9847C43.3779 27.851 43.725 23.9872 41.3188 22.8304C38.9126 21.6736 37.617 22.5528 36.6221 23.2932C35.6273 24.0335 35.3728 26.0464 35.6041 27.2032Z" fill="#FEECAC"/>
</svg>
