<svg width="80" height="52" viewBox="0 0 80 52" fill="none" xmlns="http://www.w3.org/2000/svg">
    <path d="M78.6205 52H1.37937C0.617655 52 0 51.3872 0 50.6315V1.36848C0 0.612779 0.617655 0 1.37937 0H78.6206C79.3823 0 80 0.612779 80 1.36848V50.6315C79.9998 51.3874 79.3822 52 78.6205 52Z" fill="#F6F5F3"/>
    <path fill-rule="evenodd" clip-rule="evenodd" d="M1.37937 51.5938H78.6205C79.1569 51.5938 79.591 51.1625 79.5911 50.6315V1.36848C79.5911 0.83766 79.157 0.40625 78.6206 0.40625H1.37937C0.842981 0.40625 0.408931 0.837661 0.408931 1.36848V50.6315C0.408931 51.1623 0.842981 51.5938 1.37937 51.5938ZM1.37937 52H78.6205C79.3822 52 79.9998 51.3874 80 50.6315V1.36848C80 0.612779 79.3823 0 78.6206 0H1.37937C0.617655 0 0 0.612779 0 1.36848V50.6315C0 51.3872 0.617655 52 1.37937 52Z" fill="#A9A9A9"/>
    <path d="M27.6766 27.0913L32.4729 27.0948L37.6084 23.1253H46.3285L45.035 27.0948H48.9143L50.1995 23.1253H54.5711L57.8228 20.6072H51.0256L54.7566 9.14819H50.8726L36.0626 20.6072H30.208L31.8228 15.6475L22.1532 23.1251H32.8055L27.6766 27.0913ZM49.2626 14.1113L47.1513 20.6073H40.8651L49.2626 14.1113Z" fill="#02192B"/>
    <path d="M31.6976 38.0124H31.9955V37.0864H33.0449V36.8175H31.9955V36.1893H33.1401V35.9204H31.6976V38.0124Z" fill="#02192B"/>
    <path d="M34.0612 36.1766H34.5838V38.012H34.8824V35.9194H34.0612V36.1766Z" fill="#02192B"/>
    <path d="M36.1687 35.8569C35.9584 35.8569 35.806 35.9948 35.806 36.2196C35.806 36.4423 35.9584 36.5823 36.1687 36.5823C36.3769 36.5823 36.5314 36.4423 36.5314 36.2196C36.5314 35.9948 36.3769 35.8569 36.1687 35.8569ZM36.1687 36.5182C35.9984 36.5182 35.8715 36.4065 35.8715 36.2196C35.8715 36.0314 35.9984 35.919 36.1687 35.919C36.3376 35.919 36.4625 36.0314 36.4625 36.2196C36.4625 36.4065 36.3376 36.5182 36.1687 36.5182Z" fill="#02192B"/>
    <path d="M36.3294 36.1429C36.3294 36.0629 36.277 36.0229 36.1756 36.0229H36.0177V36.4167H36.1046V36.2698H36.1591L36.2425 36.4167H36.337L36.2459 36.2553C36.3004 36.2388 36.3294 36.2008 36.3294 36.1429V36.1429ZM36.1791 36.1988H36.1046V36.094H36.1791C36.2204 36.094 36.239 36.114 36.239 36.1443C36.239 36.1788 36.2204 36.1988 36.1791 36.1988Z" fill="#02192B"/>
    <path d="M38.2887 36.1888H39.012V38.0118H39.3099V36.1888H40.0325V35.9192H38.2887L38.2887 36.1888Z" fill="#02192B"/>
    <path d="M41.0159 38.0124H42.4583V37.7428H41.3144V37.0864H42.3632V36.8175H41.3144V36.1893H42.4583V35.9204H41.0159V38.0124Z" fill="#02192B"/>
    <path d="M44.0765 35.9207L43.3312 38.0127H43.6484L43.8387 37.4638H44.7454L44.935 38.0127H45.2521L44.504 35.9207H44.0765ZM43.9338 37.1949L44.2917 36.1613L44.6502 37.1949H43.9338Z" fill="#02192B"/>
    <path d="M47.358 37.7864L46.7623 35.9199H46.2513V38.012H46.5499V36.1986L47.1298 38.012H47.5862L48.1723 36.1766V38.012H48.4709V35.9199H47.9537L47.358 37.7864Z" fill="#02192B"/>
    <path d="M22.1517 33.4177H23.1288L23.6452 32.8351H26.4481L26.9652 33.4177H27.9423L25.0471 30.2556L22.1517 33.4177ZM24.1403 32.2834L25.047 31.263L25.9537 32.2834H24.1403Z" fill="#02192B"/>
    <path d="M43.3405 30.3533H42.5131V33.4188H43.3405V30.3533Z" fill="#02192B"/>
    <path d="M50.2299 32.2439L46.8051 30.3518H45.9688V33.4173H46.7355V31.153L51.005 33.5049V30.3518H50.23L50.2299 32.2439Z" fill="#02192B"/>
    <path d="M30.5486 30.3533H29.7205V33.4188H33.483L33.7147 32.8672H30.5484L30.5486 30.3533Z" fill="#02192B"/>
    <path d="M54.4609 32.867V32.1354H57.8202V31.5838H54.4609V30.9046H57.8202V30.353H53.6334V33.4186H57.776L57.9298 32.8669L54.4609 32.867Z" fill="#02192B"/>
    <path d="M38.9965 30.3533H35.4539V33.4188H36.2813V32.3942H38.9572C39.9515 32.3942 40.3369 31.9778 40.3369 31.3606C40.3369 30.7649 39.9163 30.3533 38.9965 30.3533L38.9965 30.3533ZM38.7993 31.8419H36.2812V30.9049H38.7951C39.2943 30.9049 39.4474 31.058 39.4474 31.3827C39.4474 31.6668 39.2329 31.8419 38.7992 31.8419" fill="#02192B"/>
    <path d="M37.4079 41.3271L36.7439 41.8519H39.1441L39.8081 41.3271H37.4079Z" fill="#2173B8"/>
    <path d="M39.8085 41.3271L39.1445 41.8519H40.2643L40.9283 41.3271H39.8085Z" fill="#FFFFFD"/>
    <path d="M40.9294 41.3271L40.2654 41.8519H42.6745L43.3384 41.3271H40.9294Z" fill="#E12319"/>
</svg>
