<svg width="80" height="52" viewBox="0 0 80 52" fill="none" xmlns="http://www.w3.org/2000/svg">
    <path d="M78.6205 52H1.37937C0.617655 52 0 51.3872 0 50.6315V1.36848C0 0.612779 0.617655 0 1.37937 0H78.6206C79.3823 0 80 0.612779 80 1.36848V50.6315C79.9998 51.3874 79.3822 52 78.6205 52Z" fill="#F6F5F3"/>
    <path d="M58.3036 21.5356C58.4594 18.2718 56.1797 16.1054 53.6026 14.6187L51.9318 24.4525C52.2767 24.4046 52.628 24.4316 52.9615 24.5318C53.2951 24.632 53.6031 24.803 53.8646 25.0331C54.1641 25.327 54.3432 25.7221 54.3668 26.1412C54.3904 26.5602 54.2567 26.9729 53.992 27.2986C55.6062 27.0296 58.1195 25.4791 58.3036 21.5356Z" fill="#01E8F7"/>
    <path fill-rule="evenodd" clip-rule="evenodd" d="M36.3561 10.1019L34.3737 8.09826C37.3756 7.73011 45.2979 8.19738 52.9653 13.0046C53.0355 13.4336 53.0355 13.8712 52.9653 14.3002L53.6096 14.6259C54.1246 15.4802 54.4638 16.4288 54.6073 17.416C54.7508 18.4032 54.6956 19.4091 54.445 20.3747C53.7795 23.0367 52.6397 24.2119 52.1299 24.4526C51.1033 24.4526 49.3546 25.0473 48.7882 27.681C48.2219 30.3147 47.1316 30.8882 46.6643 30.8457L35.3366 30.9802L27.8603 26.5766L26.7842 17.4649L28.9081 14.6329L32.7029 11.532L35.4074 10.4275L36.3561 10.1019ZM49.744 13.8329C49.4242 14.172 49.0511 14.4565 48.6396 14.6754C45.7298 14.0524 44.6749 12.5515 44.6749 12.5515C47.1493 12.4776 49.597 13.0797 51.7547 14.2931C51.0976 14.0869 50.4253 13.933 49.744 13.8329Z" fill="#00B3EC"/>
    <path fill-rule="evenodd" clip-rule="evenodd" d="M48.6892 27.681C46.534 28.7174 44.1706 29.2478 41.7793 29.2315C34.6357 29.2315 28.8515 24.7429 28.8515 19.2135C28.8515 15.1214 32.0091 11.6098 36.5331 10.0522C27.9241 10.5478 21 17.4648 21 26.0031C21 35.8582 29.786 44 40.604 44C44.3635 43.9688 48.0468 42.9364 51.2747 41.0088C54.5026 39.0813 57.1586 36.3283 58.969 33.0333C54.1194 34.1236 48.3918 32.0492 48.6892 27.681Z" fill="#01E8F7"/>
    <path fill-rule="evenodd" clip-rule="evenodd" d="M1.37937 51.5937H78.6205C79.1569 51.5937 79.591 51.1625 79.5911 50.6315V1.36848C79.5911 0.83766 79.157 0.40625 78.6206 0.40625H1.37937C0.842981 0.40625 0.408931 0.837661 0.408931 1.36848V50.6315C0.408931 51.1623 0.842981 51.5937 1.37937 51.5937ZM1.37937 52H78.6205C79.3822 52 79.9998 51.3874 80 50.6315V1.36848C80 0.612779 79.3824 0 78.6206 0H1.37937C0.617655 0 0 0.612779 0 1.36848V50.6315C0 51.3872 0.617655 52 1.37937 52Z" fill="#A9A9A9"/>
</svg>

