<svg width="80" height="52" viewBox="0 0 80 52" fill="none" xmlns="http://www.w3.org/2000/svg">
    <path d="M78.6205 52H1.37937C0.617655 52 0 51.3872 0 50.6315V1.36848C0 0.612779 0.617655 0 1.37937 0H78.6206C79.3823 0 80 0.612779 80 1.36848V50.6315C79.9998 51.3874 79.3822 52 78.6205 52Z" fill="#F6F5F3"/>
    <path fill-rule="evenodd" clip-rule="evenodd" d="M1.37937 51.5938H78.6205C79.1569 51.5938 79.591 51.1625 79.5911 50.6315V1.36848C79.5911 0.83766 79.157 0.40625 78.6206 0.40625H1.37937C0.842981 0.40625 0.408931 0.837661 0.408931 1.36848V50.6315C0.408931 51.1623 0.842981 51.5938 1.37937 51.5938ZM1.37937 52H78.6205C79.3822 52 79.9998 51.3874 80 50.6315V1.36848C80 0.612779 79.3823 0 78.6206 0H1.37937C0.617655 0 0 0.612779 0 1.36848V50.6315C0 51.3872 0.617655 52 1.37937 52Z" fill="#A9A9A9"/>
    <path d="M40 44C49.9411 44 58 35.9411 58 26C58 16.0589 49.9411 8 40 8C30.0589 8 22 16.0589 22 26C22 35.9411 30.0589 44 40 44Z" fill="#2E3148"/>
    <path d="M40.0225 14.2213C38.5656 14.2213 37.3844 19.5054 37.3844 26.0225C37.3844 32.5396 38.5656 37.8238 40.0225 37.8238C41.4783 37.8238 42.6595 32.5396 42.6595 26.0225C42.6595 19.5054 41.4783 14.2213 40.0225 14.2213ZM40.2048 37.1566C40.0383 37.3794 39.8706 37.2129 39.8706 37.2129C39.2001 36.4344 38.8649 34.991 38.8649 34.991C37.6915 31.2144 37.9705 23.1065 37.9705 23.1065C38.5218 16.6704 39.5253 15.1494 39.8661 14.8119C39.9011 14.7773 39.9471 14.7561 39.9961 14.7522C40.0451 14.7483 40.0939 14.7619 40.1339 14.7905C40.6289 15.1426 41.0451 16.6096 41.0451 16.6096C42.2714 21.1636 42.16 25.4386 42.16 25.4386C42.2714 29.1601 41.5458 33.3249 41.5458 33.3249C40.9866 36.4906 40.2048 37.1566 40.2048 37.1566Z" fill="white"/>
    <path d="M50.2577 20.15C49.5321 18.8855 44.3627 20.4909 38.7074 23.7343C33.052 26.9777 29.0627 30.6305 29.7861 31.895C30.5117 33.1595 35.6822 31.5542 41.3376 28.3108C46.993 25.0674 50.9834 21.4134 50.2589 20.15H50.2577ZM30.4544 31.7207C30.1776 31.6869 30.2406 31.4574 30.2406 31.4574C30.5804 30.4899 31.6649 29.4797 31.6649 29.4797C34.357 26.5828 41.53 22.7904 41.53 22.7904C47.3867 20.0657 49.2059 20.1804 49.6671 20.3064C49.7148 20.3195 49.7562 20.3491 49.784 20.3899C49.8118 20.4307 49.8242 20.48 49.819 20.5292C49.7628 21.1333 48.694 22.2245 48.694 22.2245C45.3573 25.5557 41.593 27.5885 41.593 27.5885C38.4205 29.537 34.4459 30.9782 34.4459 30.9782C31.4219 32.0672 30.4544 31.7207 30.4544 31.7207Z" fill="white"/>
    <path d="M50.2318 31.9366C50.9631 30.6766 46.9839 27.0058 41.3466 23.7376C35.7103 20.4706 30.5421 18.8461 29.8119 20.1084C29.0807 21.3718 33.0609 25.0393 38.6994 28.3074C44.3391 31.5744 49.5017 33.1989 50.2318 31.9366ZM30.2968 20.5955C30.1877 20.339 30.4161 20.2771 30.4161 20.2771C31.4252 20.0859 32.8427 20.5213 32.8427 20.5213C36.6981 21.3988 43.5729 25.7053 43.5729 25.7053C48.8661 29.4088 49.6783 31.0411 49.7998 31.5035C49.8121 31.551 49.8072 31.6013 49.786 31.6456C49.7648 31.6899 49.7287 31.7252 49.6839 31.7454C49.1327 31.9985 47.6533 31.6216 47.6533 31.6216C43.0971 30.3999 39.4532 28.1623 39.4532 28.1623C36.1794 26.396 32.9417 23.6791 32.9417 23.6791C30.4813 21.6069 30.2979 20.5966 30.2979 20.5966L30.2957 20.5955H30.2968Z" fill="white"/>
    <path d="M39.9943 27.3826C40.761 27.3826 41.3826 26.7611 41.3826 25.9944C41.3826 25.2277 40.761 24.6061 39.9943 24.6061C39.2276 24.6061 38.6061 25.2277 38.6061 25.9944C38.6061 26.7611 39.2276 27.3826 39.9943 27.3826Z" fill="white"/>
    <path d="M45.6869 21.788C46.3082 21.788 46.8119 21.2843 46.8119 20.663C46.8119 20.0417 46.3082 19.538 45.6869 19.538C45.0656 19.538 44.5619 20.0417 44.5619 20.663C44.5619 21.2843 45.0656 21.788 45.6869 21.788Z" fill="white"/>
    <path d="M32.4692 24.6207C33.0906 24.6207 33.5942 24.117 33.5942 23.4957C33.5942 22.8744 33.0906 22.3707 32.4692 22.3707C31.8479 22.3707 31.3442 22.8744 31.3442 23.4957C31.3442 24.117 31.8479 24.6207 32.4692 24.6207Z" fill="white"/>
    <path d="M38.3563 34.838C38.9776 34.838 39.4813 34.3343 39.4813 33.713C39.4813 33.0917 38.9776 32.588 38.3563 32.588C37.735 32.588 37.2313 33.0917 37.2313 33.713C37.2313 34.3343 37.735 34.838 38.3563 34.838Z" fill="white"/>
</svg>
