<svg width="80" height="52" viewBox="0 0 80 52" fill="none" xmlns="http://www.w3.org/2000/svg">
    <path d="M78.6205 52H1.37937C0.617655 52 0 51.3872 0 50.6315V1.36848C0 0.612779 0.617655 0 1.37937 0H78.6206C79.3823 0 80 0.612779 80 1.36848V50.6315C79.9998 51.3874 79.3822 52 78.6205 52Z" fill="#F6F5F3"/>
    <path fill-rule="evenodd" clip-rule="evenodd" d="M1.37937 51.5938H78.6205C79.1569 51.5938 79.591 51.1625 79.5911 50.6315V1.36848C79.5911 0.83766 79.157 0.40625 78.6206 0.40625H1.37937C0.842981 0.40625 0.408931 0.837661 0.408931 1.36848V50.6315C0.408931 51.1623 0.842981 51.5938 1.37937 51.5938ZM1.37937 52H78.6205C79.3822 52 79.9998 51.3874 80 50.6315V1.36848C80 0.612779 79.3823 0 78.6206 0H1.37937C0.617655 0 0 0.612779 0 1.36848V50.6315C0 51.3872 0.617655 52 1.37937 52Z" fill="#A9A9A9"/>
    <path d="M40 44C49.9411 44 58 35.9411 58 26C58 16.0589 49.9411 8 40 8C30.0589 8 22 16.0589 22 26C22 35.9411 30.0589 44 40 44Z" fill="#E84142"/>
    <path d="M46.3496 26.4677C46.9732 25.3906 47.9795 25.3906 48.6031 26.4677L52.4866 33.2851C53.1102 34.3622 52.6 35.241 51.3527 35.241H43.5291C42.296 35.241 41.7858 34.3622 42.3952 33.2851L46.3496 26.4677ZM38.8378 13.3433C39.4614 12.2662 40.4535 12.2662 41.0771 13.3433L41.9417 14.9024L43.9826 18.4882C44.4787 19.5087 44.4787 20.7134 43.9826 21.7339L37.137 33.5969C36.5133 34.5607 35.4787 35.1701 34.3307 35.241H28.6472C27.4 35.241 26.8897 34.3764 27.5134 33.2851L38.8378 13.3433Z" fill="white"/>
</svg>
