<svg width="80" height="52" viewBox="0 0 80 52" fill="none" xmlns="http://www.w3.org/2000/svg">
<path d="M78.6205 52H1.37937C0.617655 52 0 51.3872 0 50.6315V1.36848C0 0.612779 0.617655 0 1.37937 0H78.6206C79.3823 0 80 0.612779 80 1.36848V50.6315C79.9998 51.3874 79.3822 52 78.6205 52Z" fill="#F6F5F3"/>
<path fill-rule="evenodd" clip-rule="evenodd" d="M1.37937 51.5938H78.6205C79.1569 51.5938 79.591 51.1625 79.5911 50.6315V1.36848C79.5911 0.83766 79.157 0.40625 78.6206 0.40625H1.37937C0.842981 0.40625 0.408931 0.837661 0.408931 1.36848V50.6315C0.408931 51.1623 0.842981 51.5938 1.37937 51.5938ZM1.37937 52H78.6205C79.3822 52 79.9998 51.3874 80 50.6315V1.36848C80 0.612779 79.3823 0 78.6206 0H1.37937C0.617655 0 0 0.612779 0 1.36848V50.6315C0 51.3872 0.617655 52 1.37937 52Z" fill="#A9A9A9"/>
<path fill-rule="evenodd" clip-rule="evenodd" d="M40 8C49.9396 8 58 16.0604 58 26C58 35.9396 49.9396 44 40 44C30.0604 44 22 35.9396 22 26C22 16.0604 30.0604 8 40 8Z" fill="#0055D5"/>
<path fill-rule="evenodd" clip-rule="evenodd" d="M31.792 19.9089C31.792 19.9089 29.8552 18.3609 29.722 22.1841C29.5888 25.1469 29.5924 30.8997 30.964 33.6177C31.5436 34.6401 32.3176 34.3269 33.7576 33.3081C35.0104 32.3829 39.5428 28.2069 41.4616 26.3745C43.3804 24.5421 47.272 19.2861 48.082 22.8573C48.4024 24.3585 48.7984 25.6329 48.496 28.9629C48.4024 29.9889 47.9632 30.7665 45.9616 29.3769C44.4496 28.4049 43.0132 27.3609 43.0132 27.3609C43.0132 27.3609 42.736 26.8641 42.0808 27.6705C41.566 28.3149 41.3068 28.4733 42.1312 28.9629C42.9592 29.4525 47.146 32.3397 48.7516 32.7897C50.0764 33.1749 50.8324 33.1677 50.872 30.5649C50.8648 28.4985 50.746 22.5837 49.9936 20.0637C49.4248 18.4941 48.5896 17.7813 46.786 19.5453C44.9824 21.3093 39.2944 26.8245 36.184 29.3229C34.1212 30.8709 33.2392 32.2677 32.4616 29.6865C31.9144 27.7317 31.2052 21.6477 33.4444 22.8069C34.8448 23.4765 35.5432 23.4729 34.996 23.8941C34.4488 24.3117 32.8756 25.7553 32.8756 25.7553C32.8756 25.7553 32.3896 26.1477 32.6164 26.9973C32.8432 27.5913 32.8432 27.8865 34.0636 26.7381C35.284 25.5897 36.184 24.7221 36.184 24.7221C36.184 24.7221 36.3784 24.4161 36.958 24.9813C37.5376 25.5465 37.6312 25.7049 37.6312 25.7049C37.6312 25.7049 37.786 26.1261 38.4052 25.3953C39.028 24.6645 39.4276 24.2181 38.2504 23.5341C37.0768 22.8429 31.792 19.9089 31.792 19.9089Z" fill="white"/>
</svg>
