<svg width="419" height="355" viewBox="0 0 419 355" fill="none" xmlns="http://www.w3.org/2000/svg">
    <path d="M398.977 306H19.7718C16.0323 306 13 302.971 13 299.237V55.7635C13 52.0285 16.0323 49 19.7718 49H398.977C402.717 49 405.749 52.0285 405.749 55.7635V299.237C405.748 302.972 402.716 306 398.977 306Z" fill="#F6F5F3"/>
    <path d="M398.977 305.25C402.302 305.25 404.999 302.558 404.999 299.237V55.7635C404.999 52.443 402.303 49.75 398.977 49.75H19.7718C16.4463 49.75 13.75 52.443 13.75 55.7635V299.237C13.75 302.557 16.4463 305.25 19.7718 305.25H398.977Z" stroke="#A9A9A9" stroke-width="1.5" fill="#f6f5f3"/>
    <path d="M169.993 161.563L210 121.556L250.025 161.58L273.303 138.302L210 75L146.717 138.283L169.994 161.561L169.993 161.563ZM107 178L130.279 154.718L153.556 177.995L130.277 201.274L107 178ZM169.993 194.44L210 234.444L250.024 194.421L273.315 217.686L273.303 217.699L210 281L146.717 217.717L146.684 217.684L169.995 194.437L169.993 194.44ZM266.443 178.01L289.722 154.731L312.999 178.008L289.721 201.287L266.443 178.01Z" fill="#F3BA2F"/>
    <path d="M233.609 177.988H233.619L210 154.367L192.542 171.82L190.537 173.827L186.4 177.964L186.367 177.996L186.4 178.03L210 201.634L233.621 178.013L233.632 178L233.611 177.988" fill="#F3BA2F"/>
</svg>
