<svg width="512" height="512" xmlns="http://www.w3.org/2000/svg" viewBox="0 0 512 512">
  <path fill="#f6f5f3" d="m503.3,425.5l-494.4,0c-4.9,0 -8.8,-4 -8.8,-8.8l0,-317.7c0,-4.9 4,-8.8 8.8,-8.8l494.3,0c4.9,0 8.8,4 8.8,8.8l0,317.7c0.1,4.8 -3.9,8.8 -8.7,8.8z" />
  <path fill="#f7931a" d="m368.825859,260.779008c-0.598151,63.737997 -54.47408,115.921847 -120.395633,116.486486c-65.921553,0.564639 -118.883205,-50.64389 -118.285054,-114.381886c0.598151,-63.737997 54.47408,-115.921847 120.395633,-116.486486c65.800331,-0.637477 118.859013,50.54686 118.285054,114.381886z"/>
  <path fill="#ffffff" d="m296.689,233.108563c-1.372695,-15.426137 -15.121225,-20.552337 -32.558705,-21.87306l0.207621,-21.488529l-13.485024,0.064231l-0.158715,20.857968c-3.589573,0.07049 -7.179145,0.14098 -10.768718,0.21147l0.207361,-21.076219l-13.485024,0.064231l-0.207621,21.488529c-2.959011,0.119396 -5.820992,0.2146 -8.610136,0.188582l-0.024192,-0.09703l-18.626809,0.109485l-0.130089,13.945719c0,0 9.919905,-0.309021 9.77423,-0.066578c5.457066,-0.020802 7.249896,3.036282 7.709026,5.704465l-0.185255,24.471732c0.41231,0.000261 0.824621,0.000522 1.455183,0.049428c-0.41231,-0.000261 -0.921651,0.023671 -1.430991,0.047602l-0.336929,34.197317c-0.292132,1.721818 -1.288185,4.340574 -5.096009,4.362419c0.145414,0.169867 -9.77423,0.066578 -9.77423,0.066578l-2.799055,15.64178l17.583937,-0.158652c3.298484,0.002087 6.499938,0.028365 9.6772,-0.042386l-0.159237,21.682588l13.485024,-0.064231l0.207621,-21.488529c3.710794,0.002347 7.324559,0.028887 10.817102,-0.017411l-0.231814,21.3915l13.485024,-0.064231l0.159237,-21.682588c22.726504,-1.440838 38.616205,-7.154629 40.787828,-27.793041c1.732512,-16.612598 -6.290752,-23.990757 -19.16758,-26.860824c7.739217,-3.681647 12.642731,-10.469544 11.679738,-21.772315zm-19.311035,46.554634c-0.180039,16.225523 -28.822478,14.606669 -37.966146,14.722153l0.260701,-28.716059c9.143668,-0.115484 37.813168,-2.935016 37.705445,13.993906zm-5.98923,-40.555753c-0.130611,14.77034 -24.116413,13.227193 -31.732061,13.270882l0.21049,-26.023945c7.712677,-0.067882 31.701087,-2.647839 31.52157,12.753062z" />

</svg>