<svg width="80" height="52" viewBox="0 0 80 52" fill="none" xmlns="http://www.w3.org/2000/svg">
    <path d="M78.6205 52H1.37937C0.617655 52 0 51.3872 0 50.6315V1.36848C0 0.612779 0.617655 0 1.37937 0H78.6206C79.3823 0 80 0.612779 80 1.36848V50.6315C79.9998 51.3874 79.3822 52 78.6205 52Z" fill="#F6F5F3"/>
    <path fill-rule="evenodd" clip-rule="evenodd" d="M1.37937 51.5938H78.6205C79.1569 51.5938 79.591 51.1625 79.5911 50.6315V1.36848C79.5911 0.83766 79.157 0.40625 78.6206 0.40625H1.37937C0.842981 0.40625 0.408931 0.837661 0.408931 1.36848V50.6315C0.408931 51.1623 0.842981 51.5938 1.37937 51.5938ZM1.37937 52H78.6205C79.3822 52 79.9998 51.3874 80 50.6315V1.36848C80 0.612779 79.3823 0 78.6206 0H1.37937C0.617655 0 0 0.612779 0 1.36848V50.6315C0 51.3872 0.617655 52 1.37937 52Z" fill="#A9A9A9"/>
    <path d="M22 26C22 16.0589 30.0589 8 40 8C49.9411 8 58 16.0589 58 26C58 35.9411 49.9411 44 40 44C30.0589 44 22 35.9411 22 26Z" fill="#CD0124"/>
    <path d="M49.5348 16.3572H31.9385L30.6676 17.1672L39.6245 36.487L40.63 37.5715L49.5348 16.3572Z" fill="white"/>
    <path d="M42.7045 26.8743C42.7045 26.6473 42.7045 26.5342 42.5084 26.421C41.8206 25.8553 41.0344 25.2896 40.3465 24.7239C40.2764 24.669 40.19 24.6389 40.1009 24.6384C40.0119 24.6389 39.9255 24.669 39.8554 24.7239L37.6941 26.5342C37.601 26.5902 37.5254 26.6713 37.4762 26.7682C37.4234 26.8707 37.3969 26.9846 37.399 27.0999C37.3957 27.3397 37.328 27.5741 37.2029 27.7788C37.1537 27.8649 37.128 27.9624 37.1284 28.0616C37.1284 28.1625 37.1541 28.2609 37.2029 28.3445L40.3465 35.7309L42.9996 28.5708C43.0979 28.3445 43.0979 28.2313 42.9012 28.1182C42.7892 27.9359 42.7147 27.7331 42.682 27.5216C42.6479 27.3062 42.6556 27.0862 42.7045 26.8736V26.8743ZM39.3276 23.73L33.0353 19.0115L32.9286 19.1272C33.0353 19.3567 33.0353 19.4718 33.142 19.7019L35.3817 24.8808C35.5952 25.341 35.7019 25.8013 36.3415 25.9164C36.526 25.9344 36.7112 25.8945 36.8751 25.8013L39.3276 23.73ZM40 22.7985C40.0821 22.856 40.1798 22.8868 40.28 22.8868C40.3802 22.8868 40.4779 22.856 40.5599 22.7985C42.6884 21.1535 44.8169 19.6267 46.8342 17.9823C46.9461 17.8646 47.058 17.8646 47.058 17.747V17.6428H32.9414C33.07 17.6923 33.1857 17.7598 33.2777 17.8646L40 22.7985ZM41.1199 23.73L43.6707 25.5712C43.8829 25.6863 44.2017 25.5712 44.5206 25.5712C44.6273 25.5712 44.7334 25.341 44.7334 25.226C45.4772 23.3848 46.2216 21.4286 46.9654 19.5868C46.9654 19.4718 47.0714 19.3567 47.0714 19.2416H46.9654L41.1199 23.73Z" fill="#CD0124"/>
    <path d="M35.6826 28.5926C36.4811 28.5926 37.1284 27.9277 37.1284 27.1076C37.1284 26.2874 36.4811 25.6226 35.6826 25.6226C34.8841 25.6226 34.2368 26.2874 34.2368 27.1076C34.2368 27.9277 34.8841 28.5926 35.6826 28.5926Z" fill="white"/>
    <path d="M44.5096 28.5926C45.3081 28.5926 45.9554 27.9277 45.9554 27.1076C45.9554 26.2874 45.3081 25.6226 44.5096 25.6226C43.7111 25.6226 43.0638 26.2874 43.0638 27.1076C43.0638 27.9277 43.7111 28.5926 44.5096 28.5926Z" fill="white"/>
    <path d="M31.3214 18.9261C32.209 18.9261 32.9285 18.2071 32.9285 17.3202C32.9285 16.4333 32.209 15.7144 31.3214 15.7144C30.4338 15.7144 29.7142 16.4333 29.7142 17.3202C29.7142 18.2071 30.4338 18.9261 31.3214 18.9261Z" fill="white"/>
    <path d="M48.6786 18.9261C49.5662 18.9261 50.2857 18.2071 50.2857 17.3202C50.2857 16.4333 49.5662 15.7144 48.6786 15.7144C47.791 15.7144 47.0714 16.4333 47.0714 17.3202C47.0714 18.2071 47.791 18.9261 48.6786 18.9261Z" fill="white"/>
    <path d="M40.3227 38.8571C41.211 38.8571 41.9311 38.1376 41.9311 37.25C41.9311 36.3624 41.211 35.6428 40.3227 35.6428C39.4344 35.6428 38.7142 36.3624 38.7142 37.25C38.7142 38.1376 39.4344 38.8571 40.3227 38.8571Z" fill="white"/>
</svg>
