<svg width="80" height="52" viewBox="0 0 80 52" fill="none" xmlns="http://www.w3.org/2000/svg">
    <path d="M78.6205 52H1.37937C0.617655 52 0 51.3872 0 50.6315V1.36848C0 0.612779 0.617655 0 1.37937 0H78.6206C79.3823 0 80 0.612779 80 1.36848V50.6315C79.9998 51.3874 79.3822 52 78.6205 52Z" fill="#F6F5F3"/>
    <path fill-rule="evenodd" clip-rule="evenodd" d="M1.37937 51.5938H78.6205C79.1569 51.5938 79.591 51.1625 79.5911 50.6315V1.36848C79.5911 0.83766 79.157 0.40625 78.6206 0.40625H1.37937C0.842981 0.40625 0.408931 0.837661 0.408931 1.36848V50.6315C0.408931 51.1623 0.842981 51.5938 1.37937 51.5938ZM1.37937 52H78.6205C79.3822 52 79.9998 51.3874 80 50.6315V1.36848C80 0.612779 79.3823 0 78.6206 0H1.37937C0.617655 0 0 0.612779 0 1.36848V50.6315C0 51.3872 0.617655 52 1.37937 52Z" fill="#A9A9A9"/>
    <path d="M40 44C49.9411 44 58 35.9411 58 26C58 16.0589 49.9411 8 40 8C30.0589 8 22 16.0589 22 26C22 35.9411 30.0589 44 40 44Z" fill="#00D395"/>
    <path fill-rule="evenodd" clip-rule="evenodd" d="M31.6412 32.2854C31.3616 32.12 31.1296 31.885 30.968 31.6032C30.8063 31.3215 30.7204 31.0026 30.7188 30.6777V27.0181C30.7188 26.5827 31.081 26.2306 31.5242 26.2329C31.666 26.2329 31.8055 26.27 31.9293 26.3397L40.3701 31.1559C40.864 31.4371 41.1689 31.9546 41.1689 32.5137V36.305C41.1681 36.4303 41.1426 36.5542 41.0938 36.6697C41.045 36.7851 40.9739 36.8897 40.8845 36.9775C40.7951 37.0654 40.6892 37.1347 40.5729 37.1814C40.4567 37.2282 40.3323 37.2515 40.207 37.25C40.0289 37.2501 39.854 37.2023 39.7008 37.1116L31.6412 32.2854ZM44.2232 25.3374C44.7182 25.6186 45.0198 26.1372 45.022 26.6952V34.3902C45.022 34.6175 44.8983 34.8279 44.6946 34.9381L42.8474 35.9551C42.8236 35.9683 42.7983 35.9785 42.772 35.9855V31.7127C42.772 31.1592 42.4761 30.6462 41.989 30.3627L34.5775 26.0225V21.1996C34.5775 20.7642 34.9398 20.4121 35.3841 20.4144C35.5257 20.4146 35.6648 20.4514 35.788 20.5212L44.2255 25.3374H44.2232ZM47.9189 19.6539C48.4139 19.9351 48.7188 20.4526 48.7188 21.014V32.2527C48.7173 32.3669 48.6851 32.4786 48.6255 32.576C48.5659 32.6735 48.4812 32.753 48.3801 32.8062L46.6285 33.7321V25.9066C46.6285 25.3542 46.3315 24.8424 45.8489 24.5577L38.2709 20.1106V15.5375C38.2709 15.398 38.3102 15.2619 38.3789 15.1415C38.4892 14.9606 38.6656 14.8297 38.8708 14.7765C39.0759 14.7234 39.2937 14.7522 39.478 14.8569L47.9189 19.655V19.6539Z" fill="white"/>
</svg>
