<svg width="80" height="52" viewBox="0 0 80 52" fill="none" xmlns="http://www.w3.org/2000/svg">
    <path d="M78.6205 52H1.37937C0.617655 52 0 51.3872 0 50.6315V1.36848C0 0.612779 0.617655 0 1.37937 0H78.6206C79.3823 0 80 0.612779 80 1.36848V50.6315C79.9998 51.3874 79.3822 52 78.6205 52Z" fill="#F6F5F3"/>
    <path fill-rule="evenodd" clip-rule="evenodd" d="M1.37937 51.5938H78.6205C79.1569 51.5938 79.591 51.1625 79.5911 50.6315V1.36848C79.5911 0.83766 79.157 0.40625 78.6206 0.40625H1.37937C0.842981 0.40625 0.408931 0.837661 0.408931 1.36848V50.6315C0.408931 51.1623 0.842981 51.5938 1.37937 51.5938ZM1.37937 52H78.6205C79.3822 52 79.9998 51.3874 80 50.6315V1.36848C80 0.612779 79.3823 0 78.6206 0H1.37937C0.617655 0 0 0.612779 0 1.36848V50.6315C0 51.3872 0.617655 52 1.37937 52Z" fill="#A9A9A9"/>
    <circle cx="40" cy="26" r="18" fill="#E9570F"/>
    <path d="M35.4118 22.8236C35.4118 18.925 38.572 15.7648 42.4706 15.7648V14.353C37.7927 14.353 34 18.1457 34 22.8236H35.4118ZM42.4706 17.8824C41.1601 17.8824 39.9033 18.403 38.9767 19.3297C38.05 20.2563 37.5294 21.5131 37.5294 22.8236H36.1177C36.1177 21.1387 36.787 19.5228 37.9784 18.3314C39.1698 17.14 40.7857 16.4707 42.4706 16.4707V17.8824ZM42.4706 20.0001C41.7218 20.0001 41.0036 20.2976 40.4741 20.8271C39.9446 21.3566 39.6471 22.0748 39.6471 22.8236H38.2353C38.2353 21.7003 38.6815 20.6231 39.4758 19.8288C40.2701 19.0345 41.3474 18.5883 42.4706 18.5883V20.0001ZM36.1177 29.8824C32.2191 29.8824 29.0589 26.7222 29.0589 22.8236H27.6471C27.6471 27.5015 31.4398 31.2942 36.1177 31.2942V29.8824ZM31.1765 22.8236C31.1765 24.1341 31.6971 25.3909 32.6237 26.3176C33.5504 27.2442 34.8072 27.7648 36.1177 27.7648V29.1766C34.4328 29.1766 32.8169 28.5072 31.6255 27.3158C30.4341 26.1244 29.7647 24.5085 29.7647 22.8236H31.1765ZM33.2942 22.8236C33.2942 23.5725 33.5916 24.2906 34.1211 24.8202C34.6507 25.3497 35.3688 25.6471 36.1177 25.6471V27.0589C34.9944 27.0589 33.9171 26.6127 33.1229 25.8184C32.3286 25.0241 31.8824 23.9469 31.8824 22.8236H33.2942ZM43.1765 22.1177C47.0751 22.1177 50.2353 25.278 50.2353 29.1766H51.6471C51.6471 24.4987 47.8544 20.706 43.1765 20.706V22.1177ZM48.1177 29.1766C48.1177 27.8661 47.5971 26.6093 46.6704 25.6826C45.7438 24.756 44.487 24.2354 43.1765 24.2354V22.8236C44.8614 22.8236 46.4773 23.4929 47.6687 24.6843C48.8601 25.8758 49.5294 27.4917 49.5294 29.1766H48.1177ZM46 29.1766C46 28.4277 45.7026 27.7095 45.173 27.18C44.6435 26.6505 43.9254 26.353 43.1765 26.353V24.9413C44.2998 24.9413 45.377 25.3875 46.1713 26.1818C46.9656 26.976 47.4118 28.0533 47.4118 29.1766H46ZM38.9412 29.1766C38.9412 29.9254 38.6437 30.6436 38.1142 31.1731C37.5847 31.7026 36.8665 32.0001 36.1177 32.0001V33.4118C37.241 33.4118 38.3182 32.9656 39.1125 32.1714C39.9068 31.3771 40.353 30.2998 40.353 29.1766H38.9412ZM41.0589 29.1766C41.0589 30.487 40.5383 31.7438 39.6116 32.6705C38.685 33.5971 37.4282 34.1177 36.1177 34.1177V35.5295C37.8026 35.5295 39.4185 34.8602 40.6099 33.6688C41.8013 32.4774 42.4706 30.8615 42.4706 29.1766H41.0589ZM36.1177 36.2354C40.0163 36.2354 43.1765 33.0751 43.1765 29.1766H44.5883C44.5883 33.8544 40.7956 37.6471 36.1177 37.6471V36.2354Z" fill="white"/>
</svg>
