<svg width="80" height="52" viewBox="0 0 80 52" fill="none" xmlns="http://www.w3.org/2000/svg">
    <path d="M78.6205 52H1.37937C0.617655 52 0 51.3872 0 50.6315V1.36848C0 0.612779 0.617655 0 1.37937 0H78.6206C79.3823 0 80 0.612779 80 1.36848V50.6315C79.9998 51.3874 79.3822 52 78.6205 52Z" fill="#F6F5F3"/>
    <path fill-rule="evenodd" clip-rule="evenodd" d="M1.37937 51.5938H78.6205C79.1569 51.5938 79.591 51.1625 79.5911 50.6315V1.36848C79.5911 0.83766 79.157 0.40625 78.6206 0.40625H1.37937C0.842981 0.40625 0.408931 0.837661 0.408931 1.36848V50.6315C0.408931 51.1623 0.842981 51.5938 1.37937 51.5938ZM1.37937 52H78.6205C79.3822 52 79.9998 51.3874 80 50.6315V1.36848C80 0.612779 79.3823 0 78.6206 0H1.37937C0.617655 0 0 0.612779 0 1.36848V50.6315C0 51.3872 0.617655 52 1.37937 52Z" fill="#A9A9A9"/>
    <circle cx="40" cy="26" r="18" fill="#006AD2"/>
    <path d="M35.9364 37.4993L36.5818 35.7487L35.5364 35.8472L35.0759 37.0198C34.9754 37.2476 34.877 37.4873 34.5838 37.4873L32.185 37.5L32.6842 36.0932H30.033C30.045 35.921 35.1181 23.1173 35.315 22.7355H39.633C40.0267 22.7721 40.2482 23.0765 40.1251 23.4702L39.5226 25.0204L36.9144 31.9959C40.5301 31.9959 43.9504 29.8749 45.502 26.5952C46.6725 24.3841 46.9924 20.6264 43.5454 20.6264H30L31.7836 17.6512C31.8634 17.4922 31.9868 17.3592 32.1392 17.2676C32.2917 17.176 32.467 17.1296 32.6448 17.1337H39.8545L40.6679 15H43.0301C43.1777 15.0246 43.2762 15.1476 43.2522 15.3079L43.1904 15.5048L42.6596 16.9123L42.5858 17.1218H43.57L43.6438 16.9615L44.3349 15.1722C44.3961 15 44.3961 15 44.5564 15H46.6472C46.9305 15 47.0409 15.1603 46.9305 15.4429L46.3632 16.9741L46.2767 17.1829L46.4616 17.2202C47.4213 17.3432 48.3683 17.5527 49.2541 17.9584C49.9311 18.2663 50.5463 18.66 51.0503 19.226C51.7393 19.9888 52.0838 20.8865 52.133 21.908C52.1949 22.8923 52.01 23.8512 51.6782 24.7743C50.9468 26.9481 49.7596 28.9407 48.196 30.6187C45.8999 32.9914 42.8543 34.401 39.6822 35.1828C39.5346 35.2201 39.4608 35.2812 39.4116 35.4289L38.7908 37.0936C38.6677 37.4016 38.5447 37.4993 38.2375 37.4993H35.9364Z" fill="white"/>
</svg>
