<svg width="80" height="52" viewBox="0 0 80 52" fill="none" xmlns="http://www.w3.org/2000/svg">
    <path d="M78.6205 52H1.37937C0.617655 52 0 51.3872 0 50.6315V1.36848C0 0.612779 0.617655 0 1.37937 0H78.6206C79.3823 0 80 0.612779 80 1.36848V50.6315C79.9998 51.3874 79.3822 52 78.6205 52Z" fill="#F6F5F3"/>
    <path fill-rule="evenodd" clip-rule="evenodd" d="M1.37937 51.5938H78.6205C79.1569 51.5938 79.591 51.1625 79.5911 50.6315V1.36848C79.5911 0.83766 79.157 0.40625 78.6206 0.40625H1.37937C0.842981 0.40625 0.408931 0.837661 0.408931 1.36848V50.6315C0.408931 51.1623 0.842981 51.5938 1.37937 51.5938ZM1.37937 52H78.6205C79.3822 52 79.9998 51.3874 80 50.6315V1.36848C80 0.612779 79.3823 0 78.6206 0H1.37937C0.617655 0 0 0.612779 0 1.36848V50.6315C0 51.3872 0.617655 52 1.37937 52Z" fill="#A9A9A9"/>
    <path d="M40.4319 19.8621H37.8601V24.9325H41.9063V27.0554H37.8601V32.1255H40.5579C41.2511 32.1255 46.2488 32.2038 46.2411 26.2265C46.2333 20.2492 41.3939 19.8621 40.4319 19.8621Z" fill="#C2A633"/>
    <path d="M40 8C30.0588 8 22 16.0588 22 26C22 35.9412 30.0588 44 40 44C49.9412 44 58 35.9412 58 26C58 16.0588 49.9412 8 40 8ZM40.7072 35.7218H34.1885V27.0555H31.8906V24.9326H34.1883V16.2658H39.7831C41.1066 16.2658 49.8732 15.9909 49.8732 26.1564C49.8732 36.49 40.7074 35.7218 40.7074 35.7218H40.7072Z" fill="#C2A633"/>
</svg>
