<svg width="80" height="52" viewBox="0 0 80 52" fill="none" xmlns="http://www.w3.org/2000/svg">
    <path d="M78.6205 52H1.37937C0.617655 52 0 51.3872 0 50.6315V1.36848C0 0.612779 0.617655 0 1.37937 0H78.6206C79.3823 0 80 0.612779 80 1.36848V50.6315C79.9998 51.3874 79.3822 52 78.6205 52Z" fill="#F6F5F3"/>
    <path fill-rule="evenodd" clip-rule="evenodd" d="M1.37937 51.5938H78.6205C79.1569 51.5938 79.591 51.1625 79.5911 50.6315V1.36848C79.5911 0.83766 79.157 0.40625 78.6206 0.40625H1.37937C0.842981 0.40625 0.408931 0.837661 0.408931 1.36848V50.6315C0.408931 51.1623 0.842981 51.5938 1.37937 51.5938ZM1.37937 52H78.6205C79.3822 52 79.9998 51.3874 80 50.6315V1.36848C80 0.612779 79.3823 0 78.6206 0H1.37937C0.617655 0 0 0.612779 0 1.36848V50.6315C0 51.3872 0.617655 52 1.37937 52Z" fill="#A9A9A9"/>
    <path d="M40 44C49.9411 44 58 35.9411 58 26C58 16.0589 49.9411 8 40 8C30.0589 8 22 16.0589 22 26C22 35.9411 30.0589 44 40 44Z" fill="#E6007A"/>
    <path d="M40.306 15.4531C36.1357 15.4531 32.728 18.8416 32.728 23.0311C32.728 23.8737 32.8675 24.6961 33.1285 25.4971C33.2209 25.7616 33.4134 25.9792 33.6647 26.1031C33.9159 26.227 34.2057 26.2474 34.4718 26.1597C34.736 26.0671 34.9534 25.8745 35.0771 25.6233C35.2008 25.3721 35.221 25.0824 35.1333 24.8165C34.9133 24.192 34.8115 23.532 34.8329 22.8703C34.9128 20.0443 37.1988 17.7177 40.0259 17.5782C40.7664 17.5393 41.5072 17.6515 42.203 17.9079C42.8988 18.1642 43.5352 18.5595 44.0735 19.0695C44.6118 19.5796 45.0407 20.1939 45.3341 20.8749C45.6275 21.5559 45.7793 22.2896 45.7803 23.0311C45.7786 24.4257 45.2443 25.7671 44.2866 26.7808C43.3288 27.7946 42.02 28.4042 40.6278 28.4851C40.6278 28.4851 39.5647 28.5447 39.0438 28.6257C38.7828 28.6651 38.5825 28.7056 38.4419 28.7259C38.3812 28.7461 38.3215 28.6854 38.3407 28.6246L38.5218 27.7437L39.5039 23.2123C39.5611 22.9413 39.5091 22.6587 39.3591 22.4259C39.2091 22.1931 38.9733 22.029 38.7029 21.9691C38.4318 21.9119 38.1491 21.9641 37.9162 22.1143C37.6834 22.2646 37.5194 22.5007 37.4598 22.7713C37.4598 22.7713 35.0939 33.7985 35.0737 33.9189C35.0164 34.19 35.0686 34.4727 35.2189 34.7055C35.3691 34.9384 35.6052 35.1024 35.8758 35.162C36.1469 35.2192 36.4296 35.167 36.6624 35.0168C36.8953 34.8666 37.0593 34.6305 37.1189 34.3599C37.138 34.2395 37.4598 32.7759 37.4598 32.7759C37.5736 32.2393 37.8505 31.7509 38.2524 31.3776C38.6543 31.0042 39.1617 30.7642 39.7053 30.6901C40.0985 30.6471 40.4928 30.6137 40.8877 30.59C42.7911 30.4417 44.5687 29.5811 45.8657 28.18C47.1627 26.779 47.8838 24.9404 47.8852 23.0311C47.8852 18.8416 44.4764 15.4531 40.306 15.4531ZM40.8472 32.8962C40.6839 32.861 40.5153 32.8586 40.3511 32.889C40.1869 32.9194 40.0304 32.9821 39.8906 33.0735C39.7508 33.1648 39.6305 33.283 39.5367 33.4212C39.4429 33.5593 39.3775 33.7147 39.3442 33.8784C39.2035 34.5601 39.6254 35.2419 40.3263 35.3825C40.4897 35.4179 40.6585 35.4204 40.8229 35.39C40.9873 35.3596 41.144 35.2968 41.2839 35.2053C41.4238 35.1139 41.5442 34.9955 41.638 34.8571C41.7318 34.7187 41.7972 34.5631 41.8304 34.3993C41.9699 33.6984 41.5492 33.0357 40.8472 32.8962Z" fill="white"/>
</svg>
