<svg width="80" height="52" viewBox="0 0 80 52" fill="none" xmlns="http://www.w3.org/2000/svg">
    <path d="M78.6205 52H1.37937C0.617655 52 0 51.3872 0 50.6315V1.36848C0 0.612779 0.617655 0 1.37937 0H78.6206C79.3823 0 80 0.612779 80 1.36848V50.6315C79.9998 51.3874 79.3822 52 78.6205 52Z" fill="#F6F5F3"/>
    <path fill-rule="evenodd" clip-rule="evenodd" d="M1.37937 51.5938H78.6205C79.1569 51.5938 79.591 51.1625 79.5911 50.6315V1.36848C79.5911 0.83766 79.157 0.40625 78.6206 0.40625H1.37937C0.842981 0.40625 0.408931 0.837661 0.408931 1.36848V50.6315C0.408931 51.1623 0.842981 51.5938 1.37937 51.5938ZM1.37937 52H78.6205C79.3822 52 79.9998 51.3874 80 50.6315V1.36848C80 0.612779 79.3823 0 78.6206 0H1.37937C0.617655 0 0 0.612779 0 1.36848V50.6315C0 51.3872 0.617655 52 1.37937 52Z" fill="#A9A9A9"/>
    <path d="M40 44C49.9411 44 58 35.9411 58 26C58 16.0589 49.9411 8 40 8C30.0589 8 22 16.0589 22 26C22 35.9411 30.0589 44 40 44Z" fill="#008CE7"/>
    <path d="M43.4718 17.0045H35.2863L34.609 20.7924L41.9913 20.8036C45.6262 20.8036 46.705 22.1233 46.6702 24.3136C46.6544 25.4364 46.165 27.3354 45.958 27.9474C45.3989 29.5899 44.2469 31.4596 39.9292 31.454L32.7539 31.4495L32.0767 35.2419H40.2408C43.1197 35.2419 44.3459 34.9055 45.6408 34.3081C48.514 32.9829 50.2252 30.1445 50.9125 26.4399C51.9318 20.9274 50.6605 17.0045 43.4707 17.0045H43.4718Z" fill="white"/>
    <path d="M39.7829 25.7727C40.0495 24.6646 40.1339 24.2202 40.1339 24.2202H31.7571C29.6151 24.2202 29.3091 25.6152 29.1055 26.459C28.8389 27.5626 28.7545 28.0126 28.7545 28.0126H37.1324C39.2733 28.0126 39.5793 26.6176 39.7829 25.7727Z" fill="white"/>
</svg>
