<svg width="80" height="52" viewBox="0 0 80 52" fill="none" xmlns="http://www.w3.org/2000/svg">
<path d="M78.6205 52H1.37937C0.617655 52 0 51.3872 0 50.6315V1.36848C0 0.612779 0.617655 0 1.37937 0H78.6206C79.3823 0 80 0.612779 80 1.36848V50.6315C79.9998 51.3874 79.3822 52 78.6205 52Z" fill="#F6F5F3"/>
<path fill-rule="evenodd" clip-rule="evenodd" d="M1.37937 51.5938H78.6205C79.1569 51.5938 79.591 51.1625 79.5911 50.6315V1.36848C79.5911 0.83766 79.157 0.40625 78.6206 0.40625H1.37937C0.842981 0.40625 0.408931 0.837661 0.408931 1.36848V50.6315C0.408931 51.1623 0.842981 51.5938 1.37937 51.5938ZM1.37937 52H78.6205C79.3822 52 79.9998 51.3874 80 50.6315V1.36848C80 0.612779 79.3823 0 78.6206 0H1.37937C0.617655 0 0 0.612779 0 1.36848V50.6315C0 51.3872 0.617655 52 1.37937 52Z" fill="#A9A9A9"/>
<g clip-path="url(#clip0_323_130)">
<path d="M40.0127 44.0254C49.9608 44.0254 58.0254 35.9608 58.0254 26.0127C58.0254 16.0646 49.9608 8 40.0127 8C30.0646 8 22 16.0646 22 26.0127C22 35.9608 30.0646 44.0254 40.0127 44.0254Z" fill="#7866D5"/>
<path d="M47.3041 17.2476C47.9138 17.3238 48.549 17.3746 49.1587 17.4762C50.3528 17.7049 50.7593 18.3146 50.556 19.5341C50.5052 19.9914 50.1495 20.3471 49.6922 20.4233C49.4128 20.4741 49.1079 20.4995 48.8284 20.4741C44.8651 20.4741 40.9272 20.4995 36.9639 20.4995C36.3796 20.4995 35.7699 20.5503 35.1855 20.6519C33.2293 20.9568 32.4671 21.7698 32.3147 23.7515C32.2385 24.6661 32.2385 24.6661 33.1785 24.6661H48.9301C49.0825 24.6661 49.2349 24.6661 49.3874 24.6661C49.6414 24.6661 49.8701 24.7423 50.0987 24.8693C50.8101 25.3266 50.6323 26.0634 50.6068 26.7239C50.5814 27.2575 50.2512 27.5623 49.6922 27.6639C49.4636 27.7148 49.2349 27.7148 48.9809 27.7148C43.5949 27.7148 38.2088 27.7148 32.8228 27.7148C32.2385 27.7148 32.2385 27.7148 32.2893 28.2991C32.3147 28.8326 32.3655 29.3661 32.4925 29.8997C32.7466 30.8651 33.3309 31.4748 34.3217 31.7543C35.3888 32.0591 36.5066 32.11 37.5991 32.1354C41.4354 32.1354 45.297 32.1354 49.1587 32.1354C49.6414 32.1354 50.0987 32.1862 50.4036 32.6435C50.8863 33.4057 50.6323 34.3965 49.8701 34.8792C49.7685 34.9554 49.6668 35.0062 49.5398 35.0316C48.7014 35.3111 47.8376 35.3619 46.9484 35.3873C43.3154 35.4635 39.7078 35.4635 36.1001 35.3873C34.9823 35.3619 33.8644 35.2349 32.772 35.0062C30.206 34.4727 28.9103 33.1516 28.4784 30.5602C28.3768 29.9759 28.326 29.3661 28.2498 28.7564V24.0309C28.3006 23.5736 28.3514 23.0909 28.4022 22.6336C28.7325 19.7119 30.0536 18.2638 32.9244 17.6033C33.9407 17.3746 35.0077 17.3238 36.0239 17.2222L47.3041 17.2476Z" fill="white"/>
<path d="M41.5116 35.8955C39.6824 35.8955 37.8786 35.87 36.0748 35.8446C34.9315 35.8192 33.7882 35.6922 32.6704 35.4381C29.9012 34.8538 28.4784 33.3803 28.0211 30.6365C27.9449 30.2046 27.8941 29.7727 27.8687 29.3662C27.8433 29.1883 27.8179 29.0105 27.7925 28.8072V28.7564V23.9801L27.8433 23.5228C27.8687 23.1926 27.9195 22.8877 27.9449 22.5828C28.3006 19.4579 29.7741 17.8573 32.8482 17.1714C33.6612 16.9935 34.4488 16.9173 35.2364 16.8411C35.4904 16.8157 35.7445 16.7903 35.9985 16.7649H36.0494H47.3549H47.3803C47.5582 16.7903 47.7614 16.8157 47.9393 16.8157C48.3712 16.8665 48.8031 16.8919 49.2604 16.9935C50.7085 17.273 51.2674 18.086 51.0134 19.5595C50.9372 20.1947 50.429 20.7282 49.7431 20.8298C49.4382 20.8806 49.1333 20.906 48.8031 20.906C44.8652 20.9314 40.9019 20.9568 36.964 20.9568C36.405 20.9568 35.8207 21.0077 35.2618 21.1093C33.5088 21.3887 32.9245 22.0239 32.772 23.8023C32.772 23.9547 32.7466 24.1072 32.7466 24.2342C32.8482 24.2342 33.0261 24.2342 33.1785 24.2342H49.3874C49.7177 24.2342 50.048 24.3358 50.3274 24.4883C51.1912 25.0472 51.115 25.8856 51.0642 26.4953C51.0642 26.5715 51.0388 26.6732 51.0388 26.7494C50.988 27.4607 50.5561 27.9434 49.7685 28.0959C49.489 28.1467 49.235 28.1467 48.9809 28.1467H32.8482C32.8228 28.1467 32.772 28.1467 32.7466 28.1467C32.7466 28.1721 32.7466 28.1975 32.7466 28.2229V28.2483C32.772 28.7818 32.8228 29.2899 32.9499 29.7981C33.1531 30.5856 33.6358 31.0683 34.4488 31.297C35.5412 31.6019 36.6591 31.6527 37.6245 31.6527C40.6224 31.6781 43.6711 31.6781 46.6436 31.6781H49.1842C49.5652 31.6781 50.3528 31.6781 50.8101 32.4149C51.115 32.8976 51.1912 33.4565 51.0642 33.99C50.9372 34.5235 50.6069 34.9808 50.1242 35.2857C49.9971 35.3619 49.8447 35.4381 49.6923 35.489C48.7523 35.7938 47.7868 35.8446 46.9739 35.87C45.17 35.87 43.3408 35.8955 41.5116 35.8955ZM28.7071 28.731C28.7325 28.9089 28.7579 29.0867 28.7579 29.2645C28.8087 29.671 28.8595 30.0775 28.9103 30.484C29.3168 32.8722 30.4601 34.0408 32.8482 34.5489C33.9153 34.7776 35.0077 34.9046 36.1002 34.93C39.6824 35.0062 43.3408 35.0062 46.9484 34.93C47.6852 34.9046 48.5744 34.8538 49.3874 34.5998C49.4636 34.5743 49.5398 34.5235 49.6161 34.4981C49.8701 34.3203 50.0734 34.0662 50.1496 33.7614C50.2258 33.4565 50.175 33.1516 49.9971 32.8722C49.8447 32.6435 49.6415 32.5673 49.1588 32.5673H46.6182C43.6711 32.5673 40.597 32.5673 37.5991 32.5419C36.5829 32.5419 35.3888 32.4911 34.1947 32.1354C33.0515 31.8305 32.3401 31.0938 32.0607 29.9505C31.9336 29.3916 31.8574 28.8072 31.8574 28.2483V28.2229C31.832 27.8672 31.8066 27.6132 32.0098 27.3845C32.2131 27.1559 32.4926 27.1559 32.8482 27.1559H49.0063C49.2096 27.1559 49.4382 27.1559 49.6415 27.105C50.048 27.0288 50.1496 26.851 50.175 26.5969C50.175 26.4953 50.2004 26.4191 50.2004 26.3175C50.2512 25.6823 50.2512 25.3775 49.8955 25.1488C49.7685 25.0726 49.5906 25.0218 49.4382 25.0218H33.1785C32.6196 25.0218 32.2893 25.0218 32.0352 24.7677C31.7812 24.5137 31.832 24.158 31.8574 23.6245C32.0352 21.4396 32.9499 20.4487 35.1093 20.1185C35.7191 20.0168 36.3288 19.966 36.964 19.9406C40.9273 19.9406 44.8652 19.9152 48.8285 19.9152C49.1079 19.9152 49.362 19.9152 49.6161 19.8644C49.8701 19.839 50.0734 19.6357 50.0988 19.3817C50.2766 18.3655 50.0225 18.0352 49.0571 17.8319C48.6506 17.7557 48.2441 17.7049 47.8376 17.6795C47.6598 17.6541 47.4566 17.6287 47.2787 17.6287H36.0494C35.7953 17.6541 35.5412 17.6795 35.2872 17.7049C34.4996 17.7811 33.7628 17.8319 33.0007 18.0098C30.3331 18.6703 29.1644 19.966 28.8595 22.7098C28.8341 23.0147 28.7833 23.3196 28.7579 23.6499L28.7071 24.0818V28.731Z" fill="white"/>
</g>
<defs>
<clipPath id="clip0_323_130">
<rect width="36" height="36" fill="white" transform="translate(22 8)"/>
</clipPath>
</defs>
</svg>
