<svg width="392" height="256" viewBox="0 0 392 256" fill="none" xmlns="http://www.w3.org/2000/svg">
<g id="Eos" clip-path="url(#clip0)">
<path id="Vector" d="M384.517 255H6.74623C3.57184 255 1 252.429 1 249.263V6.73714C1 3.57031 3.57184 1 6.74623 1H384.518C387.692 1 390.264 3.57031 390.264 6.73714V249.263C390.263 252.43 387.691 255 384.517 255Z" fill="#F6F5F3" stroke="#A9A9A9" stroke-width="2"/>
<path id="Vector_2" d="M92.5 185C143.586 185 185 143.586 185 92.5C185 41.4137 143.586 0 92.5 0C41.4137 0 0 41.4137 0 92.5C0 143.586 41.4137 185 92.5 185Z" transform="translate(108 35)" fill="black"/>
<path id="Vector (Stroke)" fill-rule="evenodd" clip-rule="evenodd" d="M45.8142 0.000125202C46.425 -0.0068443 47.0174 0.277582 47.3918 0.789203L76.9387 41.1561C76.9848 41.2175 77.0271 41.2815 77.0655 41.3478C77.1089 41.4229 77.1473 41.5009 77.1804 41.5811C77.2277 41.6959 77.264 41.8155 77.2885 41.9381L91.5812 107.238C91.586 107.259 91.5905 107.28 91.5946 107.302C91.6107 107.387 91.621 107.472 91.6256 107.558C91.6321 107.679 91.6272 107.801 91.6109 107.921C91.5773 108.168 91.4958 108.41 91.3663 108.632C91.2064 108.907 90.9845 109.132 90.7243 109.295L46.8599 136.781C46.5392 136.982 46.1757 137.079 45.8142 137.075C45.4527 137.079 45.0892 136.982 44.7685 136.781L0.904088 109.295C0.889743 109.286 0.875518 109.277 0.86141 109.268C0.819166 109.24 0.778004 109.21 0.738028 109.178C0.581869 109.056 0.443828 108.909 0.330217 108.741C0.306435 108.705 0.283723 108.669 0.26214 108.632C0.149355 108.439 0.0729339 108.23 0.0329353 108.017C-0.00360986 107.821 -0.00975085 107.622 0.0145565 107.425C0.0218252 107.366 0.0318629 107.308 0.0445785 107.25C0.0454581 107.246 0.0463048 107.242 0.0472105 107.238L14.3399 41.9381C14.3694 41.7907 14.4159 41.6478 14.478 41.5121C14.5074 41.4479 14.5403 41.3854 14.5765 41.3248C14.6113 41.2666 14.6491 41.2103 14.6898 41.156L44.2366 0.789203C44.6111 0.27758 45.2034 -0.00684632 45.8142 0.000125202ZM43.8644 7.82473L18.3647 42.6624L24.9055 63.2027L43.8644 29.7458V7.82473ZM45.8142 34.1246L26.4996 68.2091L38.4489 105.734H53.1796L65.1288 68.2091L45.8142 34.1246ZM67.7191 72.7802L57.2255 105.734H86.393L67.7191 72.7802ZM82.9943 109.589H55.9979L49.2685 130.722L82.9943 109.589ZM45.8142 128.864L51.9519 109.589H39.6765L45.8142 128.864ZM34.4029 105.734L23.9093 72.7802L5.23545 105.734H34.4029ZM6.53701 95.6176L22.3151 67.7739L16.5762 49.7515L6.53701 95.6176ZM8.63413 109.589H35.6306L42.3599 130.722L8.63413 109.589ZM85.0914 95.6176L69.3133 67.7739L75.0522 49.7515L85.0914 95.6176ZM73.2637 42.6624L66.723 63.2028L47.764 29.7458V7.82472L73.2637 42.6624Z" transform="translate(154.703 59.8047)" fill="white"/>
</g>
<defs>
<clipPath id="clip0">
<rect width="391.264" height="256" fill="white"/>
</clipPath>
</defs>
</svg>
