<?xml version="1.0" encoding="UTF-8"?>
<svg width="512px" height="512px" viewBox="0 0 512 512" version="1.1" xmlns="http://www.w3.org/2000/svg" xmlns:xlink="http://www.w3.org/1999/xlink">
    <!-- Generator: Sketch 49 (51002) - http://www.bohemiancoding.com/sketch -->
    <title>Ethereum Classic</title>
    <desc>Created with Sketch.</desc>
    <defs>
        <path d="M502.838118,334.819338 L8.82214214,334.819338 C3.95037697,334.819338 0,330.873758 0,326.007909 L0,8.81142922 C0,3.94557994 3.95037697,0 8.82214214,0 L502.839117,0 C507.710883,0 511.66126,3.94557994 511.66126,8.81142922 L511.66126,326.007909 C511.66026,330.874757 507.709883,334.819338 502.838118,334.819338 Z" id="path-1"></path>
    </defs>
    <g id="Ethereum-Classic" stroke="none" stroke-width="1" fill="none" fill-rule="evenodd">
        <g id="Group-Copy" transform="translate(0.000000, 89.000000)" fill-rule="nonzero">
            <g id="bitkoin">
                <g id="234-australia">
                    <g id="Shape">
                        <use fill="#F6F5F3" fill-rule="evenodd" xlink:href="#path-1"></use>
                        <path stroke="#A9A9A9" stroke-width="1" d="M502.838118,334.319338 C507.434102,334.319338 511.160317,330.598231 511.16126,326.007909 L511.16126,8.81142922 C511.16126,4.2218584 507.434876,0.5 502.839117,0.5 L8.82214214,0.5 C4.22638344,0.5 0.5,4.2218584 0.5,8.81142922 L0.5,326.007909 C0.5,330.59748 4.22638344,334.319338 8.82214214,334.319338 L502.838118,334.319338 Z"></path>
                    </g>
                </g>
            </g>
            <g id="ethereum-classic-1" transform="translate(180.246071, 40.544529)">
                <path d="M0,133.906526 C26.6958157,148.111251 54.5523191,162.980524 76.0664935,174.48552 L151.51119,133.906526 C124.193577,174.568589 101.435809,208.419029 76.0664935,245.882952 C50.6557248,208.502098 22.5919558,167.258555 0,133.906526 Z M2.9017191,122.69227 L76.1493998,83.5254419 L148.443658,122.40153 L76.1908529,161.609893 L2.9017191,122.69227 Z M76.0664935,70.9820886 L0,111.104205 L75.7348685,0 L151.51119,111.353411 L76.0664935,70.9820886 Z" id="path1599" fill="#3AB83A"></path>
                <path d="M76.0871294,174.48552 L151.51119,133.906526 C124.201049,174.568589 76.0871294,245.882952 76.0871294,245.882952 L76.0871294,174.48552 Z M76.170013,83.5254419 L148.444497,122.40153 L76.2114547,161.609893 L76.170013,83.5254419 Z M76.0871294,70.9820886 L75.755595,0 L151.51119,111.353411 L76.0871294,70.9820886 Z" id="path1593" fill="#0B8311"></path>
                <polygon id="path1603" fill="#0B8311" points="2.6122619 123.190861 75.5774017 129.217676 147.592797 122.941476 75.618695 162.178117"></polygon>
                <polygon id="path1606" fill="#146714" points="75.755595 129.217676 147.592797 122.941476 75.7967861 162.178117 75.755595 129.217676"></polygon>
            </g>
        </g>
    </g>
</svg>