<svg width="80" height="52" viewBox="0 0 80 52" fill="none" xmlns="http://www.w3.org/2000/svg">
    <path d="M78.6205 52H1.37937C0.617655 52 0 51.3872 0 50.6315V1.36848C0 0.612779 0.617655 0 1.37937 0H78.6206C79.3823 0 80 0.612779 80 1.36848V50.6315C79.9998 51.3874 79.3822 52 78.6205 52Z" fill="#F6F5F3"/>
    <path fill-rule="evenodd" clip-rule="evenodd" d="M1.37937 51.5938H78.6205C79.1569 51.5938 79.591 51.1625 79.5911 50.6315V1.36848C79.5911 0.83766 79.157 0.40625 78.6206 0.40625H1.37937C0.842981 0.40625 0.408931 0.837661 0.408931 1.36848V50.6315C0.408931 51.1623 0.842981 51.5938 1.37937 51.5938ZM1.37937 52H78.6205C79.3822 52 79.9998 51.3874 80 50.6315V1.36848C80 0.612779 79.3823 0 78.6206 0H1.37937C0.617655 0 0 0.612779 0 1.36848V50.6315C0 51.3872 0.617655 52 1.37937 52Z" fill="#A9A9A9"/>
    <path d="M40 44C49.9411 44 58 35.9411 58 26C58 16.0589 49.9411 8 40 8C30.0589 8 22 16.0589 22 26C22 35.9411 30.0589 44 40 44Z" fill="#42C1CA"/>
    <path d="M39.9235 22.5215C40.342 20.7631 40.846 19.1825 41.3815 18.1508C41.5784 17.6581 42.3772 16.478 43.2535 15.6983C44.7127 14.399 46.3495 14.0693 48.0539 15.1392L47.9043 15.3766L48.0539 15.1392C48.9235 15.6848 49.2723 16.2462 49.1193 16.775C49.0068 17.1687 48.5759 17.4837 48.3453 17.4511C48.0078 17.4848 47.668 17.4173 47.344 17.1788C47.0713 16.9687 46.8609 16.6883 46.7354 16.3677C46.4969 15.8052 46.1842 15.614 45.8005 15.659C45.5227 15.6905 45.1998 15.8682 45.0974 15.9875L44.833 16.28C44.6275 16.4988 44.4451 16.7382 44.2885 16.9943C43.753 17.8865 43.2592 19.5211 42.574 22.9085L47.1145 23.5733L46.8648 25.3925L42.2568 24.7175L42.0599 25.9145L42.0093 26.2137C41.9823 26.369 41.953 26.5377 41.9193 26.7177L46.5723 27.3995L46.3057 29.2163L41.5435 28.5188C40.9934 30.8566 40.2689 33.362 39.757 34.3508C39.559 34.8447 38.7614 36.0226 37.885 36.8033C36.4259 38.1016 34.789 38.4323 33.0847 37.3625C32.215 36.8168 31.8663 36.2543 32.0193 35.7256C32.1318 35.3318 32.5627 35.018 32.7933 35.0506C33.1308 35.0168 33.4705 35.0843 33.7945 35.3217C34.0443 35.5062 34.2513 35.774 34.4032 36.134C34.6417 36.6953 34.9544 36.8877 35.338 36.8427C35.6159 36.8101 35.9388 36.6323 36.0412 36.5131C37.0615 35.3768 37.8704 33.1876 38.893 28.1318L34.3525 27.4658L34.6023 25.6467L39.2103 26.3217L39.4083 25.1258C39.4521 24.8572 39.4989 24.589 39.5489 24.3215L34.9139 23.6431L35.1794 21.8262L39.9235 22.5215Z" fill="white"/>
</svg>
