<svg width="80" height="52" viewBox="0 0 80 52" fill="none" xmlns="http://www.w3.org/2000/svg">
    <path d="M78.6205 52H1.37937C0.617655 52 0 51.3872 0 50.6315V1.36848C0 0.612779 0.617655 0 1.37937 0H78.6206C79.3823 0 80 0.612779 80 1.36848V50.6315C79.9998 51.3874 79.3822 52 78.6205 52Z" fill="#F6F5F3"/>
    <path fill-rule="evenodd" clip-rule="evenodd" d="M1.37937 51.5938H78.6205C79.1569 51.5938 79.591 51.1625 79.5911 50.6315V1.36848C79.5911 0.83766 79.157 0.40625 78.6206 0.40625H1.37937C0.842981 0.40625 0.408931 0.837661 0.408931 1.36848V50.6315C0.408931 51.1623 0.842981 51.5938 1.37937 51.5938ZM1.37937 52H78.6205C79.3822 52 79.9998 51.3874 80 50.6315V1.36848C80 0.612779 79.3823 0 78.6206 0H1.37937C0.617655 0 0 0.612779 0 1.36848V50.6315C0 51.3872 0.617655 52 1.37937 52Z" fill="#A9A9A9"/>
    <path d="M44.1043 8C40.6069 8.00137 37.2532 9.39186 34.7809 11.8656C32.3086 14.3394 30.9202 17.6939 30.9209 21.1913C30.9209 21.2006 30.9209 21.2094 30.9209 21.2189V21.2404C30.9303 21.4061 31.0028 21.5618 31.1236 21.6757C31.2443 21.7895 31.4041 21.8528 31.57 21.8525H56.6384C56.8043 21.8528 56.964 21.7895 57.0847 21.6757C57.2054 21.5618 57.2779 21.406 57.2872 21.2404L57.2883 21.2189C57.2883 21.2094 57.2883 21.2006 57.2883 21.1913C57.2891 17.6938 55.9005 14.3392 53.4281 11.8654C50.9556 9.39161 47.6018 8.0012 44.1043 8Z" fill="#53CBC8"/>
    <path d="M22.1923 35.9196C22.1922 36.0783 22.145 36.2333 22.0568 36.3652C21.9686 36.497 21.8433 36.5997 21.6967 36.6603C21.5501 36.721 21.3888 36.7368 21.2332 36.7058C21.0776 36.6748 20.9347 36.5983 20.8226 36.4861C20.7105 36.3739 20.6341 36.231 20.6032 36.0754C20.5722 35.9198 20.5881 35.7585 20.6488 35.612C20.7096 35.4654 20.8123 35.3401 20.9442 35.252C21.0761 35.1638 21.2312 35.1167 21.3898 35.1167C21.4953 35.1167 21.5997 35.1375 21.697 35.1778C21.7944 35.2182 21.8829 35.2773 21.9574 35.3519C22.032 35.4265 22.0911 35.515 22.1314 35.6124C22.1717 35.7098 22.1924 35.8142 22.1923 35.9196Z" fill="#E1147B"/>
    <path d="M55.7663 31.4783H28.8679C28.7311 31.4785 28.5966 31.5141 28.4777 31.5818C28.3587 31.6495 28.2594 31.7469 28.1894 31.8645C28.1193 31.982 28.081 32.1157 28.0781 32.2525C28.0751 32.3894 28.1078 32.5246 28.1728 32.645C28.1771 32.6534 28.1816 32.6618 28.1861 32.67C28.2538 32.7953 28.3543 32.9 28.4767 32.9729C28.5991 33.0457 28.739 33.0841 28.8815 33.0839H55.7534C55.8959 33.0841 56.0357 33.0457 56.1581 32.9728C56.2806 32.9 56.381 32.7953 56.4487 32.67L56.4621 32.645C56.527 32.5245 56.5596 32.3893 56.5566 32.2524C56.5537 32.1156 56.5152 31.9818 56.4451 31.8643C56.375 31.7467 56.2756 31.6494 56.1567 31.5817C56.0377 31.5141 55.9032 31.4784 55.7663 31.4783Z" fill="#E1147B"/>
    <path d="M59.3404 24.2007H28.8674C28.7598 24.201 28.6534 24.2231 28.5547 24.2659C28.456 24.3086 28.367 24.371 28.2932 24.4493C28.2194 24.5275 28.1623 24.62 28.1254 24.721C28.0885 24.8221 28.0726 24.9296 28.0786 25.037C28.0786 25.0453 28.0786 25.0537 28.0799 25.0621C28.0913 25.2636 28.1794 25.453 28.3261 25.5914C28.4729 25.7298 28.6671 25.8068 28.8689 25.8063H59.3404C59.5422 25.8067 59.7364 25.7298 59.8831 25.5914C60.0298 25.4529 60.118 25.2635 60.1294 25.0621C60.1294 25.0537 60.1294 25.0453 60.1307 25.037C60.1367 24.9294 60.1207 24.8218 60.0837 24.7207C60.0468 24.6195 59.9895 24.527 59.9156 24.4487C59.8416 24.3704 59.7524 24.3081 59.6536 24.2654C59.5547 24.2228 59.4481 24.2007 59.3404 24.2007Z" fill="#E1147B"/>
    <path d="M47.8667 42.3943H34.1332C33.9551 42.3944 33.7821 42.4546 33.6425 42.5653C33.5029 42.6759 33.4047 42.8305 33.3639 43.0039C33.3231 43.1774 33.3421 43.3595 33.4178 43.5208C33.4934 43.6821 33.6214 43.8131 33.7808 43.8926L33.8312 43.9177C33.9406 43.9721 34.0612 44.0003 34.1834 43.9999H47.816C47.9382 44.0003 48.0589 43.9721 48.1684 43.9177L48.2185 43.8926C48.3779 43.8131 48.5058 43.6822 48.5815 43.5209C48.6572 43.3597 48.6762 43.1776 48.6355 43.0042C48.5948 42.8308 48.4967 42.6763 48.3572 42.5656C48.2177 42.4549 48.0448 42.3945 47.8667 42.3943Z" fill="#E1147B"/>
    <path d="M56.2571 38.7556H42.524C42.346 38.7559 42.1733 38.8163 42.0338 38.927C41.8944 39.0377 41.7963 39.1922 41.7556 39.3655C41.7149 39.5388 41.7338 39.7208 41.8093 39.8821C41.8849 40.0433 42.0126 40.1743 42.1718 40.2539L42.222 40.2791C42.3315 40.3333 42.4522 40.3614 42.5744 40.3611H56.2061C56.3284 40.3614 56.449 40.3333 56.5585 40.2791L56.6087 40.2539C56.7679 40.1743 56.8956 40.0434 56.9711 39.8822C57.0467 39.721 57.0656 39.5391 57.025 39.3658C56.9843 39.1926 56.8864 39.0381 56.7471 38.9273C56.6077 38.8166 56.4351 38.7561 56.2571 38.7556Z" fill="#E1147B"/>
    <path d="M37.5311 36.4695L37.5079 36.4446C37.4033 36.3318 37.3338 36.191 37.308 36.0393C37.2823 35.8876 37.3013 35.7317 37.3629 35.5907C37.4244 35.4497 37.5257 35.3298 37.6544 35.2455C37.7832 35.1613 37.9337 35.1164 38.0875 35.1165H60.3768C60.5306 35.1164 60.6811 35.1613 60.8098 35.2455C60.9386 35.3298 61.0399 35.4497 61.1014 35.5907C61.1629 35.7317 61.182 35.8876 61.1562 36.0393C61.1305 36.191 61.061 36.3318 60.9564 36.4446L60.9331 36.4695C60.8589 36.5489 60.7692 36.6123 60.6696 36.6558C60.5699 36.6992 60.4625 36.7218 60.3538 36.7221H38.1105C38.0018 36.7218 37.8943 36.6992 37.7947 36.6558C37.695 36.6123 37.6053 36.5489 37.5311 36.4695Z" fill="#E1147B"/>
    <path d="M24.2556 35.1167H34.8994C35.0775 35.117 35.2502 35.1774 35.3896 35.2881C35.5291 35.3988 35.6271 35.5533 35.6679 35.7266C35.7086 35.8999 35.6897 36.0819 35.6141 36.2431C35.5386 36.4043 35.4109 36.5354 35.2516 36.615L35.2015 36.6402C35.0921 36.6945 34.9715 36.7227 34.8493 36.7223H24.3071C24.1848 36.7227 24.0641 36.6946 23.9546 36.6402L23.9045 36.615C23.7454 36.5354 23.6177 36.4045 23.5421 36.2434C23.4666 36.0823 23.4475 35.9004 23.4881 35.7271C23.5287 35.5539 23.6266 35.3994 23.7659 35.2886C23.9051 35.1778 24.0777 35.1173 24.2556 35.1167Z" fill="#E1147B"/>
    <path d="M26.804 25.0034C26.8039 25.162 26.7568 25.3171 26.6686 25.449C26.5804 25.5809 26.4551 25.6836 26.3085 25.7443C26.1619 25.8049 26.0006 25.8208 25.845 25.7898C25.6895 25.7588 25.5465 25.6824 25.4344 25.5702C25.3222 25.458 25.2458 25.3151 25.2149 25.1595C25.1839 25.0039 25.1998 24.8426 25.2605 24.696C25.3212 24.5494 25.424 24.4241 25.5559 24.336C25.6878 24.2478 25.8429 24.2007 26.0015 24.2007C26.1069 24.2007 26.2113 24.2214 26.3087 24.2618C26.4061 24.3021 26.4945 24.3613 26.5691 24.4358C26.6436 24.5103 26.7027 24.5988 26.743 24.6962C26.7833 24.7936 26.8041 24.898 26.804 25.0034Z" fill="#E1147B"/>
    <path d="M45.7179 28.859C45.7201 28.8508 45.7222 28.8422 45.7246 28.834C45.756 28.7169 45.76 28.5942 45.7363 28.4753C45.7126 28.3565 45.6619 28.2446 45.5881 28.1485C45.5143 28.0523 45.4193 27.9745 45.3106 27.9209C45.2019 27.8674 45.0823 27.8395 44.9611 27.8396H22.6683C22.5471 27.8395 22.4275 27.8673 22.3187 27.9208C22.21 27.9744 22.115 28.0523 22.0412 28.1484C21.9673 28.2446 21.9166 28.3564 21.893 28.4753C21.8693 28.5942 21.8734 28.7169 21.9048 28.834C21.9069 28.8422 21.9093 28.8508 21.9117 28.859C21.9569 29.0269 22.0561 29.1753 22.194 29.2812C22.3319 29.3871 22.5009 29.4447 22.6748 29.445H44.9546C45.1285 29.4447 45.2975 29.3871 45.4354 29.2812C45.5734 29.1752 45.6727 29.0269 45.7179 28.859Z" fill="#E1147B"/>
    <path d="M20.6046 28.6421C20.6045 28.8007 20.5574 28.9558 20.4692 29.0877C20.3809 29.2196 20.2556 29.3223 20.109 29.383C19.9624 29.4436 19.8011 29.4595 19.6455 29.4285C19.4899 29.3975 19.347 29.321 19.2348 29.2088C19.1227 29.0966 19.0463 28.9536 19.0154 28.798C18.9845 28.6424 19.0004 28.4811 19.0611 28.3345C19.1218 28.1879 19.2247 28.0627 19.3566 27.9745C19.4885 27.8864 19.6436 27.8394 19.8023 27.8394C20.0151 27.8395 20.2192 27.9241 20.3696 28.0746C20.5201 28.2251 20.6046 28.4292 20.6046 28.6421Z" fill="#E1147B"/>
    <path d="M26.804 32.281C26.8039 32.4396 26.7568 32.5947 26.6686 32.7266C26.5804 32.8584 26.4551 32.9612 26.3085 33.0219C26.1619 33.0825 26.0006 33.0984 25.845 33.0674C25.6895 33.0364 25.5465 32.96 25.4344 32.8478C25.3222 32.7356 25.2458 32.5927 25.2149 32.437C25.1839 32.2814 25.1998 32.1202 25.2605 31.9736C25.3212 31.827 25.424 31.7017 25.5559 31.6136C25.6878 31.5254 25.8429 31.4783 26.0015 31.4783C26.2144 31.4783 26.4185 31.5629 26.569 31.7135C26.7195 31.864 26.804 32.0681 26.804 32.281Z" fill="#E1147B"/>
    <path d="M40.4608 39.5586C40.4607 39.7172 40.4136 39.8723 40.3254 40.0042C40.2372 40.136 40.1119 40.2388 39.9653 40.2995C39.8187 40.3601 39.6574 40.376 39.5018 40.345C39.3462 40.314 39.2033 40.2376 39.0911 40.1254C38.9789 40.0132 38.9026 39.8702 38.8716 39.7146C38.8407 39.559 38.8565 39.3977 38.9172 39.2512C38.9779 39.1046 39.0808 38.9793 39.2127 38.8911C39.3446 38.803 39.4996 38.7559 39.6583 38.7559C39.7637 38.7559 39.868 38.7766 39.9654 38.817C40.0628 38.8573 40.1513 38.9164 40.2258 38.991C40.3003 39.0655 40.3594 39.154 40.3998 39.2514C40.4401 39.3488 40.4608 39.4532 40.4608 39.5586Z" fill="#E1147B"/>
    <path d="M32.0695 43.1973C32.0694 43.3559 32.0223 43.511 31.9341 43.6429C31.8459 43.7747 31.7206 43.8775 31.574 43.9382C31.4274 43.9988 31.2661 44.0146 31.1105 43.9836C30.9549 43.9526 30.812 43.8762 30.6998 43.764C30.5876 43.6518 30.5113 43.5088 30.4804 43.3532C30.4494 43.1976 30.4653 43.0363 30.5261 42.8897C30.5868 42.7431 30.6896 42.6179 30.8216 42.5297C30.9535 42.4416 31.1086 42.3945 31.2672 42.3945C31.3726 42.3946 31.477 42.4154 31.5743 42.4557C31.6717 42.4961 31.7601 42.5552 31.8346 42.6297C31.9091 42.7043 31.9682 42.7928 32.0085 42.8901C32.0488 42.9875 32.0696 43.0919 32.0695 43.1973Z" fill="#E1147B"/>
</svg>
