<svg width="80" height="52" viewBox="0 0 80 52" fill="none" xmlns="http://www.w3.org/2000/svg">
    <path d="M78.6205 52H1.37937C0.617655 52 0 51.3872 0 50.6315V1.36848C0 0.612779 0.617655 0 1.37937 0H78.6206C79.3823 0 80 0.612779 80 1.36848V50.6315C79.9998 51.3874 79.3822 52 78.6205 52Z" fill="#F6F5F3"/>
    <path fill-rule="evenodd" clip-rule="evenodd" d="M1.37937 51.5938H78.6205C79.1569 51.5938 79.591 51.1625 79.5911 50.6315V1.36848C79.5911 0.83766 79.157 0.40625 78.6206 0.40625H1.37937C0.842981 0.40625 0.408931 0.837661 0.408931 1.36848V50.6315C0.408931 51.1623 0.842981 51.5938 1.37937 51.5938ZM1.37937 52H78.6205C79.3822 52 79.9998 51.3874 80 50.6315V1.36848C80 0.612779 79.3823 0 78.6206 0H1.37937C0.617655 0 0 0.612779 0 1.36848V50.6315C0 51.3872 0.617655 52 1.37937 52Z" fill="#A9A9A9"/>
    <path d="M52.3344 14C49.6588 14 46.7291 15.455 43.6388 18.3248C42.1806 19.673 40.8963 21.1413 39.9598 22.3026C39.9598 22.3026 41.4582 24.0245 43.1037 25.8799C44 24.7586 45.2709 23.2369 46.7558 21.8621C49.4983 19.2992 51.2909 18.7786 52.321 18.7786C56.1739 18.7786 59.3043 22.0089 59.3043 26C59.3043 29.9511 56.1739 33.1813 52.321 33.2214C52.1338 33.2214 51.9197 33.1947 51.6521 33.1413C52.7759 33.6618 53.9933 34.0356 55.1304 34.0356C62.194 34.0356 63.5853 29.1635 63.6655 28.8165C63.8662 27.9221 63.9866 26.9878 63.9866 26.0267C63.9732 19.3927 58.7558 14 52.3344 14Z" fill="#F15A24"/>
    <path d="M27.6522 38C30.3278 38 33.2575 36.545 36.3478 33.6752C37.806 32.327 39.0903 30.8587 40.0268 29.6974C40.0268 29.6974 38.5284 27.9755 36.883 26.1201C35.9866 27.2414 34.7157 28.7631 33.2308 30.1379C30.4883 32.6741 28.6823 33.2213 27.6656 33.2213C23.8127 33.2213 20.6823 29.9911 20.6823 26C20.6823 22.0489 23.8127 18.8187 27.6656 18.7786C27.8528 18.7786 28.0669 18.8053 28.3345 18.8587C27.2107 18.3381 25.9933 17.9644 24.8562 17.9644C17.7926 17.951 16.4013 22.8231 16.3211 23.1835C16.1204 24.0778 16 25.0122 16 25.9733C16 32.6073 21.2174 38 27.6522 38Z" fill="#ED1E79"/>
    <path fill-rule="evenodd" clip-rule="evenodd" d="M33.0301 21.9689C32.2542 21.2214 28.4816 18.1646 24.8696 18.0578C18.4214 17.8977 16.5351 22.5695 16.3612 23.1702C17.6054 17.9377 22.2074 14.0267 27.6656 14C32.1204 14 36.6288 18.3649 39.9599 22.3026L39.9732 22.2892C39.9732 22.2892 41.4716 24.0111 43.1171 25.8665C43.1171 25.8665 44.99 28.069 46.9699 30.0044C47.7458 30.7519 51.505 33.7686 55.1171 33.8754C61.7391 34.0623 63.5719 29.1235 63.6656 28.7497C62.4482 34.0222 57.8328 37.9466 52.3478 37.9733C47.893 37.9733 43.3846 33.6085 40.0401 29.6707C40.0401 29.6841 40.0268 29.6841 40.0268 29.6974C40.0268 29.6974 38.5284 27.9755 36.8829 26.1201C36.8963 26.1201 35.0234 23.9043 33.0301 21.9689ZM16.3612 23.2236C16.3612 23.2102 16.3612 23.1969 16.3746 23.1835C16.3612 23.1969 16.3612 23.2102 16.3612 23.2236Z" fill="#29ABE2"/>
</svg>
