<svg width="80" height="52" viewBox="0 0 80 52" fill="none" xmlns="http://www.w3.org/2000/svg">
<path d="M78.6205 52H1.37937C0.617655 52 0 51.3872 0 50.6315V1.36848C0 0.612779 0.617655 0 1.37937 0H78.6206C79.3823 0 80 0.612779 80 1.36848V50.6315C79.9998 51.3874 79.3822 52 78.6205 52Z" fill="#F6F5F3"/>
<path fill-rule="evenodd" clip-rule="evenodd" d="M1.37937 51.5938H78.6205C79.1569 51.5938 79.591 51.1625 79.5911 50.6315V1.36848C79.5911 0.83766 79.157 0.40625 78.6206 0.40625H1.37937C0.842981 0.40625 0.408931 0.837661 0.408931 1.36848V50.6315C0.408931 51.1623 0.842981 51.5938 1.37937 51.5938ZM1.37937 52H78.6205C79.3822 52 79.9998 51.3874 80 50.6315V1.36848C80 0.612779 79.3823 0 78.6206 0H1.37937C0.617655 0 0 0.612779 0 1.36848V50.6315C0 51.3872 0.617655 52 1.37937 52Z" fill="#A9A9A9"/>
<g clip-path="url(#clip0_323_160)">
<path d="M40.0127 44.0254C49.9608 44.0254 58.0254 35.9608 58.0254 26.0127C58.0254 16.0646 49.9608 8 40.0127 8C30.0646 8 22 16.0646 22 26.0127C22 35.9608 30.0646 44.0254 40.0127 44.0254Z" fill="#362054"/>
<path d="M37.9066 32.9342V14C37.7405 15.3841 37.2837 18.5758 36.7855 20.2699C36.2872 21.964 35.526 23.1073 35.2076 23.4671C35.4844 23.9792 36.0381 25.1944 36.0381 25.9585V34.3875C36.0381 35.5501 35.346 37.0034 35 37.5847C36.301 36.5744 38.8782 34.5204 38.7785 34.3875C38.654 34.2214 37.9066 33.391 37.9066 32.9342Z" fill="white"/>
<path d="M42.4858 32.9342V14C42.6536 15.3841 43.115 18.5758 43.6184 20.2699C44.1217 21.964 44.8908 23.1073 45.2124 23.4671C44.9327 23.9792 44.3734 25.1944 44.3734 25.9585V34.3875C44.3734 35.5501 45.0726 37.0034 45.4221 37.5847C44.1078 36.5744 41.5042 34.5204 41.6049 34.3875C41.7307 34.2214 42.4858 33.391 42.4858 32.9342Z" fill="white"/>
<path d="M40.0242 23.8824L40.2318 15.9932L40.3979 23.8824L40.2318 30.8997L40.0242 23.8824Z" fill="white"/>
<path d="M40.1903 34.429L35.6228 37.9999C36.4809 37.4878 38.5958 36.4636 40.1903 36.4636C41.7847 36.4636 43.8996 37.4878 44.7577 37.9999L40.1903 34.429Z" fill="white"/>
</g>
<defs>
<clipPath id="clip0_323_160">
<rect width="36" height="36" fill="white" transform="translate(22 8)"/>
</clipPath>
</defs>
</svg>
