<svg width="80" height="52" viewBox="0 0 80 52" fill="none" xmlns="http://www.w3.org/2000/svg">
    <path d="M78.6205 52H1.37937C0.617655 52 0 51.3872 0 50.6315V1.36848C0 0.612779 0.617655 0 1.37937 0H78.6206C79.3823 0 80 0.612779 80 1.36848V50.6315C79.9998 51.3874 79.3822 52 78.6205 52Z" fill="#F6F5F3"/>
    <path fill-rule="evenodd" clip-rule="evenodd" d="M1.37937 51.5938H78.6205C79.1569 51.5938 79.591 51.1625 79.5911 50.6315V1.36848C79.5911 0.83766 79.157 0.40625 78.6206 0.40625H1.37937C0.842981 0.40625 0.408931 0.837661 0.408931 1.36848V50.6315C0.408931 51.1623 0.842981 51.5938 1.37937 51.5938ZM1.37937 52H78.6205C79.3822 52 79.9998 51.3874 80 50.6315V1.36848C80 0.612779 79.3823 0 78.6206 0H1.37937C0.617655 0 0 0.612779 0 1.36848V50.6315C0 51.3872 0.617655 52 1.37937 52Z" fill="#A9A9A9"/>
    <path d="M40 44C49.9411 44 58 35.9411 58 26C58 16.0589 49.9411 8 40 8C30.0589 8 22 16.0589 22 26C22 35.9411 30.0589 44 40 44Z" fill="#242424"/>
    <path d="M47.0391 15.6163C47.0391 16.4049 46.3979 17.045 45.6059 17.045C45.4179 17.0453 45.2318 17.0086 45.0581 16.9369C44.8843 16.8653 44.7264 16.7601 44.5933 16.6275C44.4602 16.4948 44.3546 16.3372 44.2824 16.1637C44.2102 15.9902 44.1729 15.8042 44.1726 15.6163C44.1726 14.8265 44.8139 14.1875 45.6059 14.1875C46.3979 14.1875 47.0391 14.8265 47.0391 15.6163ZM46.0064 20.5933C45.3359 20.5933 44.7914 20.051 44.7914 19.3828C44.7914 18.7145 45.3359 18.1734 46.0064 18.1734C46.6769 18.1734 47.2202 18.7145 47.2202 19.3828C47.2202 20.051 46.6769 20.5933 46.0052 20.5933H46.0064ZM45.6295 23.5779C45.4949 23.5782 45.3615 23.5519 45.237 23.5006C45.1126 23.4493 44.9994 23.3739 44.9041 23.2788C44.8088 23.1837 44.7332 23.0708 44.6816 22.9464C44.63 22.8221 44.6035 22.6888 44.6035 22.5541C44.6036 22.4196 44.6303 22.2864 44.6819 22.1622C44.7336 22.038 44.8092 21.9251 44.9045 21.8302C44.9998 21.7352 45.1129 21.6599 45.2373 21.6087C45.3617 21.5574 45.4949 21.5312 45.6295 21.5315C45.7641 21.5312 45.8975 21.5575 46.0219 21.6088C46.1464 21.6601 46.2595 21.7355 46.3548 21.8306C46.4501 21.9256 46.5258 22.0386 46.5773 22.163C46.6289 22.2873 46.6555 22.4206 46.6555 22.5553C46.6553 22.6898 46.6287 22.823 46.577 22.9472C46.5254 23.0714 46.4497 23.1842 46.3544 23.2792C46.2592 23.3742 46.1461 23.4495 46.0217 23.5007C45.8973 23.5519 45.764 23.5782 45.6295 23.5779ZM45.5687 25.1214C45.5687 25.3541 45.4763 25.5773 45.3117 25.7419C45.1472 25.9064 44.924 25.9989 44.6912 25.9989C44.4585 25.9989 44.2353 25.9064 44.0707 25.7419C43.9062 25.5773 43.8137 25.3541 43.8137 25.1214C43.8137 24.8886 43.9062 24.6655 44.0707 24.5009C44.2353 24.3363 44.4585 24.2439 44.6912 24.2439C44.924 24.2439 45.1472 24.3363 45.3117 24.5009C45.4763 24.6655 45.5687 24.8886 45.5687 25.1214ZM44.1805 27.0609C44.1805 27.4771 43.843 27.8113 43.4279 27.8113C43.2793 27.8108 43.1342 27.7663 43.0108 27.6834C42.8875 27.6005 42.7916 27.4829 42.7351 27.3455C42.6786 27.2081 42.6641 27.057 42.6934 26.9114C42.7228 26.7657 42.7946 26.632 42.8999 26.5272C43.0052 26.4223 43.1392 26.3511 43.285 26.3224C43.4308 26.2937 43.5818 26.3089 43.719 26.366C43.8562 26.4231 43.9733 26.5196 44.0557 26.6433C44.138 26.767 44.1818 26.9123 44.1816 27.0609H44.1805ZM42.6617 28.4368C42.6617 28.608 42.5937 28.7723 42.4726 28.8934C42.3515 29.0145 42.1872 29.0825 42.016 29.0825C41.8447 29.0825 41.6805 29.0145 41.5594 28.8934C41.4383 28.7723 41.3702 28.608 41.3702 28.4368C41.3702 28.2655 41.4383 28.1012 41.5594 27.9801C41.6805 27.859 41.8447 27.791 42.016 27.791C42.1872 27.791 42.3515 27.859 42.4726 27.9801C42.5937 28.1012 42.6617 28.2655 42.6617 28.4368ZM50.395 20.1016C50.3117 20.4057 50.1139 20.6657 49.8431 20.8271C49.5723 20.9884 49.2495 21.0387 48.9424 20.9672C48.6354 20.8958 48.3679 20.7082 48.1962 20.4438C48.0244 20.1794 47.9617 19.8588 48.0212 19.5492C48.0945 19.2345 48.2898 18.9617 48.5642 18.7909C48.8385 18.6201 49.1695 18.5653 49.4843 18.6386C49.7991 18.7118 50.0719 18.9071 50.2427 19.1815C50.4134 19.4559 50.4682 19.7868 50.395 20.1016ZM49.8122 23.255C49.75 23.5214 49.5845 23.7523 49.3521 23.8967C49.1197 24.0411 48.8395 24.0873 48.573 24.0251C48.3066 23.9629 48.0758 23.7973 47.9314 23.565C47.787 23.3326 47.7408 23.0523 47.803 22.7859C47.8652 22.5194 48.0307 22.2886 48.2631 22.1442C48.4955 21.9998 48.7757 21.9536 49.0422 22.0158C49.3086 22.078 49.5394 22.2435 49.6838 22.4759C49.8283 22.7083 49.8744 22.9886 49.8122 23.255ZM48.7277 25.7716C48.6752 25.9969 48.5354 26.1921 48.339 26.3142C48.1425 26.4364 47.9056 26.4755 47.6804 26.423C47.4551 26.3705 47.2599 26.2306 47.1378 26.0342C47.0156 25.8378 46.9765 25.6009 47.029 25.3756C47.0897 25.1591 47.2315 24.9743 47.4251 24.8598C47.6186 24.7453 47.8488 24.7099 48.0678 24.761C48.2868 24.812 48.4776 24.9456 48.6006 25.1339C48.7235 25.3221 48.7691 25.5506 48.7277 25.7716ZM47.3305 27.6875C47.2781 27.8717 47.1568 28.0287 46.9918 28.1259C46.8268 28.2232 46.6307 28.2532 46.4441 28.2098C46.2576 28.1665 46.0949 28.053 45.9897 27.8929C45.8846 27.7328 45.845 27.5384 45.8792 27.35C45.9015 27.2548 45.9423 27.165 45.9993 27.0856C46.0563 27.0062 46.1284 26.9388 46.2114 26.8873C46.2945 26.8358 46.3869 26.8011 46.4834 26.7854C46.5798 26.7696 46.6785 26.773 46.7736 26.7954C46.8688 26.8173 46.9588 26.8577 47.0383 26.9144C47.1179 26.9711 47.1855 27.043 47.2372 27.1259C47.2889 27.2087 47.3238 27.301 47.3398 27.3974C47.3558 27.4938 47.3527 27.5924 47.3305 27.6875ZM45.8039 29.0251C45.7847 29.107 45.7495 29.1842 45.7004 29.2525C45.6514 29.3208 45.5894 29.3787 45.5179 29.423C45.4464 29.4673 45.367 29.4971 45.284 29.5107C45.201 29.5242 45.1162 29.5213 45.0344 29.5021C44.9525 29.4829 44.8752 29.4478 44.807 29.3987C44.7387 29.3496 44.6808 29.2876 44.6365 29.2162C44.5922 29.1447 44.5624 29.0652 44.5488 28.9823C44.5353 28.8993 44.5382 28.8145 44.5574 28.7326C44.5961 28.5673 44.699 28.4242 44.8433 28.3348C44.9876 28.2453 45.1616 28.2168 45.3269 28.2556C45.4922 28.2944 45.6353 28.3973 45.7247 28.5416C45.8142 28.6859 45.8426 28.8598 45.8039 29.0251ZM44.2795 29.87C44.2383 30.0032 44.1481 30.1159 44.0272 30.1853C43.9062 30.2547 43.7635 30.2756 43.6277 30.244C43.4919 30.2123 43.3731 30.1303 43.2953 30.0146C43.2175 29.8989 43.1865 29.758 43.2085 29.6203C43.2497 29.487 43.3398 29.3744 43.4608 29.305C43.5818 29.2356 43.7245 29.2146 43.8603 29.2463C43.9961 29.2779 44.1149 29.3599 44.1927 29.4756C44.2704 29.5914 44.3015 29.7323 44.2795 29.87ZM52.2715 24.407C52.1512 24.6543 51.9377 24.8437 51.6778 24.9338C51.418 25.0239 51.133 25.0072 50.8855 24.8874C50.7628 24.8286 50.6529 24.7461 50.5622 24.6446C50.4715 24.5432 50.4017 24.4248 50.357 24.2963C50.3122 24.1678 50.2933 24.0317 50.3014 23.8958C50.3095 23.76 50.3443 23.6271 50.404 23.5047C50.5243 23.2578 50.7376 23.0685 50.9972 22.9785C51.2568 22.8884 51.5414 22.9049 51.7889 23.0244C51.9114 23.0834 52.0211 23.166 52.1116 23.2675C52.2022 23.3689 52.2719 23.4873 52.3167 23.6157C52.3615 23.7441 52.3806 23.8801 52.3729 24.0158C52.3651 24.1516 52.3307 24.2845 52.2715 24.407ZM51.1904 26.8989C51.0828 27.0995 50.9019 27.2508 50.6855 27.3213C50.469 27.3918 50.2337 27.3759 50.0286 27.2771C49.8236 27.1783 49.6646 27.0041 49.5849 26.7909C49.5051 26.5776 49.5108 26.3419 49.6007 26.1327C49.7036 25.9228 49.8852 25.7621 50.106 25.6854C50.3268 25.6087 50.5689 25.6223 50.7797 25.7232C50.8842 25.7732 50.9777 25.8433 51.0549 25.9295C51.1321 26.0157 51.1916 26.1163 51.2297 26.2256C51.2679 26.3349 51.2841 26.4506 51.2773 26.5662C51.2706 26.6817 51.241 26.7948 51.1904 26.8989ZM49.8314 28.7889C49.7426 28.9705 49.5856 29.1095 49.3946 29.1757C49.2036 29.2419 48.9942 29.2298 48.8121 29.1421C48.7221 29.0988 48.6416 29.0382 48.5751 28.9638C48.5087 28.8893 48.4575 28.8024 48.4247 28.7081C48.3919 28.6138 48.378 28.514 48.3839 28.4143C48.3897 28.3147 48.4152 28.2172 48.4589 28.1274C48.5519 27.9542 48.7082 27.8236 48.8952 27.7628C49.0822 27.7021 49.2854 27.7159 49.4624 27.8014C49.6395 27.8869 49.7767 28.0374 49.8454 28.2216C49.9142 28.4058 49.9091 28.6094 49.8314 28.79V28.7889ZM48.3171 30.1254C48.24 30.2825 48.1039 30.4029 47.9385 30.4602C47.7731 30.5175 47.5918 30.5071 47.434 30.4314C47.3536 30.395 47.2813 30.343 47.2214 30.2782C47.1615 30.2135 47.1151 30.1374 47.0851 30.0545C47.055 29.9715 47.0419 29.8834 47.0465 29.7953C47.0511 29.7072 47.0733 29.6209 47.1118 29.5415C47.1503 29.4621 47.2043 29.3913 47.2706 29.3331C47.3369 29.275 47.4142 29.2307 47.498 29.2029C47.5817 29.1751 47.6701 29.1644 47.7581 29.1713C47.846 29.1783 47.9317 29.2028 48.01 29.2434C48.0881 29.2811 48.1579 29.3339 48.2156 29.3986C48.2733 29.4634 48.3177 29.5389 48.3462 29.6208C48.3747 29.7027 48.3869 29.7894 48.3819 29.876C48.3769 29.9625 48.3549 30.0473 48.3171 30.1254ZM46.7927 30.9489C46.7236 31.0771 46.6076 31.1737 46.469 31.2185C46.3304 31.2634 46.1798 31.2531 46.0487 31.1898C45.9175 31.1264 45.8158 31.0149 45.7647 30.8785C45.7137 30.742 45.7172 30.5911 45.7746 30.4573C45.8465 30.3338 45.9622 30.2421 46.0988 30.2003C46.2353 30.1586 46.3826 30.1698 46.5112 30.2319C46.6397 30.294 46.7402 30.4023 46.7924 30.5353C46.8446 30.6682 46.8447 30.8159 46.7927 30.9489ZM45.3606 31.364C45.3048 31.4783 45.2061 31.5659 45.0859 31.6076C44.9658 31.6493 44.834 31.6418 44.7194 31.5868C44.6628 31.5593 44.6122 31.5209 44.5704 31.4739C44.5286 31.4268 44.4966 31.372 44.476 31.3126C44.4554 31.2531 44.4467 31.1902 44.4505 31.1274C44.4542 31.0646 44.4703 31.0032 44.4977 30.9466C44.5252 30.89 44.5636 30.8394 44.6106 30.7977C44.6576 30.7559 44.7125 30.7238 44.7719 30.7032C44.8313 30.6827 44.8943 30.674 44.957 30.6777C45.0198 30.6815 45.0813 30.6975 45.1379 30.725C45.1945 30.7523 45.2452 30.7905 45.287 30.8374C45.3288 30.8843 45.361 30.939 45.3817 30.9983C45.4024 31.0577 45.4112 31.1205 45.4076 31.1833C45.404 31.246 45.388 31.3074 45.3606 31.364ZM46.5261 36.827C46.3631 36.7338 46.2201 36.6093 46.1054 36.4607C45.9907 36.3121 45.9064 36.1423 45.8575 35.961C45.8086 35.7798 45.7959 35.5906 45.8203 35.4045C45.8447 35.2183 45.9056 35.0388 45.9996 34.8762C46.1904 34.5479 46.5034 34.3084 46.8702 34.2102C47.237 34.1119 47.6278 34.1629 47.9571 34.352C48.6434 34.7458 48.8796 35.6199 48.4847 36.3028C48.2942 36.6313 47.9812 36.871 47.6143 36.9693C47.2474 37.0675 46.8565 37.0164 46.5272 36.827H46.5261ZM43.1624 35.1035C43.0243 35.0247 42.9032 34.9193 42.8061 34.7935C42.7089 34.6677 42.6376 34.5239 42.5962 34.3704C42.5548 34.2169 42.5441 34.0568 42.5648 33.8991C42.5855 33.7415 42.6372 33.5896 42.7169 33.452C42.8782 33.1739 43.1432 32.9711 43.4537 32.8878C43.7642 32.8045 44.0951 32.8476 44.374 33.0076C44.9545 33.3406 45.1536 34.0809 44.8195 34.6591C44.6583 34.9374 44.3934 35.1405 44.0828 35.2238C43.7721 35.3071 43.4412 35.2638 43.1624 35.1035ZM40.6851 33.0335C40.5683 32.9667 40.4658 32.8774 40.3836 32.7709C40.3014 32.6643 40.241 32.5426 40.206 32.4126C40.171 32.2827 40.162 32.1471 40.1795 32.0137C40.1971 31.8803 40.2408 31.7516 40.3082 31.6351C40.4449 31.4 40.6691 31.2286 40.9318 31.1584C41.1945 31.0882 41.4743 31.1249 41.71 31.2605C41.8265 31.3272 41.9286 31.4163 42.0106 31.5225C42.0927 31.6288 42.1529 31.7502 42.1879 31.8798C42.2229 32.0094 42.232 32.1446 42.2147 32.2777C42.1973 32.4108 42.1539 32.5392 42.0869 32.6555C41.951 32.8914 41.7271 33.0637 41.4642 33.1346C41.2014 33.2055 40.9212 33.1691 40.6851 33.0335ZM38.9965 30.8127C38.8971 30.7552 38.8099 30.6786 38.7401 30.5874C38.6703 30.4962 38.6191 30.3921 38.5895 30.2811C38.5598 30.1702 38.5524 30.0544 38.5675 29.9405C38.5826 29.8267 38.62 29.7169 38.6775 29.6174C38.7351 29.518 38.8117 29.4309 38.9029 29.3611C38.9941 29.2912 39.0982 29.24 39.2091 29.2104C39.3201 29.1808 39.4359 29.1733 39.5498 29.1884C39.6636 29.2036 39.7734 29.241 39.8729 29.2985C40.2914 29.5392 40.4354 30.0736 40.1935 30.491C40.0772 30.6922 39.8859 30.839 39.6615 30.8994C39.4371 30.9597 39.1979 30.9285 38.9965 30.8127ZM38.0031 28.646C37.9175 28.597 37.8424 28.5316 37.7822 28.4535C37.7219 28.3755 37.6776 28.2863 37.6519 28.191C37.6262 28.0958 37.6195 27.9965 37.6323 27.8987C37.6451 27.8009 37.6771 27.7065 37.7264 27.6211C37.8266 27.4483 37.9912 27.3223 38.1841 27.2707C38.377 27.219 38.5826 27.2459 38.7557 27.3455C39.1157 27.5525 39.2395 28.0115 39.0325 28.3693C38.9327 28.5424 38.7682 28.6689 38.5751 28.7208C38.3821 28.7727 38.1763 28.7458 38.0031 28.646ZM37.5655 26.6469C37.492 26.6047 37.4276 26.5484 37.3759 26.4812C37.3242 26.4141 37.2863 26.3374 37.2644 26.2555C37.2424 26.1737 37.2368 26.0883 37.248 26.0043C37.2591 25.9203 37.2867 25.8393 37.3292 25.766C37.4153 25.6182 37.5563 25.5104 37.7216 25.4661C37.8868 25.4219 38.0628 25.4447 38.2112 25.5297C38.2846 25.5722 38.3489 25.6286 38.4004 25.6958C38.452 25.7631 38.4897 25.8398 38.5116 25.9217C38.5335 26.0035 38.5391 26.0889 38.528 26.1729C38.5169 26.2569 38.4893 26.3378 38.4469 26.4112C38.4045 26.4845 38.3481 26.5488 38.2808 26.6004C38.2136 26.6519 38.1369 26.6897 38.055 26.7116C37.9732 26.7335 37.8878 26.739 37.8038 26.7279C37.7198 26.7168 37.6388 26.6893 37.5655 26.6469ZM41.7842 37.8136C41.6244 37.8139 41.4661 37.7827 41.3184 37.7218C41.1707 37.6609 41.0364 37.5715 40.9232 37.4586C40.8101 37.3458 40.7203 37.2118 40.659 37.0642C40.5976 36.9166 40.566 36.7584 40.5659 36.5986C40.566 36.4389 40.5977 36.2807 40.659 36.1332C40.7203 35.9857 40.8101 35.8518 40.9233 35.739C41.0365 35.6263 41.1708 35.5369 41.3185 35.4762C41.4662 35.4154 41.6245 35.3843 41.7842 35.3847C42.457 35.3847 43.0026 35.9281 43.0026 36.5998C43.0026 37.2703 42.457 37.8136 41.7842 37.8136ZM38.5015 35.4084C38.4026 35.3163 38.3229 35.2056 38.2669 35.0826C38.2109 34.9596 38.1798 34.8267 38.1753 34.6917C38.1708 34.5566 38.193 34.422 38.2407 34.2956C38.2884 34.1691 38.3606 34.0533 38.4531 33.9549C38.6407 33.7558 38.8995 33.639 39.1729 33.6302C39.4463 33.6213 39.7121 33.7211 39.9122 33.9076C40.3285 34.2957 40.3487 34.946 39.9595 35.3611C39.7719 35.5599 39.5134 35.6764 39.2402 35.6853C38.9671 35.6941 38.7015 35.5946 38.5015 35.4084ZM36.8534 33.2169C36.7699 33.1388 36.7026 33.0451 36.6554 32.941C36.6082 32.8369 36.5821 32.7245 36.5784 32.6102C36.5748 32.496 36.5937 32.3822 36.6341 32.2753C36.6745 32.1684 36.7357 32.0705 36.814 31.9873C36.9724 31.8188 37.191 31.72 37.4221 31.7124C37.6532 31.7048 37.8779 31.7891 38.047 31.9467C38.1308 32.0246 38.1984 32.1182 38.2459 32.2223C38.2933 32.3264 38.3197 32.4388 38.3234 32.5531C38.3272 32.6674 38.3083 32.7814 38.2678 32.8883C38.2273 32.9953 38.166 33.0932 38.0875 33.1764C37.9289 33.3449 37.7101 33.4438 37.4788 33.4513C37.2475 33.4589 37.0226 33.3746 36.8534 33.2169ZM35.887 31.0524C35.8156 30.9858 35.758 30.9058 35.7177 30.817C35.6773 30.7281 35.6549 30.6321 35.6518 30.5346C35.6486 30.437 35.6648 30.3398 35.6994 30.2485C35.734 30.1573 35.7862 30.0737 35.8532 30.0028C35.9885 29.859 36.1752 29.7746 36.3725 29.7681C36.5699 29.7615 36.7617 29.8334 36.9062 29.9679C36.9776 30.0345 37.0352 30.1146 37.0756 30.2035C37.116 30.2924 37.1384 30.3884 37.1417 30.486C37.1449 30.5836 37.1289 30.6809 37.0944 30.7723C37.06 30.8637 37.0079 30.9474 36.9411 31.0186C36.8056 31.1626 36.6186 31.247 36.421 31.2533C36.2234 31.2596 36.0314 31.1874 35.887 31.0524ZM35.4865 29.0679C35.4253 29.0107 35.376 28.942 35.3414 28.8657C35.3068 28.7894 35.2876 28.7071 35.2849 28.6234C35.2822 28.5397 35.296 28.4563 35.3256 28.3779C35.3552 28.2995 35.3999 28.2278 35.4572 28.1668C35.5734 28.0428 35.734 27.9699 35.9038 27.9642C36.0736 27.9585 36.2387 28.0204 36.3629 28.1364C36.6216 28.3771 36.6329 28.781 36.3921 29.0386C36.2758 29.1625 36.1151 29.2351 35.9453 29.2406C35.7756 29.2461 35.6105 29.184 35.4865 29.0679ZM35.5135 27.3286C35.4607 27.2796 35.4182 27.2207 35.3883 27.1552C35.3584 27.0897 35.3418 27.019 35.3394 26.947C35.337 26.8751 35.3489 26.8034 35.3743 26.736C35.3997 26.6687 35.4382 26.607 35.4876 26.5546C35.5876 26.4486 35.7255 26.3864 35.8712 26.3818C36.0169 26.3771 36.1585 26.4304 36.265 26.5299C36.3578 26.6324 36.4085 26.7661 36.4072 26.9043C36.4058 27.0426 36.3525 27.1753 36.2577 27.276C36.163 27.3767 36.0338 27.438 35.8959 27.4478C35.758 27.4575 35.6215 27.415 35.5135 27.3286ZM36.2729 36.9586C36.1964 36.8463 36.1428 36.7201 36.1152 36.587C36.0876 36.454 36.0865 36.3168 36.112 36.1833C36.1375 36.0499 36.1891 35.9228 36.2638 35.8093C36.3385 35.6958 36.4349 35.5982 36.5474 35.522C36.775 35.3674 37.0546 35.3094 37.325 35.3606C37.5953 35.4118 37.8343 35.5682 37.9896 35.7954C38.0662 35.9075 38.1199 36.0337 38.1476 36.1667C38.1753 36.2997 38.1764 36.4368 38.1509 36.5702C38.1254 36.7036 38.0737 36.8307 37.9989 36.944C37.9242 37.0574 37.8277 37.1549 37.7151 37.2309C37.4875 37.3853 37.2081 37.4433 36.9378 37.3923C36.6676 37.3413 36.4285 37.1854 36.2729 36.9586ZM34.6461 34.7806C34.5807 34.6852 34.5349 34.5777 34.5112 34.4645C34.4876 34.3512 34.4865 34.2344 34.5082 34.1207C34.5298 34.0071 34.5737 33.8988 34.6373 33.8022C34.701 33.7056 34.7831 33.6225 34.879 33.5578C35.0726 33.4266 35.3101 33.3774 35.5399 33.4208C35.7696 33.4643 35.9728 33.5968 36.1052 33.7895C36.1706 33.885 36.2164 33.9924 36.2401 34.1057C36.2638 34.2189 36.2648 34.3357 36.2432 34.4494C36.2215 34.563 36.1776 34.6713 36.114 34.7679C36.0504 34.8645 35.9682 34.9476 35.8724 35.0124C35.6789 35.1438 35.4412 35.1932 35.2114 35.1497C34.9816 35.1063 34.7783 34.9736 34.6461 34.7806ZM33.6809 32.6623C33.6246 32.5798 33.5852 32.4871 33.5649 32.3893C33.5446 32.2916 33.5437 32.1909 33.5624 32.0928C33.5811 31.9948 33.619 31.9014 33.6739 31.818C33.7288 31.7347 33.7996 31.6629 33.8822 31.607C34.0495 31.4937 34.2548 31.4511 34.4534 31.4886C34.652 31.5261 34.8276 31.6407 34.942 31.8073C34.9985 31.8898 35.0382 31.9828 35.0586 32.0808C35.079 32.1788 35.0798 32.2799 35.061 32.3782C35.0422 32.4765 35.0041 32.5701 34.9489 32.6536C34.8937 32.7371 34.8225 32.8089 34.7395 32.8647C34.572 32.9775 34.3668 33.0195 34.1685 32.9816C33.9701 32.9437 33.7949 32.8289 33.6809 32.6623ZM33.2759 30.689C33.227 30.6174 33.1928 30.5368 33.1751 30.452C33.1574 30.3671 33.1567 30.2796 33.1729 30.1944C33.1891 30.1092 33.2219 30.0281 33.2695 29.9556C33.3171 29.8832 33.3785 29.8208 33.4502 29.7721C33.5955 29.6736 33.7739 29.6366 33.9464 29.6693C34.1188 29.702 34.2713 29.8017 34.3705 29.9465C34.4196 30.0181 34.454 30.0987 34.4717 30.1837C34.4895 30.2686 34.4902 30.3563 34.4739 30.4415C34.4576 30.5268 34.4245 30.608 34.3767 30.6804C34.3288 30.7528 34.267 30.815 34.195 30.8634C34.0498 30.9615 33.8717 30.9983 33.6995 30.9656C33.5273 30.933 33.375 30.8335 33.2759 30.689ZM33.3209 28.961C33.2791 28.8999 33.2497 28.8311 33.2346 28.7586C33.2194 28.6862 33.2187 28.6114 33.2325 28.5387C33.2463 28.4659 33.2743 28.3966 33.315 28.3347C33.3556 28.2728 33.4081 28.2196 33.4694 28.178C33.5934 28.0937 33.7458 28.062 33.8932 28.0898C34.0406 28.1177 34.171 28.2028 34.2557 28.3265C34.3298 28.4505 34.3537 28.5981 34.3224 28.7391C34.2912 28.8801 34.2072 29.0038 34.0877 29.0849C33.9682 29.166 33.8222 29.1984 33.6797 29.1753C33.5371 29.1523 33.4087 29.0756 33.3209 28.961ZM33.6741 27.5176C33.6367 27.4655 33.6101 27.4065 33.5959 27.344C33.5817 27.2814 33.5801 27.2167 33.5913 27.1536C33.6025 27.0904 33.6262 27.0302 33.6611 26.9764C33.6959 26.9225 33.7412 26.8762 33.7942 26.8402C33.8472 26.8041 33.9069 26.7791 33.9698 26.7664C34.0327 26.7538 34.0974 26.7539 34.1603 26.7667C34.2231 26.7796 34.2827 26.8048 34.3356 26.841C34.3886 26.8772 34.4337 26.9237 34.4684 26.9776C34.5361 27.083 34.56 27.2107 34.535 27.3334C34.51 27.4561 34.438 27.5643 34.3344 27.6347C34.2308 27.7051 34.1038 27.7323 33.9804 27.7104C33.8571 27.6886 33.7472 27.6194 33.6741 27.5176ZM28.3416 25.7829C28.6709 25.5935 29.0618 25.5423 29.4287 25.6406C29.7956 25.7389 30.1086 25.9785 30.2991 26.3071C30.393 26.4696 30.4538 26.6491 30.4782 26.8352C30.5026 27.0212 30.4901 27.2103 30.4413 27.3915C30.3924 27.5727 30.3084 27.7426 30.1938 27.8912C30.0793 28.0399 29.9365 28.1645 29.7737 28.2579C29.0875 28.6516 28.2122 28.4165 27.8174 27.7347C27.7233 27.5723 27.6622 27.3928 27.6376 27.2066C27.6131 27.0205 27.6255 26.8313 27.6742 26.65C27.7229 26.4686 27.8069 26.2987 27.9215 26.1499C28.036 26.0011 28.1788 25.8764 28.3416 25.7829ZM31.5254 23.7466C31.804 23.5858 32.135 23.542 32.4459 23.6248C32.7568 23.7077 33.0221 23.9105 33.1836 24.1888C33.5177 24.7681 33.3186 25.5072 32.7381 25.8414C32.4593 26.0012 32.1286 26.0443 31.8182 25.9612C31.5078 25.8782 31.2428 25.6758 31.081 25.3981C31.0013 25.2605 30.9495 25.1085 30.9287 24.9509C30.9079 24.7932 30.9184 24.633 30.9597 24.4795C31.001 24.3259 31.0722 24.182 31.1693 24.056C31.2664 23.9301 31.3874 23.8246 31.5254 23.7455V23.7466ZM34.564 22.6475C34.7998 22.5122 35.0795 22.4757 35.3421 22.5459C35.6047 22.616 35.8289 22.7873 35.9657 23.0221C36.0329 23.1386 36.0765 23.2672 36.0939 23.4005C36.1114 23.5338 36.1024 23.6693 36.0675 23.7991C36.0326 23.929 35.9725 24.0507 35.8906 24.1573C35.8086 24.2639 35.7065 24.3534 35.59 24.4205C35.3541 24.5557 35.0743 24.5921 34.8116 24.5217C34.549 24.4513 34.3249 24.2798 34.1882 24.0448C34.1209 23.9284 34.0773 23.7999 34.0598 23.6666C34.0422 23.5334 34.0512 23.3979 34.0861 23.2681C34.121 23.1383 34.1812 23.0167 34.2632 22.9102C34.3452 22.8037 34.4474 22.7144 34.564 22.6475ZM37.3394 22.3032C37.5407 22.1874 37.7797 22.1561 38.0041 22.2162C38.2285 22.2763 38.4199 22.4229 38.5364 22.6239C38.5938 22.7232 38.631 22.8328 38.646 22.9466C38.661 23.0603 38.6533 23.1759 38.6235 23.2867C38.5938 23.3974 38.5424 23.5013 38.4724 23.5922C38.4024 23.6831 38.3152 23.7593 38.2157 23.8164C38.1159 23.8741 38.0058 23.9116 37.8915 23.9267C37.7772 23.9419 37.661 23.9343 37.5497 23.9045C37.4383 23.8748 37.3339 23.8233 37.2424 23.7532C37.1509 23.6831 37.0741 23.5956 37.0165 23.4958C36.9592 23.3963 36.922 23.2865 36.9072 23.1727C36.8924 23.0589 36.9003 22.9432 36.9303 22.8324C36.9603 22.7216 37.0118 22.6179 37.082 22.5271C37.1522 22.4362 37.2397 22.3602 37.3394 22.3032ZM39.7176 22.5328C39.8906 22.4332 40.096 22.4063 40.2887 22.458C40.4815 22.5097 40.6459 22.6357 40.7459 22.8084C40.833 22.9805 40.8508 23.1795 40.7955 23.3644C40.7403 23.5493 40.6163 23.706 40.449 23.8021C40.2818 23.8983 40.084 23.9267 39.8964 23.8814C39.7089 23.8361 39.5458 23.7206 39.4409 23.5588C39.3914 23.4733 39.3593 23.3789 39.3464 23.281C39.3335 23.183 39.3402 23.0835 39.3659 22.9882C39.3916 22.8928 39.4359 22.8035 39.4963 22.7254C39.5566 22.6472 39.6319 22.5817 39.7176 22.5328ZM41.6729 23.156C41.8215 23.0709 41.9977 23.048 42.1631 23.0923C42.3285 23.1365 42.4697 23.2444 42.556 23.3923C42.5986 23.4655 42.6264 23.5465 42.6376 23.6305C42.6488 23.7146 42.6433 23.8 42.6213 23.8819C42.5993 23.9638 42.5614 24.0405 42.5096 24.1077C42.4579 24.1748 42.3933 24.231 42.3197 24.2731C42.2464 24.3156 42.1654 24.3432 42.0814 24.3544C41.9973 24.3656 41.9119 24.3601 41.83 24.3382C41.7481 24.3164 41.6713 24.2786 41.604 24.2271C41.5367 24.1756 41.4802 24.1114 41.4377 24.038C41.3953 23.9646 41.3676 23.8836 41.3565 23.7996C41.3453 23.7156 41.3508 23.6302 41.3726 23.5483C41.3945 23.4664 41.4322 23.3896 41.4837 23.3223C41.5352 23.255 41.5995 23.1985 41.6729 23.156ZM30.5657 20.645C30.8748 20.5518 31.2083 20.5849 31.493 20.7372C31.7777 20.8894 31.9904 21.1484 32.0845 21.4572C32.1583 21.7605 32.113 22.0805 31.958 22.3514C31.8029 22.6223 31.5499 22.8234 31.2511 22.9134C30.9522 23.0033 30.6302 22.9753 30.3514 22.835C30.0726 22.6947 29.8582 22.4529 29.7524 22.1593C29.7058 22.0064 29.69 21.8459 29.7057 21.6869C29.7214 21.528 29.7684 21.3737 29.844 21.2329C29.9196 21.0922 30.0223 20.9678 30.1462 20.8669C30.27 20.766 30.4126 20.6906 30.5657 20.645ZM33.5965 19.5729C33.8538 19.5062 34.1269 19.5416 34.3586 19.6718C34.5904 19.8019 34.7628 20.0166 34.8399 20.271C34.9169 20.5253 34.8926 20.7997 34.7719 21.0365C34.6513 21.2733 34.4438 21.4543 34.1927 21.5416C34.0635 21.5808 33.9277 21.5941 33.7933 21.5808C33.6589 21.5675 33.5284 21.5278 33.4094 21.4641C33.1688 21.3354 32.9893 21.1164 32.9102 20.8554C32.8312 20.5943 32.859 20.3125 32.9877 20.072C33.1164 19.8315 33.3354 19.6519 33.5965 19.5729ZM36.3257 19.25C36.5465 19.1833 36.7848 19.2071 36.988 19.316C37.1913 19.425 37.343 19.6103 37.4097 19.8311C37.4764 20.0519 37.4526 20.2901 37.3436 20.4934C37.2347 20.6967 37.0494 20.8483 36.8286 20.915C36.7193 20.948 36.6045 20.9592 36.4909 20.9479C36.3772 20.9365 36.267 20.9029 36.1663 20.849C36.0656 20.795 35.9766 20.7217 35.9043 20.6334C35.8319 20.545 35.7777 20.4433 35.7447 20.3339C35.7117 20.2246 35.7005 20.1099 35.7118 19.9962C35.7232 19.8826 35.7568 19.7723 35.8107 19.6716C35.8647 19.571 35.9379 19.4819 36.0263 19.4096C36.1147 19.3372 36.2164 19.283 36.3257 19.25ZM38.6882 19.5009C38.877 19.4439 39.0806 19.4642 39.2543 19.5573C39.4281 19.6505 39.5577 19.8088 39.6147 19.9976C39.6717 20.1863 39.6513 20.3899 39.5582 20.5636C39.4651 20.7374 39.3067 20.867 39.118 20.924C38.929 20.9808 38.7252 20.9603 38.5512 20.8671C38.3772 20.7739 38.2473 20.6156 38.1899 20.4267C38.1617 20.3332 38.1522 20.2349 38.1621 20.1377C38.172 20.0404 38.2009 19.9461 38.2473 19.8601C38.2938 19.7741 38.3567 19.6981 38.4325 19.6364C38.5084 19.5748 38.5957 19.5287 38.6894 19.5009H38.6882ZM40.612 20.15C40.771 20.1109 40.9389 20.1343 41.0811 20.2154C41.2233 20.2965 41.3289 20.4291 41.3763 20.5858C41.4236 20.7425 41.409 20.9114 41.3354 21.0576C41.2619 21.2039 41.135 21.3163 40.981 21.3717C40.9008 21.396 40.8166 21.4042 40.7332 21.3959C40.6498 21.3875 40.5688 21.3629 40.495 21.3233C40.4211 21.2837 40.3558 21.2299 40.3027 21.1651C40.2496 21.1003 40.2098 21.0256 40.1856 20.9454C40.1614 20.8652 40.1532 20.7809 40.1615 20.6976C40.1698 20.6142 40.1945 20.5332 40.2341 20.4594C40.2737 20.3855 40.3274 20.3202 40.3923 20.2671C40.4571 20.214 40.5318 20.1742 40.612 20.15ZM42.1082 21.0444C42.1771 21.0235 42.2494 21.0163 42.321 21.0234C42.3926 21.0304 42.4621 21.0515 42.5256 21.0854C42.589 21.1193 42.6452 21.1653 42.6908 21.2209C42.7365 21.2765 42.7708 21.3406 42.7917 21.4094C42.8126 21.4783 42.8197 21.5506 42.8127 21.6222C42.8057 21.6938 42.7846 21.7633 42.7507 21.8268C42.7168 21.8902 42.6707 21.9464 42.6151 21.9921C42.5595 22.0377 42.4955 22.072 42.4266 22.0929C42.2876 22.1351 42.1375 22.1204 42.0093 22.0519C41.8811 21.9834 41.7854 21.8669 41.7432 21.7278C41.701 21.5888 41.7157 21.4387 41.7842 21.3105C41.8526 21.1823 41.9692 21.0866 42.1082 21.0444ZM33.367 16.874C33.5028 16.8636 33.6393 16.88 33.7688 16.9225C33.8982 16.9649 34.018 17.0325 34.1213 17.1214C34.2245 17.2102 34.3092 17.3186 34.3705 17.4402C34.4318 17.5618 34.4685 17.6944 34.4785 17.8302C34.4985 18.1047 34.4086 18.3759 34.2286 18.5842C34.0487 18.7924 33.7934 18.9206 33.5189 18.9406C33.2444 18.9606 32.9732 18.8707 32.7649 18.6908C32.5567 18.5108 32.4285 18.2555 32.4085 17.981C32.3987 17.8453 32.4157 17.709 32.4587 17.5798C32.5016 17.4507 32.5696 17.3313 32.6587 17.2285C32.7479 17.1257 32.8564 17.0414 32.9781 16.9806C33.0998 16.9198 33.2324 16.8836 33.3681 16.874H33.367ZM36.0749 16.5613C36.3009 16.5561 36.5203 16.638 36.6875 16.7901C36.8548 16.9422 36.9573 17.1528 36.9736 17.3783C36.9899 17.6038 36.9189 17.8269 36.7753 18.0015C36.6317 18.1761 36.4264 18.2888 36.202 18.3162C36.0835 18.3307 35.9634 18.321 35.8488 18.2877C35.7342 18.2543 35.6276 18.198 35.5354 18.1222C35.4432 18.0464 35.3674 17.9526 35.3126 17.8466C35.2578 17.7406 35.2251 17.6246 35.2164 17.5055C35.2078 17.3865 35.2235 17.267 35.2625 17.1542C35.3014 17.0414 35.3629 16.9377 35.4432 16.8494C35.5235 16.7611 35.6209 16.69 35.7295 16.6405C35.838 16.5909 35.9555 16.564 36.0749 16.5613ZM38.3969 16.7908C38.5909 16.7883 38.7786 16.8601 38.9215 16.9914C39.0645 17.1226 39.1519 17.3035 39.166 17.4971C39.1801 17.6907 39.1197 17.8823 38.9973 18.0329C38.8748 18.1834 38.6995 18.2816 38.5071 18.3072C38.309 18.3166 38.1151 18.2481 37.9667 18.1165C37.8184 17.9849 37.7273 17.8005 37.7129 17.6027C37.6985 17.4049 37.762 17.2093 37.8897 17.0576C38.0175 16.906 38.1995 16.8102 38.3969 16.7908ZM40.3127 17.4297C40.4833 17.4241 40.6494 17.4847 40.7762 17.5988C40.9031 17.713 40.9808 17.8717 40.9932 18.0419C41.0055 18.2121 40.9515 18.3804 40.8425 18.5117C40.7335 18.643 40.5779 18.7269 40.4084 18.746C40.32 18.7559 40.2305 18.7479 40.1453 18.7225C40.0602 18.697 39.981 18.6546 39.9126 18.5978C39.8442 18.541 39.788 18.4709 39.7473 18.3918C39.7066 18.3128 39.6823 18.2263 39.6759 18.1376C39.6694 18.0489 39.681 17.9599 39.7098 17.8757C39.7386 17.7916 39.7841 17.7142 39.8436 17.6481C39.9031 17.582 39.9753 17.5286 40.0559 17.4911C40.1365 17.4535 40.2239 17.4327 40.3127 17.4297Z" fill="white"/>
</svg>
