<svg width="80" height="52" viewBox="0 0 80 52" fill="none" xmlns="http://www.w3.org/2000/svg">
    <path d="M78.6205 52H1.37937C0.617655 52 0 51.3872 0 50.6315V1.36848C0 0.612779 0.617655 0 1.37937 0H78.6206C79.3823 0 80 0.612779 80 1.36848V50.6315C79.9998 51.3874 79.3822 52 78.6205 52Z" fill="#F6F5F3"/>
    <path fill-rule="evenodd" clip-rule="evenodd" d="M1.37937 51.5938H78.6205C79.1569 51.5938 79.591 51.1625 79.5911 50.6315V1.36848C79.5911 0.83766 79.157 0.40625 78.6206 0.40625H1.37937C0.842981 0.40625 0.408931 0.837661 0.408931 1.36848V50.6315C0.408931 51.1623 0.842981 51.5938 1.37937 51.5938ZM1.37937 52H78.6205C79.3822 52 79.9998 51.3874 80 50.6315V1.36848C80 0.612779 79.3823 0 78.6206 0H1.37937C0.617655 0 0 0.612779 0 1.36848V50.6315C0 51.3872 0.617655 52 1.37937 52Z" fill="#A9A9A9"/>
    <path opacity="0.2" d="M28.6798 35.995L30.3416 41L41.7491 26L30.3416 11L28.5988 15.8964L36.1763 25.9973L28.6798 35.995Z" fill="#FF564F"/>
    <path d="M52.9959 40.9973H47.5824L36.1722 25.9973L47.5824 11H52.9959L41.7464 25.9973L52.9959 40.9973Z" fill="#F08179"/>
    <path d="M26 11H30.3389V40.9973H26V11Z" fill="#FF564F"/>
    <path d="M53 40.9973H47.5865L36.1763 25.9973L47.5865 11H53L41.7504 25.9973L53 40.9973Z" fill="#FF564F"/>
    <path d="M53 40.9973H47.5865L36.1763 25.9973L47.5865 11H53L41.7504 25.9973L53 40.9973Z" fill="#FF564F"/>
    <path d="M53 40.9973H47.5865L36.1763 25.9973L47.5865 11H53L41.7504 25.9973L53 40.9973Z" fill="#FF564F"/>
    <path d="M53 40.9973H47.5865L36.1763 25.9973L47.5865 11H53L41.7504 25.9973L53 40.9973Z" fill="#FF564F"/>
</svg>
