<?xml version="1.0" encoding="UTF-8"?>
<svg width="512px" height="512px" viewBox="0 0 512 512" version="1.1" xmlns="http://www.w3.org/2000/svg" xmlns:xlink="http://www.w3.org/1999/xlink">
    <!-- Generator: Sketch 49 (51002) - http://www.bohemiancoding.com/sketch -->
    <title>LiteCoin</title>
    <desc>Created with Sketch.</desc>
    <defs>
        <path d="M502.837269,335.09965 L8.82212724,335.09965 C3.9503703,335.09965 0,331.150767 0,326.280844 L0,8.81880617 C0,3.94888319 3.9503703,0 8.82212724,0 L502.838268,0 C507.710025,0 511.660395,3.94888319 511.660395,8.81880617 L511.660395,326.280844 C511.659396,331.151766 507.709026,335.09965 502.837269,335.09965 Z" id="path-1"></path>
    </defs>
    <g id="LiteCoin" stroke="none" stroke-width="1" fill="none" fill-rule="evenodd">
        <g id="Group-Copy-2" transform="translate(0.000000, 89.000000)">
            <g id="bitkoin">
                <g id="234-australia">
                    <g id="LiteCoin">
                        <g id="Shape-Copy" fill-rule="nonzero">
                            <use fill="#F6F5F3" fill-rule="evenodd" xlink:href="#path-1"></use>
                            <path stroke="#A9A9A9" stroke-width="1.5" d="M502.837269,334.34965 C507.295118,334.34965 510.909481,330.737213 510.910395,326.280844 L510.910395,8.81880617 C510.910395,4.36315998 507.295875,0.75 502.838268,0.75 L8.82212724,0.75 C4.36452066,0.75 0.75,4.36315998 0.75,8.81880617 L0.75,326.280844 C0.75,330.73649 4.36452066,334.34965 8.82212724,334.34965 L502.837269,334.34965 Z"></path>
                        </g>
                        <g id="litecoin" stroke-width="1" fill-rule="evenodd" transform="translate(139.755102, 49.680934)">
                            <path d="M236.408163,118.318347 C236.408163,183.664498 183.487125,236.638132 118.2048,236.638132 C52.9217567,236.638132 0,183.664498 0,118.318347 C0,52.9729152 52.9217567,0 118.2048,0 C183.486407,0 236.408163,52.9729152 236.408163,118.318347" id="Shape" fill="#BEBEBE" fill-rule="nonzero"></path>
                            <path d="M213.088435,117.703539 C213.088435,169.091657 171.468169,210.755837 120.126926,210.755837 C68.7863988,210.755837 27.1632653,169.091657 27.1632653,117.703539 C27.1632653,66.311115 68.7863988,24.6498054 120.126926,24.6498054 C171.468886,24.6498054 213.088435,66.3103974 213.088435,117.703539" id="Shape" fill="#BEBEBE" fill-rule="nonzero"></path>
                            <polyline id="Shape" fill="#FFFFFF" fill-rule="nonzero" points="113.253184 149.290029 120.891623 120.352242 138.975858 113.704974 143.474058 96.6983469 143.320475 96.2764692 125.519118 102.819525 138.345096 54.229572 101.970181 54.229572 85.19676 117.640582 71.1921213 122.787921 66.5646259 140.320637 80.5585494 135.177611 70.6727961 172.548638 167.480888 172.548638 173.687075 149.290029 113.253184 149.290029"></polyline>
                        </g>
                    </g>
                </g>
            </g>
        </g>
    </g>
</svg>