<svg width="419" height="355" viewBox="0 0 419 355" fill="none" xmlns="http://www.w3.org/2000/svg">
    <path d="M398.977 306H19.7718C16.0323 306 13 302.971 13 299.237V55.7635C13 52.0285 16.0323 49 19.7718 49H398.977C402.717 49 405.749 52.0285 405.749 55.7635V299.237C405.748 302.972 402.716 306 398.977 306Z" fill="#F6F5F3"/>
    <path d="M398.977 305.25C402.302 305.25 404.999 302.558 404.999 299.237V55.7635C404.999 52.443 402.303 49.75 398.977 49.75H19.7718C16.4463 49.75 13.75 52.443 13.75 55.7635V299.237C13.75 302.557 16.4463 305.25 19.7718 305.25H398.977Z" stroke="#A9A9A9" stroke-width="1.5" fill="#f6f5f3"/>
    <path d="M209.5 276C263.9 276 308 231.9 308 177.5C308 123.1 263.9 79 209.5 79C155.1 79 111 123.1 111 177.5C111 231.9 155.1 276 209.5 276Z" fill="#4FA89B"/>
    <path d="M161.02 207.048V160.687L196.178 187.148V207.048H205.151V185.28C205.149 184.471 204.96 183.673 204.598 182.95C204.237 182.226 203.712 181.596 203.066 181.11L160.429 149.009C159.649 148.429 158.724 148.078 157.756 147.993C156.788 147.908 155.816 148.093 154.947 148.527C154.078 148.962 153.347 149.629 152.834 150.454C152.321 151.279 152.048 152.23 152.043 153.201V207.048H161.02ZM258.252 207.048V160.687L223.094 187.148V207.048H214.121V185.28C214.123 184.471 214.312 183.673 214.673 182.95C215.035 182.226 215.56 181.596 216.206 181.11L258.843 149.022C259.622 148.443 260.546 148.092 261.513 148.006C262.479 147.921 263.451 148.105 264.319 148.537C265.188 148.97 265.919 149.635 266.433 150.458C266.946 151.282 267.222 152.231 267.229 153.201V207.048H258.252Z" fill="white"/>
</svg>
