<svg width="80" height="52" viewBox="0 0 80 52" fill="none" xmlns="http://www.w3.org/2000/svg">
    <path d="M78.6205 52H1.37937C0.617655 52 0 51.3872 0 50.6315V1.36848C0 0.612779 0.617655 0 1.37937 0H78.6206C79.3823 0 80 0.612779 80 1.36848V50.6315C79.9998 51.3874 79.3822 52 78.6205 52Z" fill="#F6F5F3"/>
    <path fill-rule="evenodd" clip-rule="evenodd" d="M1.37937 51.5938H78.6205C79.1569 51.5938 79.591 51.1625 79.5911 50.6315V1.36848C79.5911 0.83766 79.157 0.40625 78.6206 0.40625H1.37937C0.842981 0.40625 0.408931 0.837661 0.408931 1.36848V50.6315C0.408931 51.1623 0.842981 51.5938 1.37937 51.5938ZM1.37937 52H78.6205C79.3822 52 79.9998 51.3874 80 50.6315V1.36848C80 0.612779 79.3823 0 78.6206 0H1.37937C0.617655 0 0 0.612779 0 1.36848V50.6315C0 51.3872 0.617655 52 1.37937 52Z" fill="#A9A9A9"/>
    <path d="M40 44C49.9411 44 58 35.9411 58 26C58 16.0589 49.9411 8 40 8C30.0589 8 22 16.0589 22 26C22 35.9411 30.0589 44 40 44Z" fill="#FF2D55"/>
    <path fill-rule="evenodd" clip-rule="evenodd" d="M34.7531 19.7V33.2H46.0031L34.7531 19.7Z" fill="#A524B3"/>
    <path fill-rule="evenodd" clip-rule="evenodd" d="M23.5031 33.2H34.7531V19.7L23.5031 33.2Z" fill="white"/>
    <path fill-rule="evenodd" clip-rule="evenodd" d="M25.6 36.8C26.626 38.159 27.841 39.374 29.2 40.4H50.8C52.159 39.374 53.374 38.159 54.4 36.8H25.6Z" fill="#FC9965"/>
    <path fill-rule="evenodd" clip-rule="evenodd" d="M29.2 40.3999C32.206 42.6589 35.95 43.9999 40 43.9999C44.05 43.9999 47.794 42.6589 50.8 40.3999H29.2Z" fill="#FF2D55"/>
    <path fill-rule="evenodd" clip-rule="evenodd" d="M46.147 26.8999V36.7999H54.4L46.147 26.8999Z" fill="#A524B3"/>
    <path fill-rule="evenodd" clip-rule="evenodd" d="M46.147 33.2H23.5031C24.0611 34.487 24.7721 35.693 25.6001 36.8H46.156V33.2H46.147Z" fill="#FFBC5B"/>
    <path fill-rule="evenodd" clip-rule="evenodd" d="M37.9031 36.7999H46.1471V26.8999L37.9031 36.7999Z" fill="white"/>
    <path d="M46.147 24.1999C48.6323 24.1999 50.647 22.1852 50.647 19.7C50.647 17.2147 48.6323 15.2 46.147 15.2C43.6617 15.2 41.647 17.2147 41.647 19.7C41.647 22.1852 43.6617 24.1999 46.147 24.1999Z" fill="#FFC95B"/>
    <path d="M34.753 17C35.9957 17 37.003 15.9926 37.003 14.75C37.003 13.5074 35.9957 12.5 34.753 12.5C33.5104 12.5 32.5031 13.5074 32.5031 14.75C32.5031 15.9926 33.5104 17 34.753 17Z" fill="#FFC95B"/>
</svg>
