<svg width="80" height="52" viewBox="0 0 80 52" fill="none" xmlns="http://www.w3.org/2000/svg">
    <path d="M78.6205 52H1.37937C0.617655 52 0 51.3872 0 50.6315V1.36848C0 0.612779 0.617655 0 1.37937 0H78.6206C79.3823 0 80 0.612779 80 1.36848V50.6315C79.9998 51.3874 79.3822 52 78.6205 52Z" fill="#F6F5F3"/>
    <path fill-rule="evenodd" clip-rule="evenodd" d="M1.37937 51.5938H78.6205C79.1569 51.5938 79.591 51.1625 79.5911 50.6315V1.36848C79.5911 0.83766 79.157 0.40625 78.6206 0.40625H1.37937C0.842981 0.40625 0.408931 0.837661 0.408931 1.36848V50.6315C0.408931 51.1623 0.842981 51.5938 1.37937 51.5938ZM1.37937 52H78.6205C79.3822 52 79.9998 51.3874 80 50.6315V1.36848C80 0.612779 79.3823 0 78.6206 0H1.37937C0.617655 0 0 0.612779 0 1.36848V50.6315C0 51.3872 0.617655 52 1.37937 52Z" fill="#A9A9A9"/>
    <g clip-path="url(#clip0_825_21)">
        <path d="M40.0396 44C50.0088 44 58.0791 35.9297 58.0791 25.9604C58 16.0703 49.9297 8 40.0396 8C30.1494 8 22 16.0703 22 26.0396C22 35.9297 30.0703 44 40.0396 44Z" fill="#1C68F3"/>
        <path fill-rule="evenodd" clip-rule="evenodd" d="M50.8791 21.6088V27.622H32.6813H31.8901C32.6813 31.2615 36.0044 33.9517 39.9604 33.9517C43.2044 33.9517 46.0528 32.1319 47.3978 29.4418H50.9583V34.4264C50.9583 35.6132 50.0088 36.5626 48.7429 36.5626H31.178C29.9912 36.5626 28.9626 35.6132 28.9626 34.4264V21.6088H50.8791ZM45.2615 29.3626C44.0747 31.0242 42.1758 32.1319 39.9604 32.1319C37.7451 32.1319 35.767 31.0242 34.6593 29.3626H45.2615ZM35.2923 23.033C33.5517 23.033 32.1275 24.2989 31.8901 25.8813H33.789C34.0264 25.2484 34.5802 24.7736 35.2923 24.7736C36.0044 24.7736 36.5583 25.2484 36.7956 25.8813H38.6154C38.378 24.2198 36.9539 23.033 35.2923 23.033ZM44.6286 23.033C42.8879 23.033 41.4637 24.2989 41.2264 25.8813H43.1253C43.3626 25.2484 43.9165 24.7736 44.6286 24.7736C45.3407 24.7736 45.8945 25.2484 46.1319 25.8813H48.0308C47.7143 24.2198 46.2901 23.033 44.6286 23.033ZM48.6637 14.9626C49.8506 14.9626 50.8791 15.9121 50.8791 17.0989V19.7099H28.9626V17.0989C28.9626 15.9121 29.9121 14.9626 31.178 14.9626H48.6637Z" fill="white"/>
    </g>
    <defs>
        <clipPath id="clip0_825_21">
            <rect width="36" height="36" fill="white" transform="translate(22 8)"/>
        </clipPath>
    </defs>
</svg>
