<svg width="80" height="52" viewBox="0 0 80 52" fill="none" xmlns="http://www.w3.org/2000/svg">
    <path d="M78.6205 52H1.37937C0.617655 52 0 51.3872 0 50.6315V1.36848C0 0.612779 0.617655 0 1.37937 0H78.6206C79.3823 0 80 0.612779 80 1.36848V50.6315C79.9998 51.3874 79.3822 52 78.6205 52Z" fill="#F6F5F3"/>
    <path fill-rule="evenodd" clip-rule="evenodd" d="M1.37937 51.5937H78.6205C79.1569 51.5937 79.591 51.1625 79.5911 50.6315V1.36848C79.5911 0.83766 79.157 0.40625 78.6206 0.40625H1.37937C0.842981 0.40625 0.408931 0.837661 0.408931 1.36848V50.6315C0.408931 51.1623 0.842981 51.5937 1.37937 51.5937ZM1.37937 52H78.6205C79.3822 52 79.9998 51.3874 80 50.6315V1.36848C80 0.612779 79.3824 0 78.6206 0H1.37937C0.617655 0 0 0.612779 0 1.36848V50.6315C0 51.3872 0.617655 52 1.37937 52Z" fill="#A9A9A9"/>
    <path d="M40 44C49.9413 44 58 35.9413 58 26C58 16.0587 49.9413 8 40 8C30.0587 8 22 16.0587 22 26C22 35.9413 30.0587 44 40 44Z" fill="#8247E5"/>
    <g clip-path="url(#clip0_307_533)">
        <path d="M45.7422 22.1873C45.332 21.9545 44.8047 21.9545 44.3359 22.1873L41.0547 24.1082L38.8281 25.3306L35.6055 27.2515C35.1953 27.4843 34.668 27.4843 34.1992 27.2515L31.6797 25.738C31.2695 25.5052 30.9766 25.0395 30.9766 24.5157V21.6052C30.9766 21.1395 31.2109 20.6739 31.6797 20.3828L34.1992 18.9276C34.6094 18.6948 35.1367 18.6948 35.6055 18.9276L38.125 20.441C38.5352 20.6739 38.8281 21.1395 38.8281 21.6634V23.5843L41.0547 22.3037V20.3246C41.0547 19.8589 40.8203 19.3933 40.3516 19.1022L35.6641 16.3664C35.2539 16.1336 34.7266 16.1336 34.2578 16.3664L29.4531 19.1604C28.9844 19.3933 28.75 19.8589 28.75 20.3246V25.7962C28.75 26.2619 28.9844 26.7276 29.4531 27.0186L34.1992 29.7545C34.6094 29.9873 35.1367 29.9873 35.6055 29.7545L38.8281 27.8918L41.0547 26.6112L44.2773 24.7485C44.6875 24.5157 45.2148 24.5157 45.6836 24.7485L48.2031 26.2037C48.6133 26.4365 48.9062 26.9022 48.9062 27.4261V30.3365C48.9062 30.8022 48.6719 31.2679 48.2031 31.5589L45.7422 33.0142C45.332 33.247 44.8047 33.247 44.3359 33.0142L41.8164 31.5589C41.4062 31.3261 41.1133 30.8604 41.1133 30.3365V28.4739L38.8867 29.7545V31.6754C38.8867 32.141 39.1211 32.6067 39.5898 32.8977L44.3359 35.6336C44.7461 35.8664 45.2734 35.8664 45.7422 35.6336L50.4883 32.8977C50.8984 32.6649 51.1914 32.1992 51.1914 31.6754V26.1455C51.1914 25.6798 50.957 25.2142 50.4883 24.9231L45.7422 22.1873Z" fill="white"/>
    </g>
    <defs>
        <clipPath id="clip0_307_533">
            <rect width="22.5" height="19.5" fill="white" transform="translate(28.75 16.25)"/>
        </clipPath>
    </defs>
</svg>
