<svg width="80" height="52" viewBox="0 0 80 52" fill="none" xmlns="http://www.w3.org/2000/svg">
    <path d="M78.6205 52H1.37937C0.617655 52 0 51.3872 0 50.6315V1.36848C0 0.612779 0.617655 0 1.37937 0H78.6206C79.3823 0 80 0.612779 80 1.36848V50.6315C79.9998 51.3874 79.3822 52 78.6205 52Z" fill="#F6F5F3"/>
    <path fill-rule="evenodd" clip-rule="evenodd" d="M1.37937 51.5938H78.6205C79.1569 51.5938 79.591 51.1625 79.5911 50.6315V1.36848C79.5911 0.83766 79.157 0.40625 78.6206 0.40625H1.37937C0.842981 0.40625 0.408931 0.837661 0.408931 1.36848V50.6315C0.408931 51.1623 0.842981 51.5938 1.37937 51.5938ZM1.37937 52H78.6205C79.3822 52 79.9998 51.3874 80 50.6315V1.36848C80 0.612779 79.3823 0 78.6206 0H1.37937C0.617655 0 0 0.612779 0 1.36848V50.6315C0 51.3872 0.617655 52 1.37937 52Z" fill="#A9A9A9"/>
    <path d="M49.04 12.5333L42.7802 21.8333C42.3474 22.4667 43.1798 23.2333 43.7791 22.7L49.939 17.3333C50.1054 17.2 50.3385 17.3 50.3385 17.5333V34.3C50.3385 34.5333 50.0388 34.6333 49.9057 34.4667L31.2597 12.1333C30.6604 11.4 29.7947 11 28.8291 11H28.1632C26.4317 11 25 12.4333 25 14.2V37.8C25 39.5667 26.4317 41 28.1964 41C29.2952 41 30.3274 40.4333 30.9267 39.4667L37.1865 30.1667C37.6193 29.5333 36.7869 28.7667 36.1876 29.3L30.0277 34.6333C29.8613 34.7667 29.6282 34.6667 29.6282 34.4333V17.7C29.6282 17.4667 29.9279 17.3667 30.061 17.5333L48.707 39.8667C49.3063 40.6 50.2053 41 51.1376 41H51.8036C53.5683 41 55 39.5667 55 37.8V14.2C55 12.4333 53.5683 11 51.8036 11C50.6715 11 49.6393 11.5667 49.04 12.5333Z" fill="black"/>
</svg>
