<svg width="392" height="256" viewBox="0 0 392 256" fill="none" xmlns="http://www.w3.org/2000/svg">
<g id="Omg" clip-path="url(#clip0)">
<path id="Vector" d="M384.517 255H6.74623C3.57184 255 1 252.429 1 249.263V6.73714C1 3.57031 3.57184 1 6.74623 1H384.518C387.692 1 390.264 3.57031 390.264 6.73714V249.263C390.263 252.43 387.691 255 384.517 255Z" fill="#F6F5F3" stroke="#A9A9A9" stroke-width="2"/>
<path id="Vector_2" d="M92.5 185C143.586 185 185 143.586 185 92.5C185 41.4137 143.586 0 92.5 0C41.4137 0 0 41.4137 0 92.5C0 143.586 41.4137 185 92.5 185Z" transform="translate(103 35)" fill="#1A53F0"/>
<path id="Vector_3" d="M21.4154 45.7598C9.60223 45.7598 0.0257018 55.364 0.0257018 67.2114C0.0257018 79.0588 9.60315 88.6631 21.4163 88.6631C33.2295 88.6631 42.8069 79.0588 42.8069 67.2114C42.8069 55.364 33.2304 45.7598 21.4163 45.7598H21.4154ZM21.4154 82.1742C13.1829 82.1742 6.50347 75.4791 6.50347 67.2188C6.50347 58.9586 13.1801 52.2634 21.4154 52.2634C29.6507 52.2634 36.3283 58.9586 36.3283 67.2188C36.3144 75.4717 29.6461 82.1641 21.4154 82.1742ZM67.0975 0.000930271C55.2843 0.000930271 45.7068 9.6052 45.7068 21.4526C45.7068 33.3 55.2843 42.9043 67.0975 42.9043C78.9106 42.9043 88.4881 33.3 88.4881 21.4526C88.4881 9.6052 78.9125 4.36809e-06 67.0984 4.36809e-06L67.0975 0.000930271ZM67.0975 36.4154C58.865 36.4154 52.1855 29.7203 52.1855 21.46C52.1855 13.1998 58.8594 6.50461 67.0984 6.50461C75.3373 6.50461 82.0112 13.1998 82.0112 21.46C81.9974 29.7166 75.3244 36.4006 67.0984 36.4145L67.0975 36.4154ZM21.4154 4.36809e-06C11.2321 -0.00647063 2.4529 7.18633 0.429 17.1958C-1.5949 27.2052 3.69518 37.2581 13.0719 41.2328C17.6333 43.1487 22.7169 43.4287 27.4612 42.0253C32.2054 40.6218 36.3185 37.6213 39.1036 33.5322C41.8886 29.443 43.1742 24.5167 42.7426 19.5881C42.311 14.6595 40.1887 10.0317 36.7353 6.48888H42.8005V4.36809e-06H21.4154ZM36.3292 21.4517C36.3292 29.711 29.6525 36.4071 21.4163 36.4071C13.1801 36.4071 6.5044 29.711 6.5044 21.4517C6.5044 13.1924 13.1801 6.49906 21.4154 6.49906C29.6507 6.49906 36.3218 13.197 36.3366 21.4545H36.3292V21.4517Z" transform="translate(155.879 94.2695)" fill="white"/>
</g>
<defs>
<clipPath id="clip0">
<rect width="391.264" height="256" fill="white"/>
</clipPath>
</defs>
</svg>
