<svg width="419" height="355" viewBox="0 0 419 355" fill="none" xmlns="http://www.w3.org/2000/svg">
    <path d="M398.977 306H19.7718C16.0323 306 13 302.971 13 299.237V55.7635C13 52.0285 16.0323 49 19.7718 49H398.977C402.717 49 405.749 52.0285 405.749 55.7635V299.237C405.748 302.972 402.716 306 398.977 306Z" fill="#F6F5F3"/>
    <path d="M398.977 305.25C402.302 305.25 404.999 302.558 404.999 299.237V55.7635C404.999 52.443 402.303 49.75 398.977 49.75H19.7718C16.4463 49.75 13.75 52.443 13.75 55.7635V299.237C13.75 302.557 16.4463 305.25 19.7718 305.25H398.977Z" stroke="#A9A9A9" stroke-width="1.5" fill="#f6f5f3"/>
    <path d="M299.744 241.237C298.393 241.237 297.181 241.484 296.137 241.884C294.984 242.327 293.955 242.924 293.104 243.685L274.992 228.064L288.919 185.088C288.95 185.088 289.071 185.088 289.216 185.088C289.246 185.088 289.322 185.088 289.414 185.088C291.235 185.088 292.877 184.421 294.322 183.074C295.713 181.741 296.415 180.034 296.415 177.963C296.415 176.004 295.712 174.326 294.322 172.924C292.877 171.591 291.24 170.91 289.414 170.91C289.308 170.91 289.216 170.91 289.216 170.91C289.065 170.91 288.968 170.91 288.919 170.91L276.724 133.333C277.679 132.775 278.476 131.945 279.104 130.885C279.663 129.931 279.99 128.777 280.044 127.43C280.044 125.47 279.341 123.792 277.951 122.39C276.547 121.003 274.864 120.303 272.9 120.303C272.034 120.348 271.203 120.5 270.446 120.747C269.614 121.043 268.912 121.483 268.353 122.041L236.169 98.7896C236.321 98.3945 236.466 97.9992 236.615 97.5649C236.646 97.1697 236.661 96.666 236.661 96.1231C236.661 94.1636 235.958 92.4853 234.568 91.084C233.123 89.6965 231.485 88.9961 229.659 88.9961C227.928 89.1017 226.429 89.6083 225.187 90.5064C223.837 91.5139 223.005 92.8265 222.733 94.396H183.693C183.347 92.9738 182.52 91.6961 181.239 90.5805C179.937 89.5339 178.478 88.9961 176.91 88.9961C174.891 88.9961 173.194 89.6973 171.858 91.084C170.452 92.4851 169.766 94.164 169.766 96.1231C169.766 96.6615 169.796 97.1501 169.917 97.5649C170.023 98.0083 170.115 98.4095 170.263 98.7896L138.079 122.041C137.393 121.483 136.726 121.034 136.058 120.747C135.228 120.5 134.38 120.352 133.533 120.303C131.512 120.303 129.816 121.004 128.481 122.39C127.074 123.793 126.389 125.47 126.389 127.43C126.389 128.776 126.696 129.932 127.326 130.885C127.885 131.946 128.697 132.775 129.707 133.333H129.844L117.648 170.694C117.54 170.694 117.47 170.694 117.431 170.694C117.287 170.694 117.178 170.694 117.144 170.694C115.123 170.694 113.427 171.395 112.093 172.782C110.685 174.185 110 175.857 110 177.821C110 179.835 110.686 181.528 112.093 182.86C113.427 184.263 115.123 184.948 117.144 184.948C117.144 184.948 117.18 184.948 117.287 184.948C117.377 184.948 117.451 184.948 117.505 184.948L129.845 222.67C128.726 223.302 127.878 224.126 127.319 225.118C126.687 226.125 126.381 227.295 126.381 228.573C126.381 230.587 127.066 232.28 128.474 233.612C129.809 235.015 131.504 235.7 133.525 235.7C134.373 235.7 135.221 235.549 136.051 235.257C136.719 235.009 137.386 234.644 138.072 234.106L170.256 257.214C170.104 257.658 170.008 258.112 169.909 258.512C169.804 258.956 169.758 259.45 169.758 259.878C169.758 261.877 170.446 263.566 171.851 264.918C173.188 266.305 174.884 267.006 176.902 267.006C178.471 267.006 179.936 266.482 181.232 265.495C182.514 264.577 183.344 263.284 183.686 261.606H222.725C222.973 263.279 223.823 264.577 225.179 265.495C226.427 266.483 227.92 267.006 229.652 267.006C231.473 267.006 233.116 266.304 234.561 264.918C235.951 263.571 236.653 261.877 236.653 259.878C236.653 259.435 236.623 258.98 236.608 258.512C236.457 258.117 236.312 257.683 236.162 257.214L272.892 230.795L290.86 246.272C290.365 246.993 290.013 247.822 289.776 248.72C289.48 249.727 289.38 250.679 289.43 251.528C289.384 254.371 290.385 256.748 292.463 258.728C294.427 260.727 296.866 261.753 299.751 261.753C302.532 261.753 304.947 260.726 306.967 258.728C308.931 256.748 309.946 254.374 310 251.528C309.955 248.705 308.936 246.256 306.967 244.186C304.948 242.227 302.529 241.234 299.751 241.234L299.744 241.237ZM274.127 136.496L285.601 172.057C284.77 172.55 284.121 173.154 283.651 173.859C283.112 174.545 282.731 175.335 282.498 176.233H276.581C276.285 174.995 275.734 173.928 274.918 173.064C273.998 172.22 272.989 171.534 271.885 171.05L274.127 136.496ZM270.807 134.19L268.353 170.904C268.247 170.904 268.155 170.904 268.155 170.904C268.004 170.949 267.907 171.01 267.859 171.055L253.21 143.268C253.913 142.745 254.527 141.97 255.016 140.963C255.412 140.064 255.61 139.073 255.665 138.011C255.665 137.981 255.634 137.814 255.619 137.507C255.513 137.31 255.468 137.064 255.574 136.787L267.409 131.747C267.805 132.286 268.31 132.774 268.997 133.189C269.443 133.728 270.042 134.019 270.729 134.053L270.807 134.19ZM230.902 171.048C230.796 171.093 230.654 171.078 230.397 171.003C230.101 170.973 229.857 170.958 229.675 170.958C229.328 170.958 228.987 170.988 228.665 171.003C228.319 171.108 227.962 171.201 227.581 171.201L208.097 137.367C208.443 137.119 208.746 136.7 209.037 136.217C209.285 135.822 209.542 135.353 209.829 134.919L241.364 138.877C241.394 139.885 241.71 140.733 242.23 141.4C242.626 142.229 243.24 142.896 243.962 143.414L230.902 171.048ZM247.139 144.989C247.29 144.989 247.535 145.019 247.861 145.034C248.012 145.14 248.207 145.185 248.51 145.079C248.758 145.125 249.015 145.11 249.302 145.034C249.55 145.004 249.842 144.883 250.242 144.738L264.891 172.598C264.258 173.136 263.792 173.693 263.52 174.256C263.074 174.888 262.832 175.535 262.797 176.201H236.53C236.234 175.534 235.936 174.887 235.664 174.256C235.268 173.698 234.778 173.14 234.219 172.598L247.139 144.989ZM224.624 172.92C224.13 173.413 223.778 173.908 223.54 174.43C223.244 174.969 222.981 175.566 222.748 176.232H183.709C183.603 175.565 183.363 174.973 182.986 174.43C182.59 173.907 182.209 173.403 181.833 172.92L201.461 139.086C201.709 139.086 201.966 139.116 202.253 139.131C202.501 139.237 202.832 139.282 203.263 139.177C203.609 139.222 203.911 139.207 204.203 139.131C204.451 139.101 204.743 139.086 205.144 139.086L224.624 172.92ZM178.874 171.192C178.428 171.162 178.097 171.087 177.864 170.995C177.568 170.965 177.251 170.949 176.924 170.949C176.628 170.949 176.384 170.98 176.201 170.995C175.905 171.1 175.677 171.146 175.553 171.04L162.492 143.397C163.16 142.873 163.733 142.207 164.224 141.383C164.62 140.716 164.892 139.872 165.09 138.861L196.624 134.685C196.872 135.371 197.129 135.875 197.417 136.195C197.615 136.688 197.921 137.079 198.357 137.346L178.874 171.192ZM172.38 172.634C171.746 173.078 171.261 173.587 170.934 174.145C170.44 174.826 170.177 175.532 170.142 176.232H144.02C143.733 175.62 143.424 174.993 143.154 174.362C142.757 173.804 142.269 173.265 141.71 172.777L156.358 144.99C156.606 144.99 156.863 145.021 157.151 145.036C157.399 145.141 157.69 145.186 158.091 145.081C158.289 145.126 158.537 145.111 158.814 145.036C159.012 145.005 159.26 144.99 159.536 144.99L172.38 172.634ZM144.02 179.761H169.926C170.124 180.591 170.451 181.291 170.936 181.849C171.282 182.481 171.748 182.985 172.381 183.359L159.32 211.002C159.214 211.002 159.072 211.002 158.815 211.002C158.519 211.002 158.276 211.002 158.093 211.002C157.696 211.002 157.39 211.002 157.152 211.002C156.856 211.048 156.593 211.153 156.36 211.2L141.711 183.197C142.271 182.802 142.758 182.243 143.155 181.612C143.427 181.054 143.733 180.422 144.022 179.741L144.02 179.761ZM175.555 184.944C175.706 184.944 175.901 184.974 176.203 184.989C176.401 185.14 176.648 185.187 176.926 185.034C177.272 185.14 177.594 185.08 177.936 184.989C178.282 184.959 178.584 184.884 178.876 184.792L198.359 218.481C197.915 218.877 197.602 219.291 197.419 219.706C197.123 220.245 196.86 220.698 196.627 221.072L165.093 217.114C164.894 216.269 164.598 215.421 164.226 214.597C163.732 213.895 163.162 213.209 162.495 212.583L175.555 184.944ZM181.833 183.073C182.229 182.678 182.59 182.135 182.986 181.563C183.382 181.039 183.6 180.447 183.709 179.761H222.748C222.778 180.443 223.044 181.04 223.471 181.563C223.817 182.14 224.193 182.659 224.624 183.073L205.141 216.764C204.844 216.809 204.547 216.794 204.275 216.718C203.928 216.613 203.591 216.567 203.265 216.567C202.82 216.567 202.488 216.613 202.255 216.718C201.958 216.824 201.641 216.916 201.314 216.916V216.765L181.833 183.073ZM227.583 184.801C227.979 184.906 228.306 184.998 228.593 184.998C228.841 185.149 229.133 185.196 229.533 185.044C229.781 185.149 230.112 185.089 230.4 184.998C230.598 184.968 230.846 184.953 231.122 184.953H230.924L243.986 212.596C243.298 213.228 242.738 213.91 242.323 214.61C241.877 215.44 241.635 216.284 241.601 217.128L209.85 221.086C209.553 220.691 209.325 220.257 209.201 219.718C208.905 219.323 208.607 218.889 208.335 218.494L227.583 184.801ZM234.077 183.359C234.602 182.964 235.087 182.475 235.523 181.848C235.919 181.29 236.245 180.589 236.532 179.761H262.799C263.047 180.442 263.324 181.074 263.665 181.631C263.913 182.263 264.423 182.747 265.111 183.073L250.101 211.22C249.804 211.115 249.541 211.07 249.309 211.023C249.012 211.023 248.749 211.023 248.516 211.023C248.22 211.023 247.992 211.023 247.868 211.023C247.522 211.023 247.274 211.023 247.145 211.023L234.077 183.359ZM234.228 101.51L266.268 124.833C266.117 125.229 266.02 125.643 265.972 126.058C265.821 126.596 265.774 127.05 265.774 127.426C265.728 127.721 265.743 127.919 265.819 128.003C265.925 128.201 265.97 128.399 265.97 128.651V128.453L254.064 133.708C253.376 132.953 252.585 132.267 251.684 131.694C250.674 131.171 249.611 130.904 248.507 130.904C248.211 130.904 247.983 130.904 247.859 130.904C247.512 130.949 247.264 131.055 247.136 131.102H247.287L234.081 101.731C234.081 101.776 234.081 101.761 234.081 101.686C234.081 101.58 234.111 101.535 234.232 101.535L234.228 101.51ZM226.94 102.734C227.336 102.932 227.752 103.08 228.242 103.08C228.638 103.185 229.054 103.23 229.544 103.23C229.742 103.336 229.988 103.276 230.266 103.185C230.418 103.155 230.613 103.14 230.915 103.14L244.193 132.511C243.559 132.856 243.093 133.286 242.821 133.809C242.425 134.348 242.118 134.906 241.881 135.463L210.203 131.287C210.157 130.675 210.005 130.043 209.757 129.416C209.46 128.804 209.143 128.266 208.821 127.832L226.94 102.734ZM183.716 97.9119H222.755C222.785 98.4051 222.953 98.865 223.26 99.2798C223.508 99.8182 223.784 100.268 224.126 100.648L205.653 125.483C205.307 125.453 204.95 125.377 204.569 125.285C204.075 125.255 203.648 125.24 203.267 125.24C202.727 125.24 202.238 125.27 201.822 125.285C201.376 125.391 200.975 125.533 200.594 125.729V125.531L182.338 100.695C182.586 100.3 182.917 99.8855 183.204 99.3969C183.452 99.0515 183.6 98.5871 183.709 97.9552L183.716 97.9119ZM176.933 103.239C177.329 103.239 177.764 103.209 178.304 103.088C178.7 103.058 179.135 102.937 179.531 102.742L197.86 127.794C197.365 128.237 197.013 128.767 196.776 129.378C196.479 130.01 196.33 130.638 196.271 131.249L164.592 135.425C164.296 134.867 163.998 134.309 163.726 133.772C163.28 133.248 162.879 132.818 162.498 132.473L175.703 103.102C175.734 103.102 175.902 103.132 176.208 103.147C176.406 103.298 176.654 103.345 176.931 103.193L176.933 103.239ZM172.385 101.511C172.385 101.511 172.385 101.556 172.385 101.662C172.385 101.768 172.431 101.813 172.583 101.707L159.306 131.078C159.01 130.972 158.812 130.927 158.727 130.88C158.529 130.88 158.331 130.88 158.078 130.88C156.87 130.88 155.807 131.127 154.902 131.67C153.892 132.248 153.081 132.93 152.522 133.684L140.471 128.429C140.562 128.399 140.635 128.231 140.689 127.925C140.689 127.774 140.689 127.58 140.689 127.278C140.628 126.883 140.553 126.395 140.471 125.91C140.335 125.515 140.219 125.174 140.184 124.829L172.385 101.511ZM139.119 131.746L151.17 136.785C151.019 137.08 150.972 137.323 150.972 137.506C150.972 137.801 150.972 138.044 150.972 138.227C150.927 139.2 151.123 140.117 151.62 140.961C152.017 141.969 152.596 142.743 153.426 143.266L138.778 171.053C138.672 171.053 138.599 171.053 138.56 171.053C138.409 171.053 138.362 171.053 138.409 171.053L135.811 134.052C136.479 133.854 137.128 133.529 137.76 133.044C138.319 132.649 138.788 132.235 139.131 131.752L139.119 131.746ZM132.481 219.498L120.863 183.936C121.566 183.541 122.234 182.909 122.811 182.135C123.281 181.522 123.677 180.732 123.966 179.76H130.244C130.571 180.91 131.147 181.937 131.976 182.786C132.733 183.704 133.671 184.385 134.79 184.8H134.926L132.481 219.498ZM130.244 176.234H123.966C123.86 175.389 123.515 174.54 122.956 173.716C122.269 173.015 121.621 172.403 121.007 171.915L132.481 136.497L134.935 171.195C133.725 171.688 132.734 172.365 131.976 173.208C131.146 174.127 130.568 175.133 130.244 176.234L130.244 176.234ZM135.8 221.945L138.398 184.944C138.337 184.944 138.398 184.944 138.534 184.944C138.564 184.944 138.639 184.944 138.751 184.944L153.4 212.731C152.569 213.417 151.974 214.186 151.594 215.036C151.1 216.009 150.891 216.996 150.945 217.988C150.945 218.283 150.945 218.481 150.945 218.565C150.945 218.763 150.991 218.961 151.144 219.213L139.093 224.252C138.607 223.694 138.119 223.205 137.649 222.81C137.108 222.563 136.476 222.232 135.773 221.946L135.8 221.945ZM172.385 254.484L140.202 231.376C140.232 230.981 140.338 230.586 140.489 230.151C140.58 229.756 140.652 229.253 140.707 228.71C140.707 228.559 140.707 228.364 140.707 228.062C140.646 227.865 140.571 227.618 140.489 227.342V227.539L152.396 222.284C153.01 223.114 153.802 223.78 154.776 224.298C155.731 224.836 156.795 225.088 157.952 225.088C158.104 225.088 158.348 225.088 158.675 225.088C158.826 225.088 159.021 225.043 159.324 224.891L172.601 254.261C172.45 254.412 172.403 254.458 172.403 254.458L172.385 254.484ZM179.53 253.259C179.134 253.229 178.718 253.108 178.302 252.914C177.762 252.883 177.312 252.808 176.931 252.763C176.634 252.763 176.391 252.793 176.208 252.808C175.912 252.914 175.684 252.959 175.56 252.853H175.711L162.505 223.483C162.902 223.138 163.298 222.728 163.733 222.185C163.981 221.74 164.312 221.157 164.599 220.531H164.75L196.285 224.49C196.315 225.21 196.483 225.877 196.79 226.434C197.038 227.066 197.384 227.639 197.874 228.162L194.697 232.338L179.53 253.259ZM222.754 258.082H183.715C183.609 257.686 183.467 257.198 183.21 256.64C182.913 256.101 182.616 255.687 182.343 255.341L200.6 230.146C200.996 230.441 201.392 230.589 201.828 230.589C202.224 230.695 202.729 230.74 203.273 230.634C203.669 230.68 204.104 230.664 204.644 230.589C205.04 230.589 205.476 230.438 206.015 230.146H205.864L224.121 255.341C223.775 255.865 223.487 256.314 223.255 256.708C222.958 257.231 222.809 257.68 222.75 258.076L222.754 258.082ZM230.908 252.898C230.612 252.943 230.383 252.929 230.259 252.853C229.963 252.823 229.72 252.808 229.537 252.808C229.042 252.853 228.616 252.913 228.235 252.959C227.741 253.156 227.314 253.304 226.933 253.304L208.604 228.253C209.001 227.729 209.416 227.156 209.758 226.525C210.006 225.967 210.154 225.3 210.204 224.58L241.882 220.622C242.13 221.254 242.422 221.792 242.823 222.206C243.169 222.744 243.545 223.193 243.976 223.574L231.275 251.865L230.908 252.898ZM234.228 254.483C234.122 254.483 234.077 254.483 234.077 254.483C234.077 254.483 234.077 254.438 234.077 254.285L234.423 253.421L247.268 224.914C247.298 225.065 247.516 225.112 247.847 225.112C247.998 225.112 248.193 225.112 248.495 225.112C249.593 225.112 250.662 224.865 251.672 224.391C252.573 223.996 253.369 223.364 254.052 222.446V222.296L269.422 228.919L234.228 254.483ZM255.516 219.209C255.47 218.962 255.486 218.766 255.561 218.562C255.591 218.456 255.606 218.266 255.606 217.984C255.561 216.938 255.359 215.971 254.958 215.107C254.464 214.262 253.859 213.453 253.152 212.732L268.017 184.802C268.047 184.802 268.123 184.802 268.215 184.802C268.245 184.802 268.26 184.802 268.26 184.802L270.932 225.978L255.516 219.209ZM271.896 184.583C272.995 184.188 273.989 183.576 274.855 182.713C275.558 181.957 276.083 180.965 276.369 179.761H282.503C282.751 180.734 283.117 181.523 283.656 182.135C284.101 182.91 284.775 183.523 285.606 183.937L274.132 219.499L271.896 184.583Z" fill="#2E9AD0"/>
</svg>
