<svg width="80" height="52" viewBox="0 0 80 52" fill="none" xmlns="http://www.w3.org/2000/svg">
    <path d="M78.6205 52H1.37937C0.617655 52 0 51.3872 0 50.6315V1.36848C0 0.612779 0.617655 0 1.37937 0H78.6206C79.3823 0 80 0.612779 80 1.36848V50.6315C79.9998 51.3874 79.3822 52 78.6205 52Z" fill="#F6F5F3"/>
    <path fill-rule="evenodd" clip-rule="evenodd" d="M1.37937 51.5938H78.6205C79.1569 51.5938 79.591 51.1625 79.5911 50.6315V1.36848C79.5911 0.83766 79.157 0.40625 78.6206 0.40625H1.37937C0.842981 0.40625 0.408931 0.837661 0.408931 1.36848V50.6315C0.408931 51.1623 0.842981 51.5938 1.37937 51.5938ZM1.37937 52H78.6205C79.3822 52 79.9998 51.3874 80 50.6315V1.36848C80 0.612779 79.3823 0 78.6206 0H1.37937C0.617655 0 0 0.612779 0 1.36848V50.6315C0 51.3872 0.617655 52 1.37937 52Z" fill="#A9A9A9"/>
    <circle cx="40" cy="26" r="18" fill="#A638D6"/>
    <path d="M38.6017 26.6827C38.6606 26.6878 38.72 26.6878 38.779 26.6827H38.969C39.7669 26.6827 40.5268 26.5336 41.2234 26.1857C41.9172 25.8605 42.5508 25.4238 43.0979 24.8937C43.6425 24.372 44.0605 23.7881 44.3644 23.1545C44.6684 22.5085 44.8204 21.8874 44.8204 21.291C44.8204 20.8562 44.7444 20.4463 44.5671 20.0487C44.4072 19.6576 44.1503 19.3117 43.8198 19.0425C43.4316 18.7308 42.9837 18.4985 42.5026 18.3592C41.1642 18.036 39.7668 18.0275 38.4243 18.3343C37.8164 18.4834 37.2971 18.6822 36.8538 18.9182C36.4232 19.1667 36.0559 19.44 35.7519 19.763C35.203 20.3355 34.7499 20.9896 34.4094 21.701C34.2321 22.024 34.0421 22.2973 33.8521 22.5458C33.6748 22.7942 33.4721 22.9806 33.2315 23.1421C33.0035 23.2912 32.7249 23.3657 32.3829 23.3657C31.927 23.3657 31.5723 23.2539 31.3443 23.0303C31.104 22.7644 30.9811 22.416 31.0024 22.0613C31.0024 21.6762 31.1037 21.2538 31.319 20.7941C31.5662 20.3092 31.877 19.8582 32.2436 19.4524C33.2013 18.4258 34.3657 17.6051 35.6633 17.0423C38.1041 15.9698 40.8374 15.7165 43.4399 16.3218C44.3011 16.5703 45.061 16.9057 45.7196 17.3778C46.6708 18.031 47.3678 18.9814 47.6968 20.0736C48.0258 21.1658 47.9673 22.3352 47.5308 23.3906C47.3028 23.962 46.9862 24.5086 46.5936 25.0056C46.2009 25.5025 45.7323 25.9621 45.2004 26.3721C44.1471 27.219 42.9513 27.879 41.6667 28.3225C41.0334 28.5461 40.4381 28.6952 39.8555 28.807C40.0738 29.8304 40.4406 30.8177 40.9448 31.7389C41.2107 32.211 41.5147 32.6085 41.844 32.9439C42.002 33.1197 42.1972 33.2597 42.4159 33.3541C42.6346 33.4485 42.8717 33.495 43.1106 33.4905H43.3005C43.9718 33.4905 44.5671 33.3911 45.0864 33.1675C46.0177 32.7894 46.8366 32.1869 47.4675 31.4159C47.7588 31.0929 48.0501 30.9438 48.3414 30.9438C48.4284 30.9416 48.5149 30.957 48.5955 30.9891C48.6761 31.0212 48.7491 31.0692 48.81 31.1301C48.9367 31.2544 49 31.4283 49 31.6395C49 31.8507 48.9367 32.0991 48.7974 32.3725C48.6707 32.6458 48.4427 32.9315 48.1261 33.2296C47.3098 34.012 46.3685 34.6583 45.3397 35.1428C44.4404 35.5403 43.5792 35.7391 42.7686 35.7391C42.11 35.7391 41.502 35.5528 40.9448 35.1801C40.3748 34.8074 39.8682 34.3105 39.4122 33.6893C38.9563 33.0557 38.5257 32.3228 38.1457 31.478C37.7784 30.6332 37.4491 29.7388 37.1451 28.807C36.9805 29.1797 36.8158 29.6145 36.6385 30.1114C36.2639 31.1646 35.8627 32.2085 35.4353 33.2421C35.22 33.7514 34.9793 34.2111 34.7134 34.6335C34.4474 35.031 34.1561 35.3664 33.8521 35.6273C33.5481 35.8758 33.2188 36 32.8642 36C32.5729 36 32.3322 35.9503 32.1423 35.8633C31.9778 35.7856 31.8346 35.6706 31.7243 35.5279C31.6209 35.3939 31.5436 35.2423 31.4963 35.0807C31.4045 34.7165 31.4132 34.3348 31.5217 33.975C31.585 33.7638 31.6483 33.5651 31.7623 33.3787L35.8152 26.0739C36.1699 25.4528 36.5245 24.8689 36.8791 24.2974C37.2338 23.726 37.5757 23.2166 37.9051 22.7694C38.247 22.3346 38.5637 21.9867 38.855 21.7134C39.1589 21.4525 39.4376 21.3159 39.6656 21.3159C39.7415 21.3159 39.8175 21.3159 39.9062 21.3532C39.9949 21.378 40.0835 21.4153 40.1595 21.4774C40.2228 21.5271 40.2862 21.614 40.3495 21.7259C40.4001 21.8501 40.4255 21.9743 40.4255 22.1482C40.4255 22.3222 40.3748 22.5582 40.2735 22.8688C39.7854 24.1682 39.2274 25.4413 38.6017 26.6827Z" fill="white"/>
</svg>
