<svg width="80" height="52" viewBox="0 0 80 52" fill="none" xmlns="http://www.w3.org/2000/svg">
    <path d="M78.6205 52H1.37937C0.617655 52 0 51.3872 0 50.6315V1.36848C0 0.612779 0.617655 0 1.37937 0H78.6206C79.3823 0 80 0.612779 80 1.36848V50.6315C79.9998 51.3874 79.3822 52 78.6205 52Z" fill="#F6F5F3"/>
    <path fill-rule="evenodd" clip-rule="evenodd" d="M1.37937 51.5938H78.6205C79.1569 51.5938 79.591 51.1625 79.5911 50.6315V1.36848C79.5911 0.83766 79.157 0.40625 78.6206 0.40625H1.37937C0.842981 0.40625 0.408931 0.837661 0.408931 1.36848V50.6315C0.408931 51.1623 0.842981 51.5938 1.37937 51.5938ZM1.37937 52H78.6205C79.3822 52 79.9998 51.3874 80 50.6315V1.36848C80 0.612779 79.3823 0 78.6206 0H1.37937C0.617655 0 0 0.612779 0 1.36848V50.6315C0 51.3872 0.617655 52 1.37937 52Z" fill="#A9A9A9"/>
    <path d="M45.4027 25.9987V31.3983H39.9986C38.9307 31.3983 37.8867 31.0816 36.9988 30.4883C36.1108 29.895 35.4187 29.0517 35.0101 28.065C34.6014 27.0784 34.4944 25.9927 34.7028 24.9453C34.9111 23.8978 35.4254 22.9357 36.1805 22.1806C36.9357 21.4254 37.8978 20.9112 38.9452 20.7028C39.9926 20.4945 41.0783 20.6014 42.065 21.0101C43.0516 21.4188 43.8949 22.1109 44.4882 22.9988C45.0816 23.8868 45.3982 24.9307 45.3982 25.9987H45.4027ZM40.0699 16.9993C38.8881 16.9642 37.711 17.1622 36.6057 17.5821C35.5004 18.0019 34.4886 18.6353 33.6281 19.4462C32.7677 20.257 32.0753 21.2294 31.5906 22.3078C31.1059 23.3862 30.8384 24.5496 30.8033 25.7314C30.7682 26.9132 30.9662 28.0903 31.386 29.1956C31.8059 30.3009 32.4393 31.3127 33.2501 32.1732C34.061 33.0336 35.0333 33.726 36.1118 34.2107C37.1902 34.6954 38.3535 34.9629 39.5353 34.998H48.998V26.1056C48.998 21.1426 45.0329 17.035 40.0699 16.9993Z" fill="#20EE82"/>
    <path d="M52.7269 13.2722C49.7937 10.3388 45.9373 8.50871 41.81 8.09144C37.6828 7.67417 33.5381 8.69536 30.0771 10.9823C30.2796 11.2062 30.4532 11.4547 30.5939 11.7218C33.8829 9.56297 37.8149 8.60238 41.7288 9.00156C45.6428 9.40074 49.2999 11.1354 52.0854 13.9137C58.7502 20.5697 58.7502 31.4134 52.0854 38.0783C45.4205 44.7431 34.5768 44.7431 27.9119 38.0783C25.1349 35.2917 23.402 31.6341 23.0044 27.7202C22.6068 23.8063 23.5689 19.8748 25.7289 16.5868C25.4615 16.4465 25.2131 16.2728 24.9894 16.07C19.5051 24.3565 21.7817 35.5273 30.0682 41.0115C38.3547 46.4958 49.5255 44.2192 55.0097 35.9327C57.3003 32.4715 58.3243 28.3251 57.9083 24.1955C57.4923 20.0659 55.6618 16.207 52.7269 13.2722Z" fill="#7F8C8D"/>
    <path d="M26.1388 12.1316C26.3899 11.8793 26.7102 11.7071 27.0592 11.6369C27.4081 11.5666 27.7701 11.6014 28.0993 11.7368C28.4285 11.8722 28.7101 12.1022 28.9086 12.3977C29.1071 12.6932 29.2135 13.0409 29.2143 13.3969C29.2152 13.7529 29.1105 14.1011 28.9135 14.3976C28.7165 14.694 28.436 14.9254 28.1074 15.0624C27.7789 15.1995 27.4171 15.236 27.0678 15.1675C26.7185 15.0989 26.3974 14.9283 26.145 14.6773L26.1388 14.671C25.8031 14.3337 25.6146 13.8772 25.6146 13.4013C25.6146 12.9254 25.8031 12.4689 26.1388 12.1316Z" fill="#20EE82"/>
</svg>
