<svg width="80" height="52" viewBox="0 0 80 52" fill="none" xmlns="http://www.w3.org/2000/svg">
    <path d="M78.6205 52H1.37937C0.617655 52 0 51.3872 0 50.6315V1.36848C0 0.612779 0.617655 0 1.37937 0H78.6206C79.3823 0 80 0.612779 80 1.36848V50.6315C79.9998 51.3874 79.3822 52 78.6205 52Z" fill="#F6F5F3"/>
    <path fill-rule="evenodd" clip-rule="evenodd" d="M1.37937 51.5938H78.6205C79.1569 51.5938 79.591 51.1625 79.5911 50.6315V1.36848C79.5911 0.83766 79.157 0.40625 78.6206 0.40625H1.37937C0.842981 0.40625 0.408931 0.837661 0.408931 1.36848V50.6315C0.408931 51.1623 0.842981 51.5938 1.37937 51.5938ZM1.37937 52H78.6205C79.3822 52 79.9998 51.3874 80 50.6315V1.36848C80 0.612779 79.3823 0 78.6206 0H1.37937C0.617655 0 0 0.612779 0 1.36848V50.6315C0 51.3872 0.617655 52 1.37937 52Z" fill="#A9A9A9"/>
    <g clip-path="url(#clip0_825_33)">
        <path d="M48.399 8.02518C48.3972 8.02878 48.336 8.21238 48.2658 8.43018C48.1956 8.64978 48.1002 8.94498 48.0552 9.08898L47.9706 9.34818C46.7142 9.34818 46.5666 9.34998 46.5666 9.36078C46.5666 9.36618 46.8204 9.55518 47.1282 9.77838C47.4378 10.0034 47.6898 10.1906 47.6898 10.1978C47.6898 10.205 47.5926 10.5056 47.4756 10.8674C47.3568 11.2292 47.2632 11.528 47.2668 11.5316C47.2703 11.5352 47.526 11.3534 47.8356 11.1266C48.1434 10.9016 48.4026 10.7162 48.408 10.7162C48.4152 10.7162 48.6672 10.8962 48.9696 11.1176C49.272 11.3372 49.5275 11.5208 49.5366 11.5244C49.5456 11.528 49.5528 11.5244 49.5528 11.5172C49.5528 11.5118 49.4574 11.2112 49.3386 10.8512C49.2216 10.4912 49.1262 10.1942 49.1262 10.1906C49.128 10.1888 49.3818 10.0034 49.6914 9.77838C50.0009 9.55518 50.2548 9.36618 50.2548 9.36078C50.2548 9.34998 50.1072 9.34818 49.551 9.34638L48.8472 9.34278C48.5177 8.32038 48.417 8.02158 48.4134 8.01978C48.408 8.01978 48.4026 8.02158 48.399 8.02518ZM32.4438 8.25918C32.4024 8.38698 32.3052 8.68578 32.2296 8.92158L32.091 9.35358C30.9354 9.36078 30.6924 9.36618 30.6906 9.37158C30.6906 9.37698 30.9354 9.55878 31.236 9.77658C31.5366 9.99438 31.7904 10.178 31.7994 10.1834C31.8156 10.1942 31.803 10.2374 31.5996 10.8602C31.4808 11.2256 31.3872 11.528 31.3908 11.5316C31.3962 11.537 31.6536 11.3534 31.965 11.1266L32.532 10.7144C32.5968 10.763 32.8524 10.9484 33.1404 11.159C33.4284 11.3696 33.6678 11.537 33.6714 11.5334C33.675 11.528 33.5814 11.231 33.4626 10.8692C33.3438 10.5092 33.2484 10.2086 33.2484 10.2032C33.2484 10.196 33.4986 10.0088 33.8064 9.78738C34.1142 9.56598 34.368 9.37878 34.368 9.37158C34.3698 9.35898 34.269 9.35718 33.6714 9.35718H32.9712C32.6256 8.29158 32.5356 8.02878 32.5302 8.02878C32.523 8.02878 32.487 8.12418 32.4438 8.25918Z" fill="#FFCC11"/>
        <path d="M28.3974 14.3505C27.1446 15.7005 26.1042 16.8219 26.0862 16.8417L26.0502 16.8813C26.2266 17.0181 26.3382 17.1099 26.4102 17.1711C26.4822 17.2323 26.6136 17.3547 26.7018 17.4429C26.7882 17.5293 26.9034 17.6517 26.9574 17.7147C27.0096 17.7759 27.0906 17.8749 27.1356 17.9343C27.1806 17.9937 27.2508 18.0927 27.2922 18.1539C27.3336 18.2151 27.3858 18.2979 27.4092 18.3375C27.4326 18.3753 27.4758 18.4527 27.5064 18.5103C27.537 18.5661 27.5856 18.6651 27.6162 18.7299C27.6468 18.7947 27.6936 18.9045 27.7206 18.9729C27.7476 19.0431 27.7872 19.1547 27.8088 19.2213C27.8304 19.2879 27.8646 19.4103 27.8844 19.4931C27.906 19.5759 27.9348 19.7145 27.9492 19.8027C27.9654 19.8891 27.9834 20.0223 27.9924 20.0961C27.9996 20.1717 28.0104 20.3229 28.014 20.4345C28.0194 20.5479 28.0194 20.7279 28.014 20.8467C28.0104 20.9619 27.9996 21.1221 27.9924 21.2013C27.9834 21.2823 27.9672 21.4191 27.9528 21.5055C27.9402 21.5937 27.915 21.7413 27.897 21.8331C27.879 21.9267 27.8484 22.0725 27.8268 22.1571C27.807 22.2417 27.7674 22.3911 27.7404 22.4883C27.7116 22.5873 27.663 22.7475 27.6306 22.8447C27.6 22.9419 27.5478 23.0949 27.5154 23.1813C27.483 23.2695 27.4272 23.4153 27.3912 23.5053C27.3552 23.5953 27.2886 23.7501 27.2454 23.8509C27.2004 23.9517 27.1248 24.1209 27.0744 24.2253C27.0258 24.3315 26.9304 24.5223 26.8656 24.6519C26.799 24.7797 26.6982 24.9723 26.6388 25.0785C26.5812 25.1829 26.502 25.3251 26.4642 25.3917C26.4246 25.4583 26.3472 25.5915 26.2896 25.6869C26.2338 25.7823 26.1384 25.9371 26.079 26.0325C26.0196 26.1279 25.8864 26.3385 25.7802 26.5005C25.674 26.6625 25.5336 26.8893 25.4652 27.0027C25.3968 27.1161 25.3014 27.2781 25.2546 27.3627C25.2078 27.4473 25.1124 27.6291 25.044 27.7641C24.9756 27.9009 24.8892 28.0791 24.8532 28.1583C24.8172 28.2375 24.7614 28.3689 24.7272 28.4481C24.6948 28.5291 24.639 28.6677 24.6048 28.7577C24.5688 28.8477 24.5094 29.0133 24.4734 29.1267C24.4356 29.2401 24.3834 29.4075 24.3564 29.4975C24.3312 29.5875 24.2916 29.7369 24.2682 29.8287C24.2448 29.9223 24.2106 30.0681 24.1926 30.1527C24.1746 30.2373 24.1476 30.3813 24.1314 30.4713C24.117 30.5613 24.0936 30.7107 24.081 30.8025C24.0684 30.8961 24.0504 31.0419 24.0432 31.1265C24.0342 31.2111 24.0216 31.3713 24.0144 31.4829C24.0054 31.5981 24 31.8177 24 31.9995C24 32.1723 24.0036 32.3775 24.0108 32.4531C24.0162 32.5287 24.0288 32.6871 24.0378 32.8023C24.0486 32.9175 24.0648 33.0777 24.0756 33.1587C24.0846 33.2379 24.108 33.3945 24.1278 33.5043C24.1458 33.6159 24.1782 33.7887 24.198 33.8877C24.2196 33.9885 24.2592 34.1631 24.2862 34.2765C24.315 34.3899 24.3564 34.5501 24.3798 34.6329C24.4032 34.7157 24.45 34.8687 24.4842 34.9749C24.5166 35.0793 24.5724 35.2413 24.6048 35.3349C24.639 35.4267 24.6966 35.5779 24.7326 35.6679C24.7686 35.7579 24.8298 35.9019 24.8676 35.9901C24.9072 36.0783 24.9846 36.2439 25.044 36.3609C25.1016 36.4761 25.1808 36.6291 25.2222 36.7011C25.2618 36.7731 25.3266 36.8847 25.3644 36.9495C25.404 37.0143 25.4904 37.1511 25.5588 37.2537C25.6272 37.3563 25.7388 37.5165 25.809 37.6101C25.8792 37.7019 25.9836 37.8351 26.0412 37.9053C26.0988 37.9737 26.1942 38.0835 26.2518 38.1483C26.3094 38.2131 26.421 38.3301 26.5002 38.4111C26.5794 38.4903 26.7054 38.6109 26.781 38.6775C26.8548 38.7459 26.9664 38.8431 27.0276 38.8935C27.0906 38.9439 27.1932 39.0267 27.258 39.0771C27.321 39.1257 27.4452 39.2157 27.5334 39.2769C27.6216 39.3381 27.7638 39.4335 27.852 39.4893C27.9384 39.5433 28.0788 39.6261 28.1598 39.6729C28.2426 39.7215 28.4172 39.8133 28.5486 39.8781C28.68 39.9447 28.8474 40.0239 28.9194 40.0563C28.9914 40.0869 29.1192 40.1409 29.2038 40.1751C29.2884 40.2111 29.4306 40.2651 29.517 40.2975C29.6052 40.3299 29.7564 40.3821 29.8554 40.4145C29.9526 40.4451 30.1218 40.4973 30.2298 40.5279C30.3378 40.5585 30.516 40.6071 30.6276 40.6341C30.7374 40.6611 30.93 40.7043 31.0524 40.7313C31.1766 40.7565 31.389 40.7979 31.5258 40.8213C31.6626 40.8447 31.8822 40.8771 32.0172 40.8951C32.1504 40.9131 32.3628 40.9383 32.4888 40.9527C32.6148 40.9653 32.8002 40.9815 32.901 40.9887C33.0018 40.9977 33.1494 41.0085 33.2286 41.0139C33.3096 41.0193 33.4626 41.0319 33.5706 41.0427C33.6786 41.0517 33.8532 41.0715 33.9594 41.0841C34.0638 41.0967 34.233 41.1201 34.3338 41.1363C34.4346 41.1525 34.5966 41.1795 34.6938 41.1975C34.791 41.2155 34.9692 41.2497 35.0862 41.2749C35.205 41.3001 35.3922 41.3451 35.5038 41.3721C35.6136 41.4009 35.7864 41.4477 35.8872 41.4765C35.988 41.5053 36.1608 41.5593 36.2706 41.5953C36.3822 41.6313 36.5496 41.6907 36.645 41.7249C36.7404 41.7591 36.897 41.8203 36.9924 41.8581C37.0878 41.8959 37.2498 41.9661 37.3524 42.0111C37.455 42.0561 37.6548 42.1515 37.797 42.2217C37.9374 42.2937 38.1354 42.3963 38.2362 42.4521C38.337 42.5097 38.4846 42.5943 38.5638 42.6429C38.6448 42.6897 38.7744 42.7725 38.8536 42.8229C38.9346 42.8751 39.066 42.9633 39.1488 43.0191C39.2316 43.0767 39.3882 43.1883 39.4962 43.2693C39.6042 43.3503 39.759 43.4709 39.8418 43.5357C39.9246 43.6023 40.0632 43.7175 40.1496 43.7931C40.236 43.8687 40.3242 43.9461 40.3458 43.9641L40.3854 43.9983C40.4934 43.9029 40.5816 43.8273 40.6518 43.7661C40.7202 43.7067 40.8552 43.5951 40.9506 43.5177C41.046 43.4421 41.172 43.3431 41.2314 43.2981C41.2908 43.2531 41.4042 43.1703 41.4852 43.1145C41.5644 43.0569 41.6994 42.9651 41.784 42.9075C41.8686 42.8517 41.9928 42.7707 42.0594 42.7293C42.1278 42.6879 42.2412 42.6195 42.3132 42.5763C42.3852 42.5349 42.5094 42.4647 42.5886 42.4197C42.6696 42.3765 42.8406 42.2865 42.972 42.2199C43.1034 42.1551 43.2744 42.0723 43.3518 42.0381C43.4292 42.0039 43.5696 41.9427 43.665 41.9031C43.7604 41.8635 43.908 41.8041 43.9926 41.7717C44.0772 41.7393 44.2122 41.6907 44.2932 41.6637C44.3724 41.6349 44.5182 41.5863 44.6154 41.5557C44.7126 41.5251 44.8674 41.4801 44.9574 41.4549C45.0474 41.4279 45.1878 41.3901 45.2706 41.3703C45.3534 41.3505 45.4848 41.3181 45.5658 41.3001C45.645 41.2821 45.7764 41.2533 45.8556 41.2389C45.9348 41.2227 46.0824 41.1939 46.1832 41.1777C46.284 41.1597 46.455 41.1327 46.563 41.1165C46.671 41.1021 46.833 41.0805 46.923 41.0697C47.013 41.0607 47.1588 41.0445 47.2452 41.0373C47.3334 41.0301 47.463 41.0193 47.535 41.0139C47.607 41.0085 47.7528 40.9977 47.859 40.9887C47.9634 40.9815 48.1326 40.9671 48.2334 40.9563C48.3342 40.9473 48.5016 40.9275 48.6078 40.9149C48.7122 40.9005 48.9066 40.8735 49.038 40.8537C49.1694 40.8339 49.353 40.8015 49.4448 40.7853C49.5384 40.7673 49.686 40.7367 49.7724 40.7187C49.8606 40.7007 50.0154 40.6647 50.1198 40.6395C50.2224 40.6143 50.4006 40.5657 50.5176 40.5333C50.6328 40.4991 50.7912 40.4523 50.8686 40.4271C50.9442 40.4037 51.0918 40.3533 51.1962 40.3155C51.2988 40.2777 51.4464 40.2219 51.5238 40.1913C51.5994 40.1607 51.7146 40.1139 51.7758 40.0869C51.837 40.0599 51.9576 40.0041 52.0422 39.9645C52.1268 39.9249 52.2708 39.8529 52.3608 39.8061C52.4508 39.7575 52.584 39.6855 52.656 39.6441C52.728 39.6027 52.854 39.5253 52.9368 39.4731C53.0196 39.4209 53.1366 39.3417 53.1978 39.3003C53.2608 39.2571 53.3508 39.1923 53.3994 39.1563C53.448 39.1203 53.5578 39.0357 53.6424 38.9673C53.7288 38.8989 53.8584 38.7891 53.934 38.7243C54.0078 38.6577 54.15 38.5227 54.2472 38.4255C54.3444 38.3265 54.4776 38.1879 54.5424 38.1159C54.6054 38.0421 54.7098 37.9197 54.7728 37.8441C54.834 37.7667 54.9348 37.6353 54.996 37.5543C55.0554 37.4715 55.1526 37.3329 55.2102 37.2447C55.2696 37.1565 55.3542 37.0233 55.401 36.9459C55.446 36.8685 55.5234 36.7335 55.572 36.6453C55.6206 36.5589 55.7034 36.3933 55.7592 36.2799C55.815 36.1665 55.8978 35.9865 55.9446 35.8785C55.9896 35.7705 56.0598 35.5941 56.0994 35.4897C56.139 35.3835 56.202 35.2107 56.2362 35.1063C56.2722 35.0001 56.328 34.8165 56.3622 34.6977C56.3964 34.5789 56.445 34.3989 56.4702 34.2963C56.4954 34.1919 56.535 34.0173 56.5584 33.9075C56.5818 33.7959 56.6124 33.6303 56.6286 33.5367C56.643 33.4449 56.6646 33.3063 56.6754 33.2289C56.6862 33.1515 56.7024 33.0039 56.7132 32.9013C56.7222 32.7969 56.7366 32.6529 56.742 32.5773C56.7474 32.5035 56.7546 32.2767 56.7582 32.0769C56.76 31.8447 56.7582 31.6539 56.751 31.5531C56.7456 31.4649 56.7366 31.3407 56.7312 31.2759C56.7258 31.2111 56.7132 31.0833 56.7024 30.9897C56.6934 30.8979 56.6718 30.7377 56.6556 30.6351C56.6412 30.5325 56.6088 30.3543 56.5872 30.2409C56.5638 30.1275 56.5242 29.9493 56.4972 29.8431C56.472 29.7387 56.4288 29.5785 56.4036 29.4885C56.3766 29.3985 56.3226 29.2257 56.283 29.1033C56.2434 28.9827 56.1714 28.7865 56.1264 28.6677C56.0796 28.5507 56.0058 28.3689 55.9608 28.2663C55.9158 28.1637 55.8186 27.9567 55.7448 27.8073C55.671 27.6579 55.563 27.4509 55.5054 27.3483C55.4478 27.2457 55.3506 27.0765 55.2876 26.9739C55.2264 26.8713 55.0932 26.6607 54.9924 26.5059C54.8916 26.3511 54.7638 26.1513 54.708 26.0613C54.6504 25.9713 54.555 25.8147 54.4956 25.7139C54.4344 25.6149 54.3354 25.4439 54.2724 25.3359C54.2112 25.2279 54.1158 25.0569 54.0618 24.9561C54.0078 24.8553 53.9016 24.6501 53.826 24.4971C53.7504 24.3459 53.646 24.1299 53.5956 24.0201C53.547 23.9085 53.4732 23.7429 53.4354 23.6493C53.3958 23.5575 53.3364 23.4081 53.3022 23.3181C53.2662 23.2281 53.1996 23.0355 53.151 22.8915C53.1024 22.7475 53.0394 22.5387 53.0088 22.4289C52.9782 22.3173 52.9332 22.1409 52.9098 22.0347C52.8864 21.9285 52.854 21.7701 52.8378 21.6783C52.8234 21.5883 52.8018 21.4497 52.7928 21.3705C52.782 21.2895 52.7676 21.1653 52.7622 21.0933C52.7532 21.0159 52.7496 20.8287 52.7496 20.6253C52.7496 20.3661 52.7532 20.2527 52.7658 20.1339C52.7748 20.0493 52.7964 19.9053 52.8108 19.8153C52.827 19.7253 52.8558 19.5831 52.8756 19.4985C52.8972 19.4121 52.9404 19.2627 52.9728 19.1655C53.007 19.0683 53.061 18.9225 53.0952 18.8415C53.1312 18.7623 53.1762 18.6615 53.1978 18.6183C53.2212 18.5733 53.2716 18.4815 53.3112 18.4113C53.3508 18.3429 53.4156 18.2367 53.4552 18.1773C53.493 18.1179 53.5614 18.0207 53.6064 17.9613C53.6514 17.9037 53.7162 17.8209 53.7504 17.7795C53.7846 17.7381 53.8692 17.6445 53.9358 17.5707C54.0042 17.4969 54.1194 17.3817 54.1914 17.3169C54.2634 17.2503 54.3642 17.1603 54.4146 17.1171C54.4668 17.0757 54.555 17.0055 54.609 16.9623C54.699 16.8939 54.708 16.8831 54.699 16.8687C54.6918 16.8597 53.6532 15.7383 52.3896 14.3757C51.126 13.0149 50.0892 11.8989 50.0856 11.8971C50.0802 11.8953 49.9614 11.9565 49.821 12.0321C49.6824 12.1077 49.47 12.2193 49.3512 12.2787C49.2324 12.3381 49.0596 12.4227 48.9678 12.4659C48.876 12.5091 48.7122 12.5811 48.6078 12.6279C48.5016 12.6747 48.309 12.7557 48.1776 12.8079C48.0462 12.8601 47.8428 12.9393 47.7276 12.9807C47.6124 13.0239 47.4252 13.0887 47.3118 13.1283C47.1984 13.1661 47.0256 13.2219 46.9266 13.2525C46.8294 13.2831 46.6836 13.3263 46.6044 13.3497C46.5252 13.3731 46.3722 13.4145 46.2678 13.4433C46.1616 13.4721 45.9816 13.5189 45.8646 13.5477C45.7494 13.5747 45.5604 13.6197 45.4434 13.6449C45.3282 13.6701 45.1356 13.7097 45.0186 13.7331C44.8998 13.7565 44.7558 13.7853 44.7 13.7943C44.6424 13.8051 44.4948 13.8303 44.3724 13.8519C44.2482 13.8717 44.0286 13.9059 43.8846 13.9257C43.7406 13.9473 43.5138 13.9761 43.3806 13.9923C43.2456 14.0067 43.053 14.0283 42.9486 14.0391C42.846 14.0481 42.6858 14.0643 42.594 14.0715C42.5004 14.0787 42.369 14.0895 42.2988 14.0949C42.2286 14.1003 42.0648 14.1111 41.9334 14.1183C41.802 14.1255 41.5842 14.1381 41.4474 14.1435C41.2836 14.1525 40.9146 14.1561 40.3656 14.1561C39.7104 14.1561 39.4656 14.1525 39.219 14.1399C39.0462 14.1309 38.8068 14.1165 38.6862 14.1093C38.5656 14.1021 38.4108 14.0913 38.3442 14.0859C38.2776 14.0805 38.13 14.0679 38.0166 14.0571C37.9032 14.0463 37.7322 14.0301 37.6368 14.0193C37.5414 14.0103 37.3794 13.9905 37.275 13.9779C37.1706 13.9653 36.996 13.9419 36.8862 13.9257C36.7764 13.9113 36.5946 13.8825 36.4812 13.8645C36.3678 13.8465 36.1932 13.8177 36.0924 13.7997C35.9934 13.7817 35.817 13.7475 35.7018 13.7241C35.5884 13.7025 35.3976 13.6629 35.2806 13.6359C35.1636 13.6107 34.953 13.5603 34.8108 13.5243C34.6686 13.4883 34.467 13.4361 34.3608 13.4073C34.2564 13.3785 34.0728 13.3245 33.954 13.2885C33.8352 13.2525 33.6336 13.1877 33.5058 13.1463C33.3762 13.1031 33.1944 13.0401 33.1026 13.0059C33.0108 12.9735 32.8398 12.9087 32.7228 12.8637C32.6076 12.8187 32.397 12.7323 32.2548 12.6729C32.1144 12.6117 31.9182 12.5253 31.821 12.4785C31.722 12.4335 31.5348 12.3435 31.4034 12.2769C31.272 12.2121 31.0596 12.0987 30.9282 12.0267C30.7986 11.9547 30.6888 11.8953 30.6834 11.8953C30.6798 11.8953 29.6502 13.0005 28.3974 14.3505Z" fill="black"/>
        <path d="M28.8762 14.6726C27.825 15.8102 26.9466 16.7588 26.9268 16.7804L26.8872 16.8218C27.0114 16.9316 27.1032 17.0198 27.1716 17.0864C27.24 17.153 27.3462 17.2646 27.4074 17.333C27.4686 17.4014 27.5622 17.5094 27.6144 17.576C27.6666 17.6408 27.7494 17.7542 27.7998 17.8262C27.8502 17.8982 27.9276 18.0188 27.9726 18.0926C28.0176 18.1682 28.0896 18.2978 28.1328 18.3842C28.176 18.4688 28.239 18.6056 28.2732 18.6884C28.3074 18.7694 28.356 18.899 28.3794 18.9728C28.4046 19.0484 28.4424 19.1726 28.464 19.25C28.4838 19.3274 28.5162 19.4642 28.5342 19.5542C28.5522 19.6442 28.5756 19.7828 28.5864 19.862C28.5954 19.943 28.6098 20.0618 28.617 20.1302C28.6224 20.2004 28.6278 20.3858 28.6278 20.5694C28.6278 20.7512 28.6224 20.9474 28.6152 21.0284C28.6098 21.1058 28.5936 21.2516 28.581 21.3506C28.5684 21.4514 28.545 21.608 28.5306 21.698C28.5144 21.788 28.4874 21.9266 28.4694 22.0076C28.4514 22.0868 28.4226 22.2128 28.4046 22.2884C28.3848 22.3622 28.347 22.5026 28.3182 22.6016C28.2894 22.6988 28.2426 22.85 28.2156 22.9382C28.1868 23.0264 28.1346 23.1758 28.0986 23.2712C28.0644 23.3666 28.0068 23.5178 27.9708 23.6078C27.9348 23.6978 27.8736 23.8454 27.834 23.9354C27.7962 24.0254 27.7242 24.1856 27.6756 24.2918C27.627 24.3962 27.5316 24.5924 27.465 24.7274C27.3966 24.8606 27.303 25.0442 27.2544 25.1342C27.2058 25.2242 27.1176 25.3862 27.0564 25.4942C26.9952 25.6022 26.8692 25.8182 26.7774 25.9712C26.6838 26.126 26.5434 26.3564 26.4624 26.4824C26.3814 26.6084 26.2518 26.8082 26.1762 26.927C26.1006 27.0458 25.9926 27.2168 25.9404 27.3068C25.8864 27.3968 25.8252 27.4994 25.8054 27.5354C25.7856 27.5714 25.7694 27.6056 25.7694 27.6128C25.7694 27.62 25.7892 27.611 25.818 27.593C25.845 27.5768 27.2526 26.666 28.9464 25.5698C30.6402 24.4736 32.6994 23.1398 33.5238 22.607C34.3482 22.0742 35.7288 21.1814 36.5946 20.6216C37.4586 20.0618 38.841 19.1672 39.6636 18.6344C40.488 18.1016 42.4752 16.8146 44.0826 15.776C45.6882 14.7356 47.031 13.8662 47.067 13.8428C47.103 13.8212 47.1282 13.7996 47.1246 13.7978C47.1192 13.796 47.0238 13.823 46.914 13.8554C46.8024 13.8878 46.6188 13.9418 46.5054 13.9724C46.392 14.003 46.2084 14.0516 46.095 14.0804C45.9816 14.1092 45.8016 14.1506 45.6972 14.1758C45.591 14.1992 45.4164 14.237 45.3084 14.2586C45.2004 14.282 45.0312 14.3144 44.934 14.3324C44.835 14.3522 44.6424 14.3846 44.5038 14.408C44.3634 14.4314 44.1618 14.462 44.0538 14.4782C43.9458 14.4944 43.7568 14.5196 43.6326 14.534C43.5084 14.5502 43.3086 14.5736 43.188 14.5862C43.0674 14.5988 42.8478 14.6204 42.702 14.633C42.5544 14.6456 42.3348 14.6618 42.2142 14.6708C42.0936 14.678 41.874 14.6906 41.7282 14.6996C41.5806 14.7068 41.2908 14.7176 41.082 14.723C40.8462 14.7302 40.488 14.732 40.137 14.7284C39.8256 14.7266 39.4692 14.7194 39.345 14.714C39.2226 14.7086 39.039 14.6996 38.9382 14.6942C38.8374 14.6888 38.6628 14.678 38.5494 14.6708C38.436 14.6636 38.2452 14.6474 38.1246 14.6384C38.004 14.6276 37.8834 14.6168 37.8582 14.615C37.8312 14.6114 37.6926 14.597 37.5486 14.5826C37.4046 14.5664 37.2192 14.5448 37.1364 14.534C37.0536 14.525 36.8844 14.5016 36.7584 14.4836C36.6324 14.4656 36.4272 14.4332 36.303 14.4134C36.1806 14.3918 36.0096 14.363 35.925 14.3468C35.8404 14.3306 35.6856 14.3018 35.583 14.282C35.4804 14.2604 35.3004 14.2226 35.1852 14.1974C35.07 14.1722 34.872 14.1254 34.746 14.0948C34.62 14.0642 34.4292 14.0156 34.3248 13.9868C34.2186 13.958 34.0602 13.913 33.9738 13.8878C33.8856 13.8626 33.7524 13.8212 33.6786 13.7996C33.603 13.7762 33.4428 13.724 33.3222 13.6844C33.2016 13.643 33.027 13.5836 32.9334 13.5494C32.8416 13.5152 32.6922 13.4612 32.6022 13.4252C32.5122 13.391 32.343 13.3244 32.2278 13.2758C32.1108 13.229 31.9416 13.1552 31.848 13.1138C31.7562 13.0724 31.614 13.0094 31.5348 12.9716C31.4556 12.9338 31.2576 12.8366 31.0956 12.7556C30.9336 12.6746 30.7968 12.6062 30.7932 12.6062C30.7896 12.6062 29.9274 13.5368 28.8762 14.6726Z" fill="white"/>
        <path d="M32.6292 14.4567C32.6076 14.4585 32.5284 14.4675 32.4564 14.4747C32.3844 14.4837 32.262 14.5017 32.1846 14.5179C32.1072 14.5323 31.9938 14.5593 31.9308 14.5773C31.8678 14.5953 31.7634 14.6295 31.7004 14.6511C31.6374 14.6745 31.542 14.7123 31.488 14.7357C31.434 14.7609 31.3476 14.8023 31.2954 14.8293C31.245 14.8563 31.1622 14.9031 31.1136 14.9337C31.065 14.9625 30.9876 15.0129 30.9408 15.0453C30.894 15.0777 30.8094 15.1407 30.7536 15.1857C30.696 15.2307 30.5916 15.3207 30.5214 15.3855C30.4494 15.4503 30.3432 15.5565 30.2856 15.6213C30.2262 15.6861 30.1416 15.7851 30.0966 15.8409C30.0534 15.8985 29.976 16.0029 29.9292 16.0749C29.8806 16.1469 29.8176 16.2513 29.7888 16.3053C29.7582 16.3593 29.715 16.4439 29.6934 16.4925C29.67 16.5411 29.6358 16.6203 29.616 16.6707C29.5962 16.7193 29.5656 16.8039 29.5476 16.8597C29.5278 16.9155 29.499 17.0181 29.481 17.0883C29.463 17.1603 29.4378 17.2791 29.4252 17.3529C29.4126 17.4285 29.3964 17.5401 29.3892 17.6013C29.382 17.6715 29.3766 17.8245 29.3784 18.0081C29.3784 18.2367 29.382 18.3339 29.3946 18.4347C29.4036 18.5067 29.4198 18.6129 29.4306 18.6687C29.4396 18.7263 29.463 18.8289 29.481 18.8991C29.4972 18.9675 29.5314 19.0791 29.553 19.1457C29.5764 19.2141 29.6214 19.3311 29.6538 19.4085C29.688 19.4859 29.7474 19.6101 29.7906 19.6857C29.832 19.7595 29.8986 19.8711 29.94 19.9323C29.9814 19.9953 30.0516 20.0925 30.0966 20.1483C30.1398 20.2041 30.2172 20.2977 30.2694 20.3535C30.3198 20.4111 30.426 20.5155 30.5052 20.5875C30.5862 20.6613 30.6978 20.7567 30.7536 20.8017C30.8094 20.8467 30.921 20.9277 31.002 20.9817C31.0812 21.0339 31.2018 21.1077 31.2684 21.1437C31.335 21.1797 31.4448 21.2337 31.5114 21.2625C31.578 21.2913 31.7076 21.3399 31.7976 21.3705C31.8876 21.3993 32.0172 21.4371 32.0874 21.4533C32.1558 21.4695 32.2674 21.4911 32.3358 21.5001C32.4024 21.5109 32.5068 21.5235 32.5698 21.5307C32.631 21.5361 32.7894 21.5415 32.9208 21.5415C33.0756 21.5415 33.207 21.5361 33.2988 21.5271C33.3762 21.5181 33.4896 21.5019 33.5526 21.4911C33.6138 21.4803 33.7146 21.4605 33.7758 21.4461C33.8388 21.4299 33.9504 21.3993 34.0242 21.3741C34.0998 21.3507 34.2096 21.3093 34.2672 21.2859C34.3266 21.2607 34.4238 21.2175 34.4814 21.1887C34.539 21.1599 34.6416 21.1023 34.71 21.0627C34.7784 21.0213 34.8828 20.9529 34.944 20.9097C35.0034 20.8665 35.106 20.7873 35.1726 20.7315C35.2392 20.6775 35.3508 20.5749 35.4228 20.5029C35.4948 20.4309 35.5974 20.3193 35.6514 20.2527C35.7072 20.1861 35.7828 20.0907 35.8206 20.0367C35.8566 19.9845 35.9178 19.8945 35.9538 19.8369C35.9898 19.7793 36.0438 19.6839 36.0744 19.6263C36.105 19.5687 36.1482 19.4769 36.1734 19.4229C36.1968 19.3689 36.2346 19.2735 36.2562 19.2123C36.2796 19.1511 36.3102 19.0557 36.3264 19.0017C36.3408 18.9477 36.3642 18.8559 36.3768 18.8001C36.3894 18.7443 36.4092 18.6417 36.42 18.5751C36.429 18.5085 36.4434 18.4023 36.4506 18.3411C36.456 18.2799 36.4614 18.1251 36.4614 17.9991C36.4614 17.8731 36.456 17.7201 36.4506 17.6571C36.4434 17.5959 36.4326 17.5005 36.4254 17.4465C36.4164 17.3925 36.402 17.3061 36.3912 17.2557C36.3804 17.2035 36.3624 17.1207 36.3498 17.0721C36.3372 17.0235 36.3066 16.9227 36.2814 16.8471C36.2562 16.7733 36.2166 16.6653 36.1914 16.6095C36.168 16.5519 36.123 16.4583 36.0924 16.3989C36.0618 16.3395 36.0024 16.2315 35.9574 16.1595C35.9124 16.0875 35.835 15.9741 35.7846 15.9075C35.7342 15.8409 35.646 15.7329 35.5902 15.6681C35.5326 15.6033 35.4444 15.5115 35.394 15.4611C35.3436 15.4125 35.2626 15.3369 35.214 15.2937C35.1636 15.2505 35.0754 15.1803 35.016 15.1353C34.9584 15.0903 34.8666 15.0273 34.8162 14.9931C34.764 14.9589 34.6848 14.9103 34.638 14.8833C34.5912 14.8581 34.4958 14.8095 34.4274 14.7753C34.3572 14.7429 34.26 14.6997 34.2114 14.6799C34.1628 14.6619 34.0854 14.6331 34.0386 14.6187C33.9918 14.6025 33.9072 14.5791 33.8514 14.5629C33.7956 14.5485 33.7038 14.5269 33.6498 14.5161C33.5958 14.5053 33.4878 14.4891 33.4122 14.4783C33.3006 14.4639 33.2088 14.4585 32.9712 14.4567C32.8074 14.4549 32.6526 14.4549 32.6292 14.4567Z" fill="black"/>
        <path d="M48.0966 14.5879C48.066 14.5951 48.0192 14.6113 47.994 14.6221C47.9688 14.6329 47.2686 15.0901 46.4406 15.6391C45.6126 16.1863 44.7162 16.7803 44.4516 16.9549C43.9908 17.2609 43.9674 17.2789 43.9116 17.3437C43.881 17.3833 43.836 17.4445 43.8108 17.4805C43.7856 17.5165 43.7424 17.5921 43.7154 17.6479C43.6884 17.7055 43.6542 17.7937 43.6398 17.8441L43.6146 17.9377L43.6092 22.4611C43.6398 22.6051 43.6596 22.6789 43.674 22.7185C43.6866 22.7563 43.7136 22.8139 43.7316 22.8427C43.7496 22.8733 43.7874 22.9183 43.8144 22.9453C43.845 22.9723 43.8882 22.9993 43.9188 23.0101C43.953 23.0227 43.9926 23.0281 44.0448 23.0281C44.0862 23.0281 44.1474 23.0227 44.1798 23.0137C44.214 23.0047 44.2752 22.9813 44.3166 22.9633C44.358 22.9453 44.7954 22.6735 45.3318 22.3351C45.8484 22.0075 46.6296 21.5107 47.067 21.2335C47.5062 20.9563 47.886 20.7115 47.9148 20.6881C47.9418 20.6629 47.9976 20.6071 48.039 20.5603C48.0804 20.5135 48.1434 20.4289 48.1812 20.3731C48.219 20.3155 48.2766 20.2165 48.3054 20.1535C48.336 20.0887 48.3774 19.9897 48.3954 19.9321C48.4152 19.8763 48.4404 19.7827 48.453 19.7269L48.4764 19.6243C48.4764 17.8063 48.4746 17.5975 48.4638 17.5975C48.4584 17.5975 48.0642 17.8351 47.5872 18.1249L46.7214 18.6523L46.716 19.9519C45.951 20.4631 45.7098 20.6179 45.6864 20.6251C45.6648 20.6341 45.627 20.6395 45.6054 20.6395C45.5748 20.6395 45.5586 20.6341 45.537 20.6143C45.5208 20.5999 45.501 20.5765 45.4938 20.5621C45.4866 20.5477 45.4776 20.5171 45.4722 20.4937C45.4668 20.4721 45.4578 20.4109 45.4524 20.3605C45.4488 20.3101 45.4362 19.7503 45.4254 19.1131C45.4074 18.0583 45.4056 17.9521 45.42 17.8945C45.4272 17.8585 45.447 17.8063 45.4614 17.7775C45.4758 17.7469 45.501 17.7091 45.5154 17.6911C45.5298 17.6731 45.7962 17.4715 46.1076 17.2411C46.419 17.0107 46.6908 16.8145 46.7124 16.8037C46.7322 16.7929 46.7682 16.7803 46.7898 16.7731C46.8204 16.7659 46.8348 16.7659 46.8618 16.7767C46.8798 16.7857 46.9014 16.8037 46.9104 16.8217C46.923 16.8451 46.9284 16.8811 46.9302 16.9873C46.932 17.0629 46.9356 17.1295 46.9374 17.1349C46.9392 17.1421 47.2326 16.9531 47.7096 16.6345L48.4764 16.1215V14.7643C48.435 14.6923 48.4062 14.6545 48.3846 14.6365C48.3612 14.6149 48.3252 14.5951 48.2964 14.5861C48.2694 14.5789 48.2262 14.5735 48.201 14.5735C48.174 14.5735 48.129 14.5807 48.0966 14.5879ZM32.7678 14.7931C32.7642 14.7985 32.7894 14.8327 32.8236 14.8723C32.8578 14.9101 32.9244 14.9893 32.9712 15.0451C33.0198 15.1027 33.1044 15.2089 33.1602 15.2845C33.216 15.3583 33.306 15.4825 33.3564 15.5599C33.4086 15.6373 33.4842 15.7579 33.5256 15.8281C33.567 15.8965 33.6282 16.0063 33.6624 16.0711C33.6966 16.1359 33.7488 16.2421 33.7794 16.3087C33.81 16.3771 33.8586 16.4905 33.8856 16.5625C33.9144 16.6345 33.9576 16.7515 33.981 16.8235C34.0044 16.8973 34.0332 16.9927 34.0476 17.0395C34.0602 17.0863 34.0854 17.1889 34.1034 17.2699C34.1214 17.3491 34.143 17.4697 34.1538 17.5363C34.1646 17.6029 34.1808 17.7145 34.1898 17.7847C34.1988 17.8621 34.206 18.0259 34.2096 18.2149C34.2114 18.4057 34.2096 18.5713 34.2042 18.6595C34.197 18.7369 34.1898 18.8215 34.1862 18.8467C34.1826 18.8863 34.1844 18.8953 34.1988 18.9007C34.2096 18.9061 34.2204 18.9043 34.2276 18.8953C34.233 18.8899 34.2672 18.8323 34.305 18.7675C34.341 18.7027 34.3986 18.5893 34.431 18.5137C34.4634 18.4399 34.5066 18.3283 34.5282 18.2671C34.5498 18.2041 34.5786 18.1033 34.5948 18.0421C34.6092 17.9791 34.6308 17.8765 34.6416 17.8117C34.6524 17.7469 34.665 17.6407 34.6722 17.5741C34.6776 17.4985 34.6812 17.3671 34.6776 17.2321C34.674 17.1115 34.665 16.9585 34.656 16.8937C34.6488 16.8307 34.6308 16.7209 34.6182 16.6543C34.6056 16.5859 34.5786 16.4653 34.5588 16.3861C34.539 16.3087 34.503 16.1827 34.4778 16.1089C34.4544 16.0333 34.4076 15.9055 34.3752 15.8227C34.3428 15.7399 34.2906 15.6139 34.26 15.5419C34.2276 15.4699 34.1556 15.3241 34.1016 15.2179C34.0476 15.1135 33.9936 15.0091 33.9828 14.9875C33.9648 14.9497 33.963 14.9497 33.8604 14.9209C33.8046 14.9047 33.7326 14.8849 33.702 14.8777C33.6714 14.8705 33.6012 14.8561 33.5472 14.8453C33.4932 14.8345 33.396 14.8201 33.3312 14.8111C33.2682 14.8021 33.1152 14.7931 32.9946 14.7913C32.8704 14.7877 32.7714 14.7895 32.7678 14.7931ZM32.2602 14.8507C32.2494 14.8525 32.1972 14.8651 32.1432 14.8777C32.0892 14.8921 32.0046 14.9155 31.956 14.9299C31.9074 14.9461 31.8192 14.9767 31.7598 15.0001C31.7004 15.0235 31.5906 15.0739 31.5168 15.1099C31.4412 15.1477 31.3404 15.2035 31.2918 15.2323C31.2432 15.2629 31.164 15.3151 31.119 15.3475C31.0722 15.3781 30.9966 15.4357 30.948 15.4735C30.9012 15.5113 30.8418 15.5617 30.813 15.5869L30.7626 15.6337C30.7734 16.0477 30.7824 16.2295 30.7896 16.3051C30.7986 16.3789 30.8112 16.4887 30.8184 16.5481C30.8274 16.6075 30.8436 16.7101 30.858 16.7767C30.8706 16.8451 30.894 16.9495 30.9084 17.0125C30.9246 17.0737 30.9516 17.1727 30.9696 17.2321C30.9876 17.2915 31.0272 17.3977 31.0542 17.4697C31.083 17.5417 31.1334 17.6551 31.1658 17.7217C31.1982 17.7865 31.2504 17.8783 31.2792 17.9269C31.308 17.9737 31.3602 18.0511 31.3926 18.0979C31.425 18.1447 31.4808 18.2149 31.5168 18.2563C31.551 18.2977 31.6302 18.3805 31.6914 18.4399C31.7526 18.4993 31.8462 18.5803 31.9002 18.6217C31.9542 18.6631 32.046 18.7261 32.1054 18.7639C32.1648 18.7999 32.262 18.8539 32.3214 18.8845C32.3808 18.9133 32.4726 18.9565 32.5266 18.9781C32.5806 18.9997 32.6778 19.0357 32.7426 19.0573C32.8074 19.0789 32.91 19.1077 32.9712 19.1239C33.0342 19.1401 33.1224 19.1599 33.171 19.1707L33.2574 19.1887C33.3258 19.1329 33.3654 19.1041 33.3888 19.0879C33.4104 19.0735 33.4572 19.0465 33.4878 19.0303C33.5202 19.0141 33.576 18.9907 33.6102 18.9763C33.6444 18.9637 33.7056 18.9421 33.7434 18.9313L33.8136 18.9097C33.8316 18.7747 33.8406 18.6685 33.846 18.5893C33.8514 18.5101 33.8568 18.3679 33.8568 18.2761C33.8568 18.1825 33.8514 18.0475 33.846 17.9755C33.8406 17.9035 33.8298 17.7919 33.8226 17.7271C33.8136 17.6641 33.7974 17.5543 33.7848 17.4841C33.7722 17.4157 33.7452 17.2915 33.7254 17.2087C33.7056 17.1259 33.6678 16.9945 33.6426 16.9171C33.6174 16.8415 33.5724 16.7173 33.5418 16.6417C33.513 16.5679 33.4518 16.4293 33.4068 16.3375C33.3618 16.2439 33.2934 16.1125 33.252 16.0423C33.2124 15.9739 33.1404 15.8551 33.0918 15.7795C33.0414 15.7057 32.9604 15.5869 32.9082 15.5185C32.856 15.4483 32.7786 15.3475 32.7336 15.2935C32.6904 15.2395 32.6184 15.1549 32.5752 15.1063C32.532 15.0577 32.4582 14.9785 32.4132 14.9299C32.3466 14.8597 32.325 14.8435 32.3052 14.8453C32.2908 14.8453 32.271 14.8489 32.2602 14.8507ZM34.5012 15.2629C34.521 15.3025 34.5606 15.3907 34.5912 15.4573C34.62 15.5239 34.6704 15.6463 34.7028 15.7291C34.7352 15.8119 34.7838 15.9433 34.809 16.0243C34.836 16.1035 34.8684 16.2097 34.881 16.2583C34.8954 16.3069 34.9188 16.3987 34.9332 16.4635C34.9476 16.5283 34.971 16.6471 34.9836 16.7263C34.9962 16.8055 35.0124 16.9171 35.0178 16.9747C35.025 17.0359 35.0304 17.1835 35.0304 17.3437C35.0304 17.5435 35.025 17.6407 35.0124 17.7325C35.0034 17.7991 34.9872 17.9053 34.9746 17.9665C34.962 18.0277 34.9368 18.1339 34.9188 18.2005C34.899 18.2671 34.863 18.3787 34.8378 18.4489C34.8108 18.5191 34.7586 18.6379 34.7226 18.7153C34.6848 18.7927 34.62 18.9133 34.5768 18.9817L34.5012 19.1095C34.5642 19.0969 34.6326 19.0771 34.6938 19.0573C34.755 19.0357 34.8504 18.9961 34.9044 18.9691C34.9584 18.9421 35.0376 18.8971 35.0826 18.8683C35.1258 18.8395 35.2014 18.7819 35.25 18.7405C35.3004 18.7009 35.3742 18.6307 35.4138 18.5857C35.4552 18.5407 35.5236 18.4579 35.565 18.4039C35.6064 18.3481 35.6676 18.2581 35.7018 18.2005C35.736 18.1447 35.79 18.0421 35.8242 17.9755C35.8584 17.9089 35.9124 17.7847 35.9466 17.7001C35.979 17.6155 36.0204 17.5003 36.0366 17.4463C36.0654 17.3527 36.0654 17.3455 36.0546 17.2879C36.0492 17.2537 36.0276 17.1673 36.0078 17.0953C35.9862 17.0233 35.9502 16.9135 35.9268 16.8523C35.9034 16.7911 35.8602 16.6903 35.8314 16.6273C35.8026 16.5661 35.7486 16.4653 35.7126 16.4023C35.6748 16.3411 35.6118 16.2439 35.5722 16.1863C35.5326 16.1287 35.4624 16.0387 35.4192 15.9847C35.3742 15.9307 35.295 15.8443 35.2446 15.7903C35.1924 15.7363 35.1006 15.6481 35.0412 15.5923C34.98 15.5383 34.8756 15.4519 34.8072 15.4015C34.737 15.3493 34.638 15.2809 34.584 15.2485C34.5318 15.2161 34.4832 15.1909 34.476 15.1909C34.4688 15.1909 34.4778 15.2179 34.5012 15.2629ZM30.3576 16.0783C30.327 16.1179 30.2622 16.2097 30.2154 16.2817C30.1686 16.3537 30.0894 16.4923 30.0426 16.5895C29.994 16.6885 29.94 16.8073 29.922 16.8577C29.904 16.9063 29.8734 16.9945 29.8572 17.0539C29.8392 17.1133 29.8122 17.2105 29.7996 17.2699C29.787 17.3275 29.7672 17.4355 29.7564 17.5075C29.7456 17.5795 29.733 17.7235 29.7294 17.8261C29.7222 17.9503 29.7222 18.0673 29.7294 18.1717C29.733 18.2599 29.742 18.3697 29.7474 18.4165C29.7528 18.4615 29.7672 18.5515 29.7798 18.6127C29.7924 18.6739 29.8068 18.7405 29.8122 18.7603C29.8212 18.7927 29.8356 18.8035 29.9688 18.8917C30.0498 18.9457 30.1686 19.0195 30.2334 19.0573C30.2982 19.0951 30.426 19.1635 30.5196 19.2085C30.6114 19.2553 30.75 19.3165 30.8274 19.3471C30.9048 19.3777 31.0236 19.4191 31.0902 19.4407C31.1568 19.4623 31.2684 19.4947 31.3386 19.5109C31.407 19.5289 31.5168 19.5505 31.5816 19.5613C31.6464 19.5721 31.758 19.5883 31.83 19.5955C31.9056 19.6045 32.0514 19.6099 32.1774 19.6099C32.3088 19.6099 32.451 19.6045 32.5338 19.5955C32.6094 19.5883 32.7102 19.5757 32.757 19.5667C32.802 19.5595 32.883 19.5451 32.9334 19.5343C32.9856 19.5235 33.0342 19.5109 33.0414 19.5073C33.054 19.5001 33.0522 19.4983 33.0378 19.4947C33.027 19.4911 32.9874 19.4821 32.9478 19.4731C32.91 19.4659 32.811 19.4389 32.7282 19.4155C32.6454 19.3921 32.5284 19.3543 32.4654 19.3309C32.4042 19.3075 32.3034 19.2661 32.2422 19.2391C32.1792 19.2103 32.082 19.1617 32.0262 19.1311C31.9704 19.1005 31.8768 19.0429 31.821 19.0069C31.7634 18.9691 31.6752 18.9043 31.623 18.8647C31.5726 18.8233 31.488 18.7495 31.4376 18.7009C31.3872 18.6523 31.3098 18.5731 31.2684 18.5245C31.2252 18.4741 31.1622 18.3949 31.1262 18.3463C31.0902 18.2977 31.0344 18.2167 31.0038 18.1681C30.9732 18.1195 30.9228 18.0313 30.8904 17.9719C30.8598 17.9125 30.8094 17.8081 30.7806 17.7415C30.7518 17.6749 30.7014 17.5399 30.669 17.4427C30.6366 17.3437 30.5952 17.2033 30.5772 17.1295C30.5592 17.0539 30.534 16.9351 30.5196 16.8667C30.507 16.7965 30.4908 16.6939 30.4818 16.6363C30.4746 16.5805 30.462 16.4725 30.4548 16.3987C30.4458 16.3231 30.4386 16.2061 30.435 16.1377C30.4332 16.0693 30.4278 16.0117 30.4224 16.0099C30.417 16.0081 30.3882 16.0387 30.3576 16.0783ZM50.2008 17.7685L49.4682 18.2293C49.4682 19.3507 49.4718 19.6765 49.4754 19.6783C49.479 19.6801 49.812 19.4659 50.2134 19.2031L50.9424 18.7243C50.946 17.6263 50.9442 17.3059 50.9406 17.3059C50.937 17.3077 50.604 17.5147 50.2008 17.7685ZM36.0798 18.2293C36.06 18.2653 36.0258 18.3247 36.006 18.3607C35.9844 18.3967 35.9394 18.4669 35.9052 18.5191C35.871 18.5713 35.8098 18.6541 35.7684 18.7063C35.727 18.7585 35.655 18.8395 35.6046 18.8881C35.556 18.9385 35.4822 19.0051 35.4426 19.0375C35.4012 19.0717 35.3274 19.1239 35.2788 19.1563C35.2302 19.1887 35.1474 19.2355 35.097 19.2625C35.0448 19.2877 34.962 19.3237 34.9134 19.3435C34.8648 19.3615 34.7784 19.3885 34.7226 19.4047C34.665 19.4191 34.5912 19.4353 34.5588 19.4407C34.5246 19.4461 34.4886 19.4533 34.4778 19.4551C34.4688 19.4569 34.4526 19.4713 34.4436 19.4875C34.4346 19.5037 34.4274 19.5181 34.4274 19.5217C34.4274 19.5235 34.476 19.5577 34.5372 19.5991C34.5984 19.6387 34.683 19.6909 34.7262 19.7143C34.7712 19.7395 34.8504 19.7755 34.9044 19.7971C34.9584 19.8187 35.0484 19.8493 35.106 19.8637C35.1618 19.8781 35.2572 19.8943 35.3166 19.8997C35.376 19.9051 35.4408 19.9087 35.4606 19.9087C35.4948 19.9051 35.502 19.8997 35.547 19.8385C35.574 19.8025 35.6226 19.7323 35.655 19.6801C35.6856 19.6279 35.7324 19.5487 35.7576 19.5019C35.7846 19.4551 35.826 19.3687 35.8548 19.3093C35.8818 19.2517 35.9232 19.1473 35.9484 19.0807C35.9718 19.0141 36.0078 18.8953 36.0276 18.8179C36.0474 18.7405 36.0726 18.6271 36.0834 18.5659C36.0924 18.5047 36.1068 18.4075 36.1122 18.3499C36.1176 18.2941 36.1212 18.2293 36.1194 18.2059L36.1158 18.1627L36.0798 18.2293ZM33.8838 19.1275C33.8514 19.1347 33.7956 19.1491 33.7632 19.1599C33.729 19.1725 33.6552 19.2049 33.5994 19.2337C33.5166 19.2769 33.4806 19.3021 33.4176 19.3615C33.3744 19.4029 33.3312 19.4533 33.3222 19.4749C33.3114 19.4947 33.3042 19.5271 33.3042 19.5451C33.3042 19.5631 33.3132 19.5901 33.324 19.6099C33.3366 19.6279 33.3672 19.6531 33.3924 19.6675C33.4212 19.6819 33.4644 19.6927 33.5058 19.6981C33.5436 19.7017 33.603 19.6999 33.6462 19.6945C33.6858 19.6891 33.7578 19.6747 33.8046 19.6603C33.8514 19.6477 33.9324 19.6153 33.9864 19.5883C34.0728 19.5469 34.0962 19.5307 34.17 19.4551C34.2186 19.4065 34.2636 19.3525 34.2744 19.3255C34.287 19.3021 34.296 19.2679 34.296 19.2499C34.296 19.2265 34.2888 19.2067 34.2708 19.1869C34.2564 19.1725 34.2222 19.1509 34.1934 19.1401C34.1574 19.1275 34.1124 19.1203 34.044 19.1167C33.9828 19.1149 33.9216 19.1185 33.8838 19.1275ZM30.0102 19.3345C30.0102 19.3399 30.0372 19.3957 30.0714 19.4605C30.1056 19.5235 30.1614 19.6207 30.1956 19.6747C30.2298 19.7287 30.2874 19.8133 30.3234 19.8619C30.3594 19.9123 30.4278 19.9951 30.4746 20.0491C30.5214 20.1031 30.588 20.1787 30.624 20.2147L30.687 20.2795C30.84 20.3047 30.9516 20.3191 31.0344 20.3299C31.1172 20.3407 31.2432 20.3533 31.3152 20.3587C31.3872 20.3641 31.524 20.3677 31.6194 20.3677C31.7148 20.3677 31.8426 20.3641 31.9038 20.3587C31.9668 20.3533 32.0604 20.3425 32.1144 20.3353C32.1684 20.3263 32.262 20.3101 32.3214 20.2975C32.3808 20.2831 32.4924 20.2525 32.5698 20.2273C32.6454 20.2003 32.7642 20.1535 32.8308 20.1211C32.8974 20.0887 32.991 20.0365 33.0378 20.0059C33.0828 19.9753 33.144 19.9321 33.1728 19.9105L33.225 19.8691C33.1764 19.8403 33.153 19.8349 33.1422 19.8367C33.1296 19.8403 33.0468 19.8565 32.9568 19.8745C32.8668 19.8943 32.7282 19.9177 32.649 19.9285C32.5464 19.9429 32.4294 19.9501 32.2512 19.9537C32.0568 19.9573 31.9614 19.9555 31.839 19.9429C31.7508 19.9339 31.6302 19.9195 31.5672 19.9087C31.506 19.8979 31.407 19.8799 31.3476 19.8655C31.2882 19.8529 31.1766 19.8241 31.0992 19.8025C31.0218 19.7791 30.8994 19.7395 30.8274 19.7125C30.7554 19.6855 30.6528 19.6441 30.5988 19.6225C30.5448 19.5991 30.4458 19.5523 30.3792 19.5199C30.3126 19.4875 30.2064 19.4335 30.1452 19.3975C30.0822 19.3633 30.0282 19.3345 30.0228 19.3309C30.0174 19.3291 30.012 19.3309 30.0102 19.3345ZM38.0778 21.0121L35.5002 22.6843C35.502 23.5339 35.5056 23.7841 35.5074 23.7877C35.511 23.7913 35.673 23.6977 35.8692 23.5789L36.2238 23.3647L36.2202 27.0583L35.529 27.5263C35.5398 28.3237 35.5452 28.5595 35.5488 28.5613C35.5524 28.5649 36.3192 28.0843 37.2534 27.4939L38.9526 26.4211C38.9562 25.5409 38.9544 25.3591 38.9472 25.3591C38.9436 25.3591 38.742 25.4851 38.5026 25.6399C38.2632 25.7947 38.0634 25.9207 38.058 25.9207C38.0526 25.9207 38.049 25.6849 38.049 25.2295V24.5401L38.9382 23.9641C38.9382 24.6247 38.9418 24.7021 38.9508 24.7003C38.9562 24.6985 39.165 24.5617 39.4134 24.3961L39.8652 24.0937C39.8652 22.3099 39.8616 21.7915 39.858 21.7915C39.8544 21.7915 39.6636 21.9211 39.435 22.0795L39.0174 22.3675L39.0138 22.7887C38.3208 23.1883 38.1012 23.3143 38.076 23.3287L38.031 23.3557V22.1803C38.9688 21.5557 39.2442 21.3739 39.2514 21.3721C39.2568 21.3703 39.3324 21.4027 39.4206 21.4459C39.5664 21.5161 39.5808 21.5215 39.5988 21.5089C39.6096 21.5017 39.8562 21.3433 40.1442 21.1543L40.6698 20.8123C40.6698 19.6693 40.6662 19.3381 40.6626 19.3381C40.659 19.3381 39.4962 20.0905 38.0778 21.0121ZM34.1286 19.7719C34.1034 19.7881 34.098 19.7971 34.1034 19.8151C34.107 19.8295 34.1106 19.9231 34.1142 20.0257C34.1178 20.1481 34.116 20.2507 34.1088 20.3173C34.1034 20.3731 34.0908 20.4613 34.08 20.5135C34.0692 20.5639 34.044 20.6575 34.0242 20.7187C34.0026 20.7817 33.9612 20.8807 33.9306 20.9419C33.9 21.0013 33.8766 21.0535 33.8766 21.0571C33.8784 21.0589 33.9342 21.0427 34.0008 21.0175C34.0674 20.9941 34.1736 20.9527 34.2348 20.9239C34.2978 20.8969 34.3932 20.8483 34.4508 20.8159C34.5066 20.7853 34.5984 20.7295 34.6524 20.6935C34.7064 20.6575 34.7838 20.6017 34.8252 20.5711C34.8666 20.5405 34.9404 20.4793 34.989 20.4379C35.0376 20.3947 35.1078 20.3335 35.1438 20.2993C35.205 20.2417 35.2068 20.2381 35.1852 20.2345C35.1726 20.2309 35.1204 20.2201 35.0682 20.2075C35.016 20.1967 34.9368 20.1751 34.89 20.1589C34.8432 20.1445 34.7676 20.1157 34.7226 20.0941C34.6758 20.0725 34.6002 20.0347 34.5534 20.0095C34.5066 19.9843 34.431 19.9375 34.3842 19.9069C34.3392 19.8763 34.2708 19.8277 34.2348 19.8007C34.1988 19.7737 34.1682 19.7503 34.1646 19.7521C34.1628 19.7521 34.1466 19.7611 34.1286 19.7719ZM49.4826 20.7727L47.967 21.7483C47.9706 37.2949 47.9742 40.4143 47.9796 40.4143C47.985 40.4143 48.0678 40.4053 48.165 40.3945C48.2622 40.3855 48.4224 40.3657 48.5232 40.3531C48.624 40.3405 48.8004 40.3135 48.9156 40.2955C49.0326 40.2775 49.2504 40.2379 49.4034 40.2073C49.5546 40.1785 49.7832 40.1281 49.9092 40.0975C50.0352 40.0651 50.2206 40.0165 50.3196 39.9877C50.4204 39.9589 50.6094 39.8995 50.7408 39.8563C50.8722 39.8131 50.9874 39.7717 50.9964 39.7663C51.0108 39.7537 51.0126 39.1957 51.0144 29.7763C51.0162 23.1271 51.0144 19.7971 51.009 19.7971C51.0036 19.7971 50.316 20.2363 49.4826 20.7727ZM33.6948 19.9159C33.6642 19.9195 33.6462 19.9321 33.5688 20.0131C33.5184 20.0653 33.4392 20.1391 33.3924 20.1751C33.3456 20.2129 33.27 20.2687 33.225 20.3011C33.1782 20.3317 33.0882 20.3839 33.0234 20.4181C32.9586 20.4505 32.8578 20.4973 32.7984 20.5207C32.739 20.5441 32.64 20.5783 32.5788 20.5963C32.5158 20.6143 32.4132 20.6395 32.3484 20.6521C32.2854 20.6665 32.1648 20.6863 32.082 20.6971C31.956 20.7151 31.8786 20.7187 31.5996 20.7205C31.4178 20.7223 31.2684 20.7259 31.2684 20.7313C31.2666 20.7349 31.2846 20.7493 31.3044 20.7619C31.326 20.7745 31.3836 20.8069 31.4322 20.8339C31.4808 20.8609 31.569 20.9041 31.6284 20.9293C31.6878 20.9563 31.7904 20.9959 31.857 21.0193C31.9254 21.0427 32.0262 21.0751 32.082 21.0895C32.1396 21.1039 32.2278 21.1255 32.2782 21.1345C32.3304 21.1453 32.4186 21.1597 32.4762 21.1669C32.532 21.1759 32.6418 21.1867 32.7192 21.1921C32.829 21.2011 32.91 21.2011 33.0918 21.1903L33.324 21.1777C33.4428 21.0553 33.5004 20.9869 33.5274 20.9491C33.5544 20.9095 33.5922 20.8483 33.612 20.8123C33.6318 20.7763 33.6642 20.7079 33.6822 20.6593C33.702 20.6089 33.7272 20.5261 33.7398 20.4703C33.7524 20.4163 33.7668 20.3281 33.7722 20.2741C33.7776 20.2201 33.7812 20.1427 33.7812 20.1013C33.7812 20.0599 33.7794 20.0005 33.7776 19.9681C33.774 19.9123 33.7722 19.9087 33.7524 19.9105C33.7398 19.9123 33.7146 19.9141 33.6948 19.9159ZM41.8056 23.1055L41.073 23.5663C41.073 24.6859 41.0748 25.0117 41.0766 25.0117C41.0802 25.0117 41.406 24.8011 41.8002 24.5419C42.1962 24.2845 42.5256 24.0667 42.5346 24.0577C42.5508 24.0433 42.5526 24.0037 42.5526 23.3431C42.5508 22.9579 42.549 22.6429 42.5436 22.6429C42.54 22.6429 42.2088 22.8517 41.8056 23.1055ZM43.422 24.6967L41.91 25.6723L41.9064 42.1549C41.9604 42.1243 42.0432 42.0775 42.126 42.0289C42.2088 41.9821 42.333 41.9119 42.4014 41.8741C42.4716 41.8363 42.639 41.7517 42.7758 41.6833C42.9126 41.6149 43.1088 41.5231 43.2114 41.4781C43.314 41.4313 43.4958 41.3557 43.6146 41.3071C43.7316 41.2603 43.9296 41.1847 44.0538 41.1415C44.178 41.0983 44.3814 41.0299 44.5074 40.9921C44.6334 40.9525 44.7792 40.9093 44.8314 40.8949C44.8818 40.8805 44.9268 40.8679 44.9304 40.8643C44.9358 40.8607 44.9376 37.0033 44.9358 32.2909L44.934 23.7211L43.422 24.6967ZM31.5492 25.3123C31.5132 25.3159 31.4556 25.3267 31.4232 25.3339C31.3674 25.3465 31.1748 25.4635 29.508 26.4967C28.4892 27.1285 27.618 27.6739 27.5712 27.7081C27.5244 27.7441 27.4578 27.8017 27.4218 27.8359C27.3858 27.8719 27.339 27.9259 27.3156 27.9565C27.2922 27.9871 27.2616 28.0357 27.2472 28.0645C27.2328 28.0933 27.2148 28.1383 27.2058 28.1671C27.1932 28.2121 27.1914 28.2661 27.1914 28.5793C27.1932 28.7773 27.1968 29.2687 27.2004 29.6701L27.2076 30.4009C27.2454 30.5269 27.2652 30.5809 27.276 30.6025C27.2868 30.6223 27.312 30.6583 27.3336 30.6817C27.357 30.7069 27.3912 30.7339 27.411 30.7447C27.4326 30.7555 27.474 30.7663 27.5046 30.7717C27.5424 30.7771 27.5838 30.7771 27.6324 30.7699C27.6702 30.7645 27.7368 30.7465 27.7818 30.7303C27.825 30.7159 27.8952 30.6853 27.9366 30.6655C27.9762 30.6439 28.0536 30.6025 28.104 30.5701C28.1562 30.5395 28.2354 30.4891 28.2822 30.4567C28.329 30.4243 28.7016 30.1849 29.1102 29.9257C29.589 29.6197 29.8752 29.4433 29.9112 29.4307C29.9418 29.4199 29.9994 29.4019 30.0372 29.3929C30.0804 29.3821 30.138 29.3749 30.1866 29.3749C30.2424 29.3749 30.2784 29.3803 30.3036 29.3929C30.3252 29.4019 30.3522 29.4235 30.3666 29.4397L30.3936 29.4685V30.7195C29.3172 31.4413 29.1192 31.5673 29.0832 31.5799C29.049 31.5907 29.0184 31.5943 28.9986 31.5907C28.9806 31.5871 28.959 31.5799 28.9518 31.5727C28.9464 31.5673 28.9338 31.5493 28.9248 31.5331C28.9104 31.5097 28.9086 31.4485 28.905 31.0597L28.8996 30.6133L27.1914 31.6735C27.1968 33.0955 27.2004 33.1891 27.2148 33.2467C27.222 33.2827 27.2418 33.3367 27.2562 33.3691C27.2706 33.3997 27.2994 33.4429 27.3192 33.4663C27.3408 33.4897 27.3786 33.5185 27.4038 33.5293C27.429 33.5401 27.4704 33.5527 27.4956 33.5563C27.5208 33.5599 27.5748 33.5581 27.6126 33.5509C27.6522 33.5455 27.7152 33.5293 27.753 33.5167C27.7926 33.5041 27.8484 33.4789 27.879 33.4627C27.9114 33.4465 28.5486 33.0379 29.2974 32.5537C30.0462 32.0713 30.849 31.5529 31.0812 31.4035C31.3134 31.2541 31.5456 31.1047 31.5996 31.0705C31.6536 31.0363 31.7202 30.9877 31.749 30.9625C31.776 30.9373 31.8174 30.8905 31.8408 30.8599C31.8642 30.8275 31.8984 30.7717 31.9182 30.7321C31.938 30.6943 31.965 30.6295 31.9794 30.5881C31.992 30.5467 32.0118 30.4729 32.0208 30.4243C32.0316 30.3757 32.0442 30.2731 32.0496 30.1993C32.0568 30.1021 32.0568 29.8015 32.0478 29.1301L32.0352 28.1995C31.9704 28.1149 31.9254 28.0663 31.893 28.0375C31.8624 28.0087 31.8138 27.9709 31.7868 27.9547C31.758 27.9385 31.7112 27.9133 31.6806 27.9007C31.6482 27.8881 31.5906 27.8701 31.5492 27.8629C31.4916 27.8503 31.4448 27.8485 31.353 27.8521C31.2612 27.8557 31.2036 27.8629 31.1226 27.8845C31.0632 27.8989 30.975 27.9277 30.9264 27.9493C30.8616 27.9745 30.6096 28.1239 30.0192 28.4875C29.4252 28.8511 29.1876 28.9933 29.1552 29.0005C29.13 29.0059 29.0976 29.0077 29.0796 29.0041C29.0634 29.0005 29.0364 28.9915 29.022 28.9825C29.0058 28.9717 28.9824 28.9447 28.9698 28.9195C28.9554 28.8943 28.9428 28.8637 28.9392 28.8511C28.9356 28.8385 28.932 28.6657 28.932 28.4677L28.9284 28.1059C28.968 28.0267 28.9986 27.9799 29.0238 27.9529C29.049 27.9241 29.103 27.8755 29.1426 27.8449C29.184 27.8125 29.4036 27.6667 29.6304 27.5209C29.8572 27.3751 30.0624 27.2437 30.0894 27.2293C30.1146 27.2149 30.1614 27.1969 30.192 27.1897C30.228 27.1789 30.2604 27.1771 30.2856 27.1807C30.3054 27.1843 30.3342 27.1987 30.3504 27.2113C30.3648 27.2257 30.3846 27.2527 30.3936 27.2725C30.4098 27.3049 30.4116 27.3391 30.4116 27.5191C30.4116 27.6343 30.4152 27.7279 30.4188 27.7279C30.4224 27.7279 30.7914 27.5011 31.2396 27.2239L32.055 26.7199C32.0586 25.7245 32.0568 25.6579 32.0442 25.6165C32.0352 25.5895 32.0136 25.5391 31.9938 25.5049C31.9758 25.4689 31.9398 25.4185 31.9164 25.3933C31.8822 25.3591 31.8588 25.3447 31.8138 25.3321C31.7814 25.3213 31.7238 25.3123 31.6842 25.3087C31.6464 25.3069 31.5852 25.3069 31.5492 25.3123ZM54.0492 31.9345C54.0492 35.8135 54.0528 37.7647 54.06 37.7665C54.0654 37.7665 54.1104 37.7197 54.1626 37.6603C54.213 37.6027 54.303 37.4929 54.3624 37.4173C54.4236 37.3435 54.5118 37.2265 54.5604 37.1599C54.609 37.0933 54.6936 36.9709 54.7476 36.8881C54.8034 36.8071 54.888 36.6721 54.9366 36.5893C54.9852 36.5065 55.0464 36.4021 55.0734 36.3553C55.0986 36.3085 55.1544 36.2005 55.1976 36.1159C55.2426 36.0313 55.3092 35.8927 55.3488 35.8081C55.3884 35.7217 55.4478 35.5885 55.4802 35.5075C55.5144 35.4283 55.5684 35.2897 55.6008 35.1997C55.635 35.1079 55.6836 34.9711 55.7106 34.8937C55.7358 34.8181 55.7862 34.6579 55.8186 34.5391C55.8528 34.4203 55.8978 34.2565 55.9176 34.1737C55.9392 34.0909 55.9716 33.9451 55.9914 33.8515C56.013 33.7561 56.0436 33.5905 56.0616 33.4861C56.0796 33.3799 56.1048 33.2107 56.1192 33.1117C56.1318 33.0109 56.148 32.8597 56.1552 32.7733C56.1642 32.6887 56.175 32.5303 56.1804 32.4223C56.1876 32.3035 56.1894 32.0875 56.1858 31.8697C56.184 31.6735 56.175 31.4377 56.166 31.3405C56.1588 31.2469 56.1426 31.0957 56.1318 31.0093C56.1228 30.9211 56.103 30.7825 56.0904 30.6997C56.0778 30.6169 56.049 30.4639 56.0292 30.3577C56.0076 30.2533 55.9698 30.0823 55.9446 29.9797C55.9194 29.8753 55.8762 29.7133 55.8474 29.6179C55.8204 29.5225 55.7646 29.3515 55.725 29.2345C55.6854 29.1193 55.6188 28.9357 55.5756 28.8277C55.5342 28.7197 55.4658 28.5577 55.4262 28.4677C55.3866 28.3777 55.3146 28.2229 55.2678 28.1257C55.221 28.0267 55.1454 27.8773 55.0986 27.7927C55.0536 27.7081 54.9744 27.5641 54.9222 27.4741C54.8718 27.3841 54.7962 27.2563 54.7548 27.1897C54.7134 27.1213 54.6072 26.9575 54.519 26.8243C54.4308 26.6893 54.294 26.4751 54.213 26.3455C54.132 26.2177 54.0618 26.1115 54.0564 26.1097C54.051 26.1079 54.0474 28.1851 54.0492 31.9345ZM37.3488 28.6297L35.8404 29.6053V40.8733C35.9232 40.8949 36.0384 40.9291 36.15 40.9615C36.2598 40.9939 36.4362 41.0515 36.5424 41.0875C36.6486 41.1235 36.8016 41.1775 36.8844 41.2081C36.9672 41.2387 37.0968 41.2891 37.1742 41.3197C37.2516 41.3521 37.3776 41.4043 37.455 41.4367C37.5324 41.4709 37.653 41.5231 37.7214 41.5555C37.7916 41.5879 37.9554 41.6671 38.0868 41.7337C38.2182 41.7985 38.391 41.8885 38.4702 41.9335C38.5512 41.9767 38.67 42.0451 38.7366 42.0829L38.859 42.1549C38.868 38.6179 38.8716 35.3545 38.8716 32.6221C38.8716 29.8879 38.8698 27.6523 38.8662 27.6523C38.8626 27.6541 38.1804 28.0933 37.3488 28.6297ZM33.738 28.3021L33.009 28.7629C33.0054 29.8897 33.0072 30.2173 33.0108 30.2173C33.0144 30.2173 33.3438 30.0013 33.7434 29.7385C34.1412 29.4739 34.4688 29.2543 34.4706 29.2489C34.4724 29.2435 34.4724 28.9249 34.4706 28.5397L34.4688 27.8413L33.738 28.3021ZM31.2954 32.5447C30.4782 33.0721 29.796 33.5131 29.7816 33.5239L29.7564 33.5419L29.7618 39.7717C30.0084 39.8563 30.147 39.9031 30.2298 39.9283C30.3108 39.9535 30.4638 39.9967 30.5664 40.0255C30.669 40.0525 30.8346 40.0957 30.9336 40.1191C31.0326 40.1425 31.2072 40.1803 31.3224 40.2019C31.4358 40.2253 31.6212 40.2595 31.731 40.2775C31.8426 40.2955 32.0244 40.3225 32.1378 40.3387C32.2512 40.3531 32.4222 40.3747 32.5176 40.3855C32.613 40.3963 32.7156 40.4071 32.7444 40.4089L32.7984 40.4143C32.7984 33.5707 32.7948 31.5853 32.7912 31.5853C32.7876 31.5853 32.1144 32.0173 31.2954 32.5447ZM26.1618 35.8639C25.8666 36.0547 25.6236 36.2131 25.6218 36.2167C25.62 36.2203 25.6506 36.2815 25.6884 36.3499C25.7262 36.4201 25.7892 36.5317 25.8306 36.5983C25.8702 36.6649 25.9548 36.7999 26.0196 36.8989C26.0844 36.9961 26.1888 37.1437 26.25 37.2265C26.313 37.3093 26.394 37.4137 26.4318 37.4605C26.4696 37.5055 26.5488 37.5973 26.6064 37.6639C26.6622 37.7287 26.7126 37.7809 26.7162 37.7773C26.7198 37.7755 26.7234 37.2661 26.7234 36.6451C26.7234 35.7487 26.7216 35.5165 26.7126 35.5183C26.7054 35.5183 26.4588 35.6731 26.1618 35.8639Z" fill="white"/>
    </g>
    <defs>
        <clipPath id="clip0_825_33">
            <rect width="32.76" height="36" fill="white" transform="translate(24 8)"/>
        </clipPath>
    </defs>
</svg>
