<svg width="80" height="52" viewBox="0 0 80 52" fill="none" xmlns="http://www.w3.org/2000/svg">
    <path d="M78.6205 52H1.37937C0.617655 52 0 51.3872 0 50.6315V1.36848C0 0.612779 0.617655 0 1.37937 0H78.6206C79.3823 0 80 0.612779 80 1.36848V50.6315C79.9998 51.3874 79.3822 52 78.6205 52Z" fill="#F6F5F3"/>
    <path fill-rule="evenodd" clip-rule="evenodd" d="M1.37937 51.5938H78.6205C79.1569 51.5938 79.591 51.1625 79.5911 50.6315V1.36848C79.5911 0.83766 79.157 0.40625 78.6206 0.40625H1.37937C0.842981 0.40625 0.408931 0.837661 0.408931 1.36848V50.6315C0.408931 51.1623 0.842981 51.5938 1.37937 51.5938ZM1.37937 52H78.6205C79.3822 52 79.9998 51.3874 80 50.6315V1.36848C80 0.612779 79.3823 0 78.6206 0H1.37937C0.617655 0 0 0.612779 0 1.36848V50.6315C0 51.3872 0.617655 52 1.37937 52Z" fill="#A9A9A9"/>
    <path d="M40 44C49.9412 44 58 35.9412 58 26C58 16.0588 49.9412 8 40 8C30.0588 8 22 16.0588 22 26C22 35.9412 30.0588 44 40 44Z" fill="#D12BFB"/>
    <g clip-path="url(#clip0_307_566)">
        <path d="M31.8984 30.7381C32.0432 30.5995 32.2424 30.5187 32.4536 30.5187H51.6077C51.9578 30.5187 52.1328 30.9229 51.8853 31.1597L48.1016 34.7805C47.9567 34.9191 47.7576 34.9999 47.5464 34.9999H28.3923C28.0422 34.9999 27.8672 34.5957 28.1147 34.3589L31.8984 30.7381Z" fill="white"/>
        <path d="M31.8983 17.2194C32.0492 17.0808 32.2483 17 32.4535 17H51.6076C51.9576 17 52.1326 17.4042 51.8852 17.641L48.1015 21.2618C47.9566 21.4004 47.7575 21.4812 47.5463 21.4812H28.3921C28.0421 21.4812 27.8671 21.077 28.1145 20.8402L31.8983 17.2194Z" fill="white"/>
        <path d="M48.1016 23.9354C47.9567 23.7968 47.7576 23.7159 47.5464 23.7159H28.3923C28.0422 23.7159 27.8672 24.1202 28.1147 24.3569L31.8984 27.9777C32.0432 28.1163 32.2424 28.1972 32.4536 28.1972H51.6077C51.9578 28.1972 52.1328 27.7929 51.8853 27.5562L48.1016 23.9354Z" fill="white"/>
    </g>
    <defs>
        <clipPath id="clip0_307_566">
            <rect width="24" height="18" fill="white" transform="translate(28 17)"/>
        </clipPath>
    </defs>
</svg>
