<svg width="80" height="52" viewBox="0 0 80 52" fill="none" xmlns="http://www.w3.org/2000/svg">
    <path d="M78.6205 52H1.37937C0.617655 52 0 51.3872 0 50.6315V1.36848C0 0.612779 0.617655 0 1.37937 0H78.6206C79.3823 0 80 0.612779 80 1.36848V50.6315C79.9998 51.3874 79.3822 52 78.6205 52Z" fill="#F6F5F3"/>
    <path fill-rule="evenodd" clip-rule="evenodd" d="M1.37937 51.5938H78.6205C79.1569 51.5938 79.591 51.1625 79.5911 50.6315V1.36848C79.5911 0.83766 79.157 0.40625 78.6206 0.40625H1.37937C0.842981 0.40625 0.408931 0.837661 0.408931 1.36848V50.6315C0.408931 51.1623 0.842981 51.5938 1.37937 51.5938ZM1.37937 52H78.6205C79.3822 52 79.9998 51.3874 80 50.6315V1.36848C80 0.612779 79.3823 0 78.6206 0H1.37937C0.617655 0 0 0.612779 0 1.36848V50.6315C0 51.3872 0.617655 52 1.37937 52Z" fill="#A9A9A9"/>
    <circle cx="40" cy="26" r="18" fill="#2683FF"/>
    <path d="M41.6905 29.2357C41.2388 29.4743 40.7221 29.6098 40.1743 29.6098C39.4755 29.6098 38.8282 29.3903 38.3002 29.0169C37.9769 29.1651 37.6155 29.2484 37.2357 29.2484C35.8366 29.2484 34.703 28.1282 34.703 26.746C34.703 25.3646 35.8366 24.2444 37.2357 24.2444C37.4192 24.2444 37.5978 24.2634 37.7701 24.3002C38.0741 23.9648 38.4451 23.6969 38.8591 23.5139C39.2731 23.3309 39.7209 23.2369 40.1736 23.2378C41.7597 23.2378 43.0783 24.3686 43.3486 25.858C43.7556 25.9658 44.1156 26.2047 44.373 26.5378C44.6304 26.8708 44.7708 27.2795 44.7724 27.7004C44.7724 28.755 43.907 29.6091 42.8397 29.6091C42.4091 29.6091 42.0117 29.4707 41.6905 29.2357Z" fill="white"/>
    <path fill-rule="evenodd" clip-rule="evenodd" d="M42.0294 14.5881C42.0294 14.7695 42.0082 14.9452 41.9694 15.1146L48.4423 18.7676C48.8723 18.4123 49.4129 18.2186 49.9706 18.2198C51.2863 18.2198 52.3529 19.2737 52.3529 20.5732C52.3529 21.5975 51.6894 22.4692 50.7647 22.7918V29.8803C51.227 30.0397 51.6282 30.3389 51.9128 30.7366C52.1974 31.1343 52.3512 31.6106 52.3529 32.0996C52.3529 33.3984 51.2863 34.4523 49.9706 34.4523C49.4002 34.4523 48.8765 34.2546 48.467 33.9243L41.9694 37.5914C42.0089 37.7608 42.0294 37.9372 42.0294 38.1179C42.0294 39.4168 40.9628 40.4706 39.647 40.4706C38.3313 40.4706 37.2647 39.4175 37.2647 38.1179C37.2647 37.9365 37.2859 37.7608 37.3247 37.5914L30.8277 33.9243C30.4015 34.2672 29.8706 34.4536 29.3235 34.4523C28.0078 34.4523 26.9412 33.3991 26.9412 32.0996C26.9412 31.0754 27.6047 30.2036 28.5294 29.8803V22.7925C28.0671 22.6331 27.6659 22.3339 27.3813 21.9362C27.0967 21.5386 26.9429 21.0622 26.9412 20.5732C26.9412 19.2737 28.0078 18.2198 29.3235 18.2198C29.9052 18.2198 30.4381 18.4259 30.8518 18.7676L37.3247 15.1146C37.2847 14.942 37.2646 14.7653 37.2647 14.5881C37.2647 13.2892 38.3313 12.2354 39.647 12.2354C40.9628 12.2354 42.0294 13.2885 42.0294 14.5881ZM39.6308 16.1572C40.5075 16.1572 41.219 15.4549 41.219 14.5881C41.219 13.7219 40.5075 13.0196 39.6308 13.0196C38.7534 13.0196 38.0426 13.7219 38.0426 14.5881C38.0426 15.4549 38.7534 16.1572 39.6308 16.1572ZM39.6308 39.6864C40.5075 39.6864 41.219 38.9841 41.219 38.1179C41.219 37.2511 40.5075 36.5488 39.6308 36.5488C38.7534 36.5488 38.0426 37.2511 38.0426 38.1179C38.0426 38.9841 38.7534 39.6864 39.6308 39.6864ZM30.9118 20.5732C30.9118 21.4394 30.2009 22.1417 29.3235 22.1417C28.4461 22.1417 27.7353 21.4394 27.7353 20.5732C27.7353 19.7064 28.4461 19.0048 29.3235 19.0048C30.2009 19.0048 30.9118 19.7064 30.9118 20.5732ZM29.3235 33.6681C30.2009 33.6681 30.9118 32.9657 30.9118 32.0996C30.9118 31.2335 30.2009 30.5311 29.3235 30.5311C28.4461 30.5311 27.7353 31.2335 27.7353 32.0996C27.7353 32.9657 28.4461 33.6681 29.3235 33.6681ZM51.5588 32.0996C51.5588 32.9657 50.848 33.6681 49.9706 33.6681C49.0932 33.6681 48.3823 32.9657 48.3823 32.0996C48.3823 31.2335 49.0932 30.5311 49.9706 30.5311C50.848 30.5311 51.5588 31.2335 51.5588 32.0996ZM49.9706 22.1417C50.848 22.1417 51.5588 21.4394 51.5588 20.5732C51.5588 19.7064 50.848 19.0048 49.9706 19.0048C49.0932 19.0048 48.3823 19.7064 48.3823 20.5732C48.3823 21.4394 49.0932 22.1417 49.9706 22.1417ZM41.4598 30.7909C41.0413 30.9108 40.6082 30.9713 40.1729 30.9709C39.2693 30.9726 38.3851 30.7093 37.6296 30.2135C37.4324 30.2453 37.2329 30.2614 37.0332 30.2615C34.9981 30.2615 33.3485 28.6323 33.3485 26.6219C33.3485 24.6123 34.9981 22.9831 37.0332 22.9831C37.079 22.9831 37.1249 22.9838 37.1708 22.9859C38.0083 22.2729 39.073 21.8824 40.1729 21.8848C42.196 21.8848 43.9141 23.1744 44.5296 24.9666C45.0328 25.2521 45.4515 25.6657 45.7431 26.1653C46.0347 26.6649 46.1888 27.2328 46.1899 27.8114C46.1899 29.6255 44.7005 31.0965 42.863 31.0965C42.3619 31.0965 41.8861 30.9871 41.4598 30.7909ZM40.4376 14.5881C40.4376 15.0215 40.0826 15.3723 39.6435 15.3723C39.4343 15.3736 39.2332 15.2918 39.0843 15.1449C38.9354 14.998 38.8509 14.7979 38.8494 14.5888C38.8494 14.1554 39.2052 13.8038 39.6435 13.8038C40.0826 13.8038 40.4376 14.1554 40.4376 14.5881ZM39.6435 38.9022C40.0826 38.9022 40.4376 38.5506 40.4376 38.1179C40.4376 37.6845 40.0826 37.3337 39.6435 37.3337C39.2059 37.3337 38.8494 37.6845 38.8494 38.1172C38.8494 38.5506 39.2052 38.9022 39.6435 38.9022ZM30.1176 32.1243C30.1176 32.5577 29.7619 32.9092 29.3235 32.9092C29.2199 32.9099 29.1171 32.8901 29.0211 32.8511C28.9251 32.812 28.8378 32.7544 28.764 32.6816C28.6903 32.6088 28.6316 32.5221 28.5914 32.4266C28.5511 32.3311 28.53 32.2286 28.5294 32.125C28.5294 31.6916 28.8852 31.3401 29.3235 31.3401C29.7619 31.3401 30.1176 31.6916 30.1176 32.1243ZM49.9706 32.9092C50.4089 32.9092 50.7647 32.5577 50.7647 32.125C50.7647 31.6916 50.4089 31.3401 49.9706 31.3401C49.5322 31.3401 49.1765 31.6916 49.1765 32.1243C49.1765 32.5577 49.5322 32.9092 49.9706 32.9092ZM30.1176 20.5845C30.1176 21.0179 29.7619 21.3688 29.3235 21.3688C29.1143 21.3701 28.9132 21.2883 28.7643 21.1414C28.6154 20.9944 28.5309 20.7944 28.5294 20.5852C28.5294 20.1518 28.8852 19.8003 29.3235 19.8003C29.7619 19.8003 30.1176 20.1518 30.1176 20.5845ZM49.9706 21.3688C50.4089 21.3688 50.7647 21.0179 50.7647 20.5852C50.7647 20.1518 50.4089 19.8003 49.9706 19.8003C49.5322 19.8003 49.1765 20.1518 49.1765 20.5845C49.1765 21.0179 49.5322 21.3688 49.9706 21.3688Z" fill="white"/>
    <path d="M38.8529 22.5906V15.416H40.4411V22.5906H38.8529ZM38.8529 37.2553V30.08H40.4411V37.2546H38.8529V37.2553ZM35.1061 24.9045L29.6369 21.5233L30.4797 20.1941L35.9489 23.5753L35.1061 24.9045ZM44.1879 24.9045L49.6571 21.5233L48.8143 20.1941L43.3458 23.5753L44.1879 24.9045ZM30.4889 32.3198L35.5557 29.0925L34.6945 27.7739L29.6284 31.0019L30.4896 32.3198H30.4889ZM48.8115 32.324L44.3044 29.5104L45.1529 28.1847L49.6599 30.9977L48.8115 32.324Z" fill="#2683FF"/>
</svg>
