<svg width="80" height="52" viewBox="0 0 80 52" fill="none" xmlns="http://www.w3.org/2000/svg">
    <path d="M78.6205 52H1.37937C0.617655 52 0 51.3872 0 50.6315V1.36848C0 0.612779 0.617655 0 1.37937 0H78.6206C79.3823 0 80 0.612779 80 1.36848V50.6315C79.9998 51.3874 79.3822 52 78.6205 52Z" fill="#F6F5F3"/>
    <path fill-rule="evenodd" clip-rule="evenodd" d="M1.37937 51.5938H78.6205C79.1569 51.5938 79.591 51.1625 79.5911 50.6315V1.36848C79.5911 0.83766 79.157 0.40625 78.6206 0.40625H1.37937C0.842981 0.40625 0.408931 0.837661 0.408931 1.36848V50.6315C0.408931 51.1623 0.842981 51.5938 1.37937 51.5938ZM1.37937 52H78.6205C79.3822 52 79.9998 51.3874 80 50.6315V1.36848C80 0.612779 79.3823 0 78.6206 0H1.37937C0.617655 0 0 0.612779 0 1.36848V50.6315C0 51.3872 0.617655 52 1.37937 52Z" fill="#A9A9A9"/>
    <circle cx="40" cy="26" r="18" fill="#14171A"/>
    <path d="M40 38C46.6274 38 52 32.6274 52 26C52 19.3726 46.6274 14 40 14C33.3726 14 28 19.3726 28 26C28 32.6274 33.3726 38 40 38Z" fill="white"/>
    <path d="M42.1854 31.0018C41.8427 31.1533 41.4219 31.2868 41.1174 31.2868L41.2044 30.8758C41.4807 30.8103 41.7504 30.7194 42.0099 30.6043C42.3287 30.4633 42.6339 30.2825 42.8297 30.071L43.1484 30.3665C42.8934 30.6418 42.5252 30.851 42.1854 31.0018Z" fill="#F7D80C"/>
    <path d="M51.9649 26.51C51.9491 26.891 51.9146 27.2675 51.8636 27.6387H49.2251C49.2911 27.269 49.3346 26.8925 49.3556 26.5092H51.9656L51.9649 26.51ZM50.7881 31.1975C50.8594 31.0497 50.9284 30.9005 50.9936 30.7497L48.8359 29.5962L48.6844 29.5152C48.5857 29.7585 48.4769 29.9974 48.3581 30.2315L48.4346 30.3237L50.7881 31.1975ZM50.4986 31.7585L49.9039 31.568L50.3539 32.0142C50.4034 31.9295 50.4514 31.844 50.4986 31.7585ZM49.9189 32.705C49.7554 32.9465 49.5836 33.1812 49.4036 33.41L47.5436 31.55C47.7259 31.3032 47.8961 31.0475 48.0536 30.7827L48.1489 30.8802L49.9189 32.7057V32.705ZM51.3851 29.7163C51.3536 29.8138 51.3206 29.9105 51.2861 30.0065L50.7161 29.7163H51.3851ZM51.7639 28.247C51.7091 28.5342 51.6439 28.8185 51.5689 29.099L48.9386 28.979L48.8936 28.949C48.9701 28.7195 49.0376 28.4847 49.0961 28.247H51.7639ZM49.0129 33.8795C48.8494 34.0655 48.6806 34.247 48.5059 34.4232L46.6631 32.5805C46.8379 32.4042 47.0051 32.2205 47.1656 32.0315L49.0129 33.8795ZM47.1589 35.5955C47.4739 35.36 47.7776 35.1095 48.0671 34.8447L46.2221 32.9997C45.9276 33.2617 45.617 33.5049 45.2921 33.728L47.1596 35.5955H47.1589ZM46.6556 35.9525C46.4756 36.0732 46.2904 36.1902 46.1029 36.3012L44.3884 34.2762C44.5159 34.2087 44.6426 34.1375 44.7671 34.0632L46.6556 35.9525ZM45.0064 36.0755L45.4564 36.659C45.3814 36.6973 45.3064 36.7355 45.2306 36.7715L45.0056 36.0755H45.0064ZM43.7651 34.6572L44.4979 37.0985C44.3677 37.152 44.2364 37.2028 44.1041 37.2507L43.0616 34.8552C43.2934 34.775 43.5206 34.6857 43.7441 34.5882L43.7651 34.6572ZM42.4024 35.0562V37.733C42.1729 37.7795 41.9419 37.82 41.7079 37.853L41.6081 35.2302C41.8774 35.1837 42.1421 35.1252 42.4031 35.0562H42.4024ZM43.1966 37.5425L43.4171 37.4787L43.1831 36.866L43.1966 37.5417V37.5425ZM40.3196 37.9715C40.5821 37.964 40.8439 37.949 41.1019 37.925L41.0029 35.3158C40.7704 35.3405 40.5356 35.357 40.2979 35.3652L40.3204 37.9715H40.3196ZM37.9256 37.7997C37.62 37.7464 37.3165 37.6813 37.0159 37.6047V34.8897C37.3061 34.9865 37.6024 35.0697 37.9039 35.1372L37.9264 37.7997H37.9256ZM35.2151 36.9875C35.4109 37.073 35.6096 37.1532 35.8114 37.2282L36.8989 34.85C36.5822 34.7393 36.2717 34.6116 35.9689 34.4675L35.2144 36.9875H35.2151ZM34.0939 36.4295C33.7491 36.2344 33.4142 36.0224 33.0904 35.7942L34.9684 33.9155C35.2561 34.0981 35.5535 34.2648 35.8594 34.415L34.0939 36.4295ZM38.5346 37.889C38.9216 37.9355 39.3146 37.964 39.7121 37.973L39.6904 35.3652C39.2959 35.3532 38.9027 35.3164 38.5129 35.255L38.5354 37.889H38.5346ZM32.0704 34.9895C32.2414 35.1402 32.4176 35.2865 32.5969 35.4275L34.4569 33.5675C34.2724 33.4325 34.0924 33.29 33.9176 33.1422L32.0704 34.9895ZM31.6241 34.5763C31.3288 34.2885 31.0484 33.9859 30.7841 33.6695L32.6366 31.817C32.8931 32.1402 33.1706 32.447 33.4669 32.7327L31.6241 34.5763ZM28.9331 30.6327C28.9834 30.7527 29.0359 30.872 29.0906 30.9897L31.6631 30.3185C31.4882 29.983 31.3339 29.6371 31.2011 29.2827L28.9331 30.6327ZM28.6811 29.9795C28.6601 29.9202 28.6396 29.8607 28.6196 29.801L29.1716 29.7492L28.6811 29.9795ZM28.3976 29.0585L31.1261 29.0765C31.0313 28.8045 30.9492 28.5282 30.8801 28.2485L28.2176 28.274C28.2686 28.5387 28.3286 28.8005 28.3976 29.0585ZM29.5204 31.835C29.4892 31.7795 29.4584 31.7237 29.4281 31.6677L29.9479 31.475L29.5204 31.835ZM31.7696 30.5172L29.8886 32.4492C30.0514 32.7027 30.2231 32.9503 30.4039 33.1903L32.2699 31.3235C32.0899 31.064 31.9234 30.7947 31.7696 30.5172ZM28.1164 27.6665C28.0841 27.4353 28.0586 27.2032 28.0399 26.9705L30.6544 26.9465C30.6784 27.1805 30.7106 27.413 30.7519 27.6417L28.1164 27.6665ZM30.6124 26.3382L28.0061 26.363C27.9944 25.9864 28.0002 25.6095 28.0234 25.2335L30.6379 25.2087C30.607 25.5844 30.5985 25.9616 30.6124 26.3382ZM30.7076 24.6005L28.0766 24.6252C28.1014 24.4077 28.1314 24.1932 28.1674 23.9802H30.8216C30.7766 24.1842 30.7391 24.3912 30.7084 24.6005H30.7076ZM30.9101 23.6105L28.5934 22.253C28.6481 22.085 28.7074 21.9185 28.7696 21.7535L31.3076 22.4233C31.1501 22.8065 31.0166 23.2032 30.9101 23.6105ZM29.9749 21.3507L29.0449 21.086C29.0899 20.9847 29.1371 20.8835 29.1851 20.7845L29.9749 21.3507ZM31.8806 21.2637C31.7239 21.5322 31.5806 21.809 31.4501 22.0932L29.5571 20.0757C29.6929 19.8357 29.8376 19.6017 29.9891 19.3722L31.8806 21.2637ZM28.3714 23.0165C28.3474 23.1102 28.3241 23.2047 28.3031 23.3L29.1446 23.3713L28.3714 23.0165ZM32.2129 20.7365L30.3431 18.8667C30.4916 18.6658 30.6461 18.47 30.8066 18.2795L32.6591 20.1312C32.5016 20.3262 32.3531 20.5287 32.2129 20.7365ZM33.0551 19.667C33.3191 19.3782 33.6004 19.1052 33.8981 18.851L32.0509 17.0037C31.7576 17.2632 31.4771 17.5362 31.2109 17.8227L33.0551 19.6677V19.667ZM32.5181 16.6115L34.3759 18.4692C34.6234 18.284 34.8791 18.1115 35.1446 17.9517L33.1961 16.1082C32.9636 16.268 32.7386 16.436 32.5181 16.6107V16.6115ZM35.4641 17.7673C35.8523 17.5528 36.2554 17.3664 36.6701 17.2092L35.4079 14.9067C35.2001 14.9922 34.9954 15.0837 34.7929 15.1812L35.4641 17.7673ZM37.9031 16.823C37.5086 16.9002 37.4021 16.958 37.0271 17.0832L37.1861 14.3293C37.4231 14.2723 37.6616 14.2228 37.9031 14.1808V16.823ZM36.5186 15.737L36.5066 14.513C36.3392 14.5639 36.1729 14.6184 36.0079 14.6765L36.5186 15.7378V15.737ZM34.1876 15.494C34.0384 15.5765 33.8906 15.6628 33.7451 15.752L34.5589 16.6063L34.1884 15.494H34.1876ZM51.9761 25.901H49.3699C49.3676 25.6385 49.3541 25.3775 49.3301 25.1195H51.9454C51.9641 25.3775 51.9739 25.6385 51.9754 25.901H51.9761ZM49.7576 19.0392C49.9181 19.2642 50.0711 19.4953 50.2159 19.7308L48.2989 21.6305C48.1704 21.3862 48.0313 21.1477 47.8819 20.9158L49.7584 19.0392H49.7576ZM49.6549 21.1535L50.5309 20.2767C50.6171 20.4357 50.6996 20.5963 50.7784 20.7597L49.6549 21.1535ZM51.2749 21.9387C51.1999 21.7287 51.1181 21.5202 51.0311 21.3147L48.6686 22.1382L48.5636 22.1757C48.7031 22.49 48.8261 22.8132 48.9311 23.1447L51.2749 21.9387ZM51.4684 22.5245L50.3179 23.123L51.6221 23.0825C51.5754 22.8953 51.5241 22.7092 51.4684 22.5245ZM51.7556 23.687C51.8081 23.9585 51.8524 24.2337 51.8861 24.5112H49.2551C49.2154 24.2608 49.1656 24.0121 49.1059 23.7657L51.7564 23.687H51.7556ZM47.5301 20.4072L49.3894 18.548C49.1456 18.2405 48.8869 17.9458 48.6146 17.663L46.7711 19.5065C47.0426 19.7907 47.2961 20.0915 47.5301 20.4065V20.4072ZM47.6246 16.7465C47.8151 16.904 48.0011 17.0675 48.1811 17.237L46.3376 19.0805C46.1553 18.9131 45.9664 18.753 45.7714 18.6005L47.6246 16.7465ZM45.2749 18.2367L47.1431 16.3685C46.9421 16.2185 46.7366 16.0752 46.5266 15.938L44.5871 17.8085C44.8226 17.9412 45.0521 18.0845 45.2749 18.236V18.2367ZM44.0141 17.5115L44.9194 15.0583C44.6366 14.9302 44.3488 14.8134 44.0569 14.708L42.9416 17.0068V17.0803C43.3099 17.2025 43.6676 17.3465 44.0141 17.5115ZM45.4699 15.3238L45.0161 16.553L45.9919 15.6095C45.8209 15.5097 45.6469 15.4145 45.4699 15.3245V15.3238ZM42.9416 14.3668C43.1216 14.4118 43.2986 14.4612 43.4741 14.5145L42.9416 15.614V14.3668ZM41.5519 14.1013C41.8151 14.1358 42.0761 14.1785 42.3334 14.2288V16.8672L42.3184 16.8972C42.0652 16.8328 41.8095 16.779 41.5519 16.736V14.1013ZM39.9881 14C40.3099 14 40.6286 14.0128 40.9436 14.0375V16.6542C40.5684 16.6163 40.1912 16.6008 39.8141 16.6077V14.0015C39.8726 14 39.9304 14 39.9881 14ZM38.5114 14.09V16.7217C38.7401 16.6857 38.9719 16.6572 39.2066 16.6385V14.0247C38.9726 14.0397 38.7416 14.0622 38.5114 14.09Z" fill="#F7D80C"/>
    <path d="M39.5072 28.2499L41.3784 17.2572L41.4212 17.2422C40.9476 17.1655 40.4685 17.1271 39.9887 17.1274C35.0949 17.1274 31.1274 21.0949 31.1274 25.9879C31.1274 30.8817 35.0949 34.8484 39.9887 34.8484H40.0374L41.1129 31.3069C40.1143 31.4372 39.0998 31.3668 38.1287 31.0999C37.2984 30.8644 36.6842 30.5134 36.4014 30.2224L36.7127 29.9194C36.9227 30.1347 37.4552 30.4572 38.2472 30.6822C39.0317 30.9042 40.0502 31.0242 41.2172 30.8547L42.0699 28.2499H39.5072Z" fill="#F7D80C"/>
    <path d="M34.1613 23C33.52 23 33.0798 23.6675 33.3138 24.2945L34.5595 27.6417C34.696 28.0092 35.032 28.25 35.4078 28.25H38.1378C38.5068 28.25 38.8398 28.016 38.98 27.6575L39.8065 24.662C39.8162 24.6232 39.8385 24.5887 39.8699 24.564C39.9013 24.5393 39.94 24.5258 39.98 24.5255C40.02 24.5253 40.0589 24.5383 40.0906 24.5626C40.1224 24.5869 40.1451 24.6211 40.1553 24.6597L41.02 27.6575C41.161 28.016 41.4925 28.25 41.8623 28.25H44.5923C44.9673 28.25 45.304 28.0085 45.4405 27.6425L46.687 24.2945C46.9195 23.6675 46.48 23 45.8388 23H34.1613Z" fill="#483714"/>
    <path d="M43.9825 27.5H42.25C41.8398 27.5 41.521 27.2548 41.4453 26.9113L40.9503 24.6613C40.9262 24.5517 40.9269 24.4381 40.9525 24.3288C40.9781 24.2196 41.0279 24.1175 41.0983 24.03C41.1686 23.9426 41.2576 23.872 41.3588 23.8236C41.46 23.7751 41.5708 23.75 41.683 23.75H44.8375C44.959 23.75 45.0786 23.7795 45.1862 23.8359C45.2937 23.8924 45.3859 23.9741 45.4549 24.074C45.5239 24.174 45.5676 24.2892 45.5822 24.4098C45.5968 24.5304 45.5819 24.6527 45.5388 24.7662L44.6838 27.0162C44.6298 27.1585 44.5338 27.281 44.4085 27.3674C44.2833 27.4538 44.1347 27.5 43.9825 27.5Z" fill="#040103"/>
    <path d="M41.176 25.6873L41.0935 25.3123L42.175 23.75H42.475L41.176 25.6873ZM41.3673 26.5543L41.245 26L42.775 23.75H43.15L41.3673 26.5543ZM42.625 27.5C42.5238 27.5 42.355 27.5022 42.25 27.5C41.9673 27.4932 41.7535 27.4467 41.5675 27.185L43.75 23.75H44.5L42.625 27.5Z" fill="#505050"/>
    <path d="M35.9425 27.5H37.747C37.918 27.5001 38.0838 27.4417 38.2171 27.3347C38.3503 27.2276 38.443 27.0782 38.4798 26.9113L38.9748 24.6613C38.9989 24.5517 38.9981 24.4381 38.9725 24.3288C38.9469 24.2196 38.8971 24.1175 38.8268 24.03C38.7565 23.9426 38.6674 23.872 38.5662 23.8236C38.465 23.7751 38.3542 23.75 38.242 23.75H35.0875C34.966 23.75 34.8464 23.7795 34.7389 23.8359C34.6313 23.8924 34.5391 23.9741 34.4701 24.074C34.4011 24.174 34.3575 24.2892 34.3428 24.4098C34.3282 24.5304 34.3431 24.6527 34.3863 24.7662L35.1273 26.7162C35.2 26.9075 35.3493 27.0688 35.4723 27.2338C35.5705 27.365 35.677 27.5 35.9425 27.5Z" fill="#040103"/>
    <path d="M35.875 23.75H35.5L34.5355 25.1585L34.684 25.5507L35.875 23.75ZM36.55 23.75H36.1L34.78 25.8035L34.9713 26.3052L36.55 23.75ZM37.975 23.75H37L35.176 26.846C35.293 27.1528 35.455 27.425 35.8105 27.4888L37.975 23.75Z" fill="#505050"/>
</svg>
