<svg width="80" height="52" viewBox="0 0 80 52" fill="none" xmlns="http://www.w3.org/2000/svg">
<path d="M78.6205 52H1.37937C0.617655 52 0 51.3872 0 50.6315V1.36848C0 0.612779 0.617655 0 1.37937 0H78.6206C79.3823 0 80 0.612779 80 1.36848V50.6315C79.9998 51.3874 79.3822 52 78.6205 52Z" fill="#F6F5F3"/>
<path d="M22 26C22 16.0589 30.0589 8 40 8C49.9411 8 58 16.0589 58 26C58 35.9411 49.9411 44 40 44C30.0589 44 22 35.9411 22 26Z" fill="#321F32"/>
<path fill-rule="evenodd" clip-rule="evenodd" d="M32.9288 15.7405L34.0605 14.6089H45.9405L47.0721 15.7405V36.2605L45.9405 37.3921H34.0605L32.9288 36.2605V15.7405ZM35.1921 16.8721V35.1289H44.8088V16.8721H35.1921Z" fill="#2AB8E6"/>
<path d="M43.6 29.2401H41.1398V31.8175H38.92V29.2401H36.4598V27.0203H43.6V29.2401ZM43.6 22.8799H41.1398V20.3025H38.92V22.8799H36.4598V25.0997H43.6V22.8799Z" fill="url(#paint0_linear_323_192)"/>
<path fill-rule="evenodd" clip-rule="evenodd" d="M1.37937 51.5938H78.6205C79.1569 51.5938 79.591 51.1625 79.5911 50.6315V1.36848C79.5911 0.83766 79.157 0.40625 78.6206 0.40625H1.37937C0.842981 0.40625 0.408931 0.837661 0.408931 1.36848V50.6315C0.408931 51.1623 0.842981 51.5938 1.37937 51.5938ZM1.37937 52H78.6205C79.3822 52 79.9998 51.3874 80 50.6315V1.36848C80 0.612779 79.3823 0 78.6206 0H1.37937C0.617655 0 0 0.612779 0 1.36848V50.6315C0 51.3872 0.617655 52 1.37937 52Z" fill="#A9A9A9"/>
<defs>
<linearGradient id="paint0_linear_323_192" x1="1289.91" y1="2045.91" x2="2142.19" y2="2574.38" gradientUnits="userSpaceOnUse">
<stop stop-color="#2AB8E6"/>
<stop offset="0.53" stop-color="#29CAD2"/>
<stop offset="1" stop-color="#2EE4BE"/>
</linearGradient>
</defs>
</svg>
