<svg width="80" height="52" viewBox="0 0 80 52" fill="none" xmlns="http://www.w3.org/2000/svg">
    <path d="M78.6205 52H1.37937C0.617655 52 0 51.3872 0 50.6315V1.36848C0 0.612779 0.617655 0 1.37937 0H78.6206C79.3823 0 80 0.612779 80 1.36848V50.6315C79.9998 51.3874 79.3822 52 78.6205 52Z" fill="#F6F5F3"/>
    <path fill-rule="evenodd" clip-rule="evenodd" d="M1.37937 51.5938H78.6205C79.1569 51.5938 79.591 51.1625 79.5911 50.6315V1.36848C79.5911 0.83766 79.157 0.40625 78.6206 0.40625H1.37937C0.842981 0.40625 0.408931 0.837661 0.408931 1.36848V50.6315C0.408931 51.1623 0.842981 51.5938 1.37937 51.5938ZM1.37937 52H78.6205C79.3822 52 79.9998 51.3874 80 50.6315V1.36848C80 0.612779 79.3823 0 78.6206 0H1.37937C0.617655 0 0 0.612779 0 1.36848V50.6315C0 51.3872 0.617655 52 1.37937 52Z" fill="#A9A9A9"/>
    <circle cx="40" cy="26" r="18" fill="#EACB7D"/>
    <path fill-rule="evenodd" clip-rule="evenodd" d="M37.2486 16.6897L38.726 13.6484C39.2452 12.5788 40.7544 12.5788 41.2737 13.6484L42.751 16.6897C42.2277 18.1089 41.1933 19.0754 40.0026 19.0768H39.9998C38.8077 19.0768 37.772 18.1096 37.2486 16.6897ZM36.6857 17.8472L35.4202 20.4517C36.1553 19.965 36.9635 19.5989 37.8142 19.3676C37.3732 18.9674 36.9903 18.4509 36.6857 17.8472ZM31.7198 28.0678L30.6952 30.1752C31.3667 30.2499 31.9808 30.5172 32.48 30.9201C32.0573 30.0227 31.7998 29.0565 31.7198 28.0678ZM32.7063 34.9999H29.87C29.17 34.9999 28.7124 34.257 29.0212 33.6222L30.3691 30.846C30.85 30.8565 31.3199 30.9922 31.7325 31.2395C32.145 31.4869 32.486 31.8374 32.7219 32.2566C32.9578 32.6759 33.0804 33.1493 33.0777 33.6303C33.075 34.1113 32.947 34.5833 32.7063 34.9999ZM33.481 34.9999H36.6747C35.5123 34.4909 34.4816 33.7232 33.661 32.7554C33.8525 33.5027 33.7891 34.2926 33.481 34.9999ZM43.3257 34.9999H45.8263C45.6304 34.5512 45.5322 34.066 45.5383 33.5765C44.8808 34.1655 44.1336 34.6459 43.325 34.9999H43.3257ZM49.6693 30.9277L50.9784 33.6215C51.2872 34.257 50.8296 34.9999 50.1297 34.9999H46.601C46.3576 34.5791 46.2298 34.1014 46.2306 33.6152C46.2306 33.294 46.2853 32.9852 46.3857 32.6986C46.6993 32.3227 46.9797 31.9184 47.2233 31.4906C47.558 31.2109 47.9539 31.0141 48.3789 30.9162C48.8039 30.8182 49.246 30.822 49.6693 30.927V30.9277ZM49.2996 30.1662L48.2798 28.0678C48.2154 28.8625 48.0363 29.6436 47.7481 30.387C48.2415 30.1955 48.7723 30.1199 49.2996 30.1662ZM44.5794 20.4517C43.8443 19.965 43.0361 19.599 42.1854 19.3676C42.6264 18.9674 43.0093 18.4509 43.3139 17.8472L44.5794 20.4517ZM40.6921 34.2736C40.2317 34.3194 39.7679 34.3194 39.3075 34.2736V23.9229H34.003C34.2945 23.4192 34.648 22.954 35.0553 22.5383H44.9436C45.3512 22.9539 45.7049 23.4191 45.9966 23.9229H40.6921V34.2729V34.2736ZM41.3844 34.1691C44.5448 33.5273 46.9229 30.7339 46.9229 27.3845C46.9242 26.4315 46.7281 25.4886 46.3469 24.6152H41.3844V34.1691ZM39.9998 20.4614C41.5589 20.4614 42.9975 20.9765 44.1543 21.846H35.8453C37.0428 20.9451 38.5013 20.459 39.9998 20.4614ZM33.6527 24.6152C33.2716 25.4886 33.0754 26.4315 33.0767 27.3845C33.0767 30.7339 35.4555 33.5273 38.6152 34.1691V24.6152H33.6527Z" fill="black"/>
</svg>
