<svg width="419" height="355" viewBox="0 0 419 355" fill="none" xmlns="http://www.w3.org/2000/svg">
    <path d="M398.977 306H19.7718C16.0323 306 13 302.971 13 299.237V55.7635C13 52.0285 16.0323 49 19.7718 49H398.977C402.717 49 405.749 52.0285 405.749 55.7635V299.237C405.748 302.972 402.716 306 398.977 306Z" fill="#F6F5F3"/>
    <path d="M398.977 305.25C402.302 305.25 404.999 302.558 404.999 299.237V55.7635C404.999 52.443 402.303 49.75 398.977 49.75H19.7718C16.4463 49.75 13.75 52.443 13.75 55.7635V299.237C13.75 302.557 16.4463 305.25 19.7718 305.25H398.977Z" stroke="#A9A9A9" stroke-width="1.5" fill="#f6f5f3"/>
    <g clip-path="url(#clip0)">
        <path d="M297.691 139.541C288.738 131.275 276.353 118.651 266.266 109.698L265.669 109.28C264.676 108.482 263.556 107.857 262.356 107.429C238.034 102.893 124.836 81.7339 122.628 82.0025C122.009 82.0892 121.418 82.3136 120.897 82.6591L120.33 83.1068C119.632 83.8158 119.101 84.6725 118.778 85.6136L118.629 86.0016V88.1205V88.4488C131.372 123.933 181.689 240.174 191.597 267.452C192.194 269.302 193.328 272.823 195.447 273.003H195.924C197.058 273.003 201.893 266.616 201.893 266.616C201.893 266.616 288.32 161.805 297.065 150.643C298.197 149.268 299.196 147.789 300.049 146.226C300.267 145.003 300.164 143.745 299.751 142.573C299.338 141.402 298.628 140.357 297.691 139.541ZM224.067 151.747L260.954 121.158L282.59 141.093L224.067 151.747ZM209.742 149.748L146.234 97.7003L248.986 116.651L209.742 149.748ZM215.472 163.386L280.472 152.911L206.161 242.443L215.472 163.386ZM137.61 102.893L204.43 159.596L194.76 242.502L137.61 102.893Z" fill="#FF060A"/>
    </g>
    <defs>
        <clipPath id="clip0">
            <rect width="191" height="191" fill="white" transform="translate(114 82)"/>
        </clipPath>
    </defs>
</svg>
