<?xml version="1.0" encoding="UTF-8"?>
<svg width="512px" height="512px" viewBox="0 0 512 512" version="1.1" xmlns="http://www.w3.org/2000/svg" xmlns:xlink="http://www.w3.org/1999/xlink">
    <!-- Generator: Sketch 48.1 (47250) - http://www.bohemiancoding.com/sketch -->
    <title>UKBrent</title>
    <desc>Created with Sketch.</desc>
    <defs></defs>
    <g id="Компании-BIG" stroke="none" stroke-width="1" fill="none" fill-rule="evenodd">
        <g id="UKBrent" fill="#000000" fill-rule="nonzero">
            <g id="oil-pumpjack-extraction" transform="translate(45.000000, 1.000000)">
                <path d="M411.48918,443.230959 L390.025163,443.230959 L390.025163,334.166074 C390.025163,331.292876 387.692842,328.962777 384.818534,328.962777 L360.593492,328.962777 L360.593492,245.626725 L363.129059,246.676269 C364.432937,247.214924 365.78013,247.470369 367.107332,247.470369 C371.190004,247.470369 375.0661,245.050308 376.72538,241.043158 L391.536729,205.273128 C392.590716,202.722013 392.590716,199.857701 391.534508,197.307696 C390.478299,194.757692 388.452512,192.733015 385.901397,191.676807 L160.971245,98.5450065 C169.192121,82.8673666 176.578915,66.89541 182.928382,51.0756095 C185.051905,45.7823514 182.520781,39.7660738 177.251957,37.5859089 L88.39941,0.794099783 C83.1350282,-1.38828633 77.0865423,1.0773102 74.8486247,6.32281128 C52.8481735,57.8415618 38.6576659,115.259974 30.1891193,187.02105 C29.6426898,191.647931 32.2393406,196.073787 36.5452495,197.856347 L74.6276095,213.622837 C78.9268547,215.404286 83.8924772,214.110403 86.7790022,210.453102 C103.297388,189.505527 117.557866,169.830733 130.373414,150.304764 L175.331679,168.918907 L173.119306,184.240035 L166.416659,230.644338 L135.719983,443.230959 L63.8633926,443.230959 L10.9596876,443.230959 C5.21329284,443.230959 0.554203905,447.887826 0.554203905,453.636443 L0.554203905,500.893709 C0.554203905,506.640104 5.21329284,511.299193 10.9596876,511.299193 L411.48918,511.299193 C417.235575,511.299193 421.894664,506.640104 421.894664,500.893709 L421.894664,453.636443 C421.894664,447.887826 417.235575,443.230959 411.48918,443.230959 Z M339.782525,328.962777 L315.557484,328.962777 C312.680954,328.962777 310.350855,331.292876 310.350855,334.166074 L310.350855,443.230959 L286.727774,443.230959 L256.028876,230.644338 L251.682985,200.532963 L339.779193,237.010464 L339.779193,328.962777 L339.782525,328.962777 Z M236.992694,258.481145 L200.42079,231.200764 L229.504833,206.61921 L236.992694,258.481145 Z M224.784659,277.843852 L178.402568,307.334386 L186.757831,249.476165 L224.784659,277.843852 Z M242.10492,293.878004 L253.276738,371.258863 L193.075089,325.051141 L242.10492,293.878004 Z M197.47318,443.230959 L257.400503,399.808694 L263.671115,443.230959 L197.47318,443.230959 Z M217.903202,186.54459 L192.77744,207.777597 L197.087792,177.926108 L217.903202,186.54459 Z M173.822334,339.040625 L236.24302,386.954273 L158.802187,443.064364 L173.822334,339.040625 Z" id="Shape"></path>
            </g>
        </g>
    </g>
</svg>