<svg width="80" height="52" viewBox="0 0 80 52" fill="none" xmlns="http://www.w3.org/2000/svg">
    <path d="M78.6205 52H1.37937C0.617655 52 0 51.3872 0 50.6315V1.36848C0 0.612779 0.617655 0 1.37937 0H78.6206C79.3823 0 80 0.612779 80 1.36848V50.6315C79.9998 51.3874 79.3822 52 78.6205 52Z" fill="#F6F5F3"/>
    <path fill-rule="evenodd" clip-rule="evenodd" d="M1.37937 51.5938H78.6205C79.1569 51.5938 79.591 51.1625 79.5911 50.6315V1.36848C79.5911 0.83766 79.157 0.40625 78.6206 0.40625H1.37937C0.842981 0.40625 0.408931 0.837661 0.408931 1.36848V50.6315C0.408931 51.1623 0.842981 51.5938 1.37937 51.5938ZM1.37937 52H78.6205C79.3822 52 79.9998 51.3874 80 50.6315V1.36848C80 0.612779 79.3823 0 78.6206 0H1.37937C0.617655 0 0 0.612779 0 1.36848V50.6315C0 51.3872 0.617655 52 1.37937 52Z" fill="#A9A9A9"/>
    <path d="M40 44C49.9411 44 58 35.9411 58 26C58 16.0589 49.9411 8 40 8C30.0589 8 22 16.0589 22 26C22 35.9411 30.0589 44 40 44Z" fill="#FF007A"/>
    <path d="M35.7935 14.4878C35.4729 14.4383 35.4594 14.4316 35.6102 14.4091C35.8993 14.3641 36.5833 14.426 37.0547 14.5373C38.1538 14.7995 39.1539 15.4688 40.2227 16.658L40.5062 16.973L40.9112 16.9088C42.6212 16.6332 44.3615 16.8526 45.8162 17.5242C46.2167 17.7087 46.8478 18.0766 46.9265 18.1722C46.9524 18.2015 46.9985 18.3961 47.0289 18.6031C47.1369 19.3197 47.0829 19.8687 46.8647 20.2793C46.7454 20.5021 46.7387 20.5718 46.8185 20.7631C46.8565 20.8421 46.9158 20.9088 46.9898 20.9558C47.0638 21.0027 47.1494 21.0279 47.237 21.0286C47.5993 21.0286 47.9885 20.4436 48.1685 19.6302L48.2405 19.3073L48.3823 19.4682C49.1608 20.3502 49.7717 21.5528 49.8763 22.4078L49.9044 22.6317L49.7728 22.4292C49.5478 22.0805 49.3228 21.842 49.0325 21.6496C48.5105 21.3042 47.9582 21.1872 46.4957 21.1096C45.1749 21.0398 44.4268 20.9273 43.6865 20.6855C42.4254 20.2748 41.7898 19.727 40.2913 17.7616C39.6264 16.8886 39.2147 16.406 38.8063 16.0178C37.8759 15.1336 36.9624 14.6701 35.7935 14.4878Z" fill="white"/>
    <path d="M47.2247 16.4376C47.2584 15.8526 47.3372 15.4667 47.4969 15.1146C47.5599 14.9751 47.6195 14.8604 47.6285 14.8604C47.6185 14.9393 47.5977 15.0165 47.5667 15.0899C47.4508 15.4319 47.4317 15.8999 47.5115 16.4432C47.6128 17.134 47.6713 17.233 48.4003 17.9789C48.7434 18.3287 49.1417 18.7697 49.2857 18.9599L49.5478 19.3041L49.2857 19.0577C48.965 18.7574 48.227 18.169 48.0639 18.0857C47.9548 18.0295 47.9379 18.0306 47.8704 18.097C47.8085 18.16 47.795 18.2522 47.7872 18.6921C47.7737 19.3761 47.6803 19.8171 47.4542 20.2559C47.3327 20.4921 47.3135 20.4426 47.4238 20.1737C47.5059 19.9735 47.5138 19.8857 47.5138 19.2231C47.5138 17.8911 47.3552 17.5716 46.427 17.0226C46.1478 16.8606 45.8609 16.7119 45.5675 16.5771C45.4226 16.519 45.282 16.4505 45.1468 16.3724C45.1727 16.3465 46.0772 16.6097 46.4405 16.7504C46.9828 16.9585 47.0717 16.9855 47.138 16.9596C47.1819 16.9427 47.2033 16.8145 47.2247 16.4376ZM36.4168 18.7157C35.7654 17.8191 35.3627 16.4432 35.4493 15.415L35.4763 15.0966L35.6248 15.1236C35.9038 15.1742 36.3842 15.3531 36.6092 15.4904C37.2257 15.865 37.4934 16.3589 37.7645 17.6256C37.8444 17.9969 37.949 18.4165 37.9974 18.5594C38.0739 18.7877 38.3664 19.3221 38.6049 19.6697C38.7759 19.9195 38.6612 20.0376 38.2832 20.0039C37.7049 19.951 36.9219 19.411 36.4168 18.7157ZM46.4349 25.3926C43.3895 24.1664 42.3174 23.1021 42.3174 21.3066C42.3174 21.0422 42.3264 20.8262 42.3365 20.8262C42.3478 20.8262 42.4659 20.9129 42.5987 21.0197C43.2163 21.5147 43.9082 21.7262 45.8218 22.0052C46.9479 22.1706 47.5824 22.3034 48.1674 22.4969C50.0259 23.1134 51.1757 24.3644 51.4502 26.0676C51.5289 26.5626 51.4828 27.4907 51.3534 27.9801C51.2522 28.3671 50.9405 29.0635 50.8584 29.0905C50.8359 29.0972 50.8134 29.0106 50.8067 28.8902C50.7752 28.2512 50.4523 27.628 49.9089 27.1611C49.2913 26.6312 48.4622 26.2082 46.4338 25.3926H46.4349ZM44.2974 25.9011C44.2614 25.6838 44.2122 25.4689 44.15 25.2576L44.0713 25.0259L44.2164 25.1879C44.4155 25.4129 44.5742 25.6986 44.7069 26.0811C44.8093 26.3725 44.8205 26.4591 44.8194 26.9327C44.8194 27.3985 44.807 27.4952 44.7125 27.7585C44.5812 28.1445 44.3611 28.4943 44.0702 28.78C43.5133 29.347 42.7989 29.6597 41.7662 29.7902C41.5862 29.8127 41.0642 29.851 40.604 29.8746C39.4453 29.9354 38.6837 30.0591 37.9985 30.2999C37.9368 30.3275 37.8704 30.3436 37.8028 30.3471C37.7758 30.319 38.2415 30.0411 38.6274 29.8555C39.1708 29.5934 39.7108 29.4505 40.9224 29.2491C41.5209 29.149 42.1397 29.0286 42.296 28.9802C43.7788 28.5257 44.5404 27.3535 44.2963 25.9011H44.2974Z" fill="white"/>
    <path d="M45.6925 28.3805C45.2875 27.5108 45.1952 26.6705 45.4168 25.8875C45.4405 25.8042 45.4787 25.7356 45.5012 25.7356C45.5774 25.7632 45.649 25.8018 45.7138 25.8503C45.9006 25.9763 46.2741 26.1878 47.2697 26.7301C48.5128 27.4085 49.2216 27.9338 49.7042 28.5323C50.1261 29.0577 50.3871 29.6562 50.5131 30.3852C50.584 30.7981 50.5423 31.7915 50.4366 32.2077C50.1025 33.5195 49.3251 34.55 48.2181 35.1507C48.1136 35.2112 48.0054 35.2649 47.8941 35.3116C47.8783 35.3116 47.9368 35.162 48.0257 34.9775C48.397 34.199 48.4408 33.4407 48.1585 32.597C47.9863 32.0806 47.6342 31.4495 46.9243 30.3852C46.0986 29.1477 45.8961 28.817 45.6925 28.3805ZM34.2546 33.0728C35.3852 32.1188 36.7903 31.4416 38.0717 31.2335C38.623 31.1435 39.5432 31.1795 40.054 31.31C40.873 31.5192 41.6065 31.9895 41.9878 32.5486C42.3591 33.0953 42.52 33.5723 42.6853 34.6321C42.7528 35.0506 42.8237 35.4702 42.8451 35.5658C42.9688 36.1148 43.213 36.5547 43.5145 36.7752C43.9926 37.1251 44.8172 37.1465 45.6272 36.8315C45.7118 36.7926 45.8011 36.7647 45.8927 36.7482C45.922 36.7775 45.5147 37.0508 45.2267 37.1948C44.8869 37.3767 44.5062 37.4689 44.1208 37.4626C43.3783 37.4626 42.7618 37.0857 42.2477 36.3151C42.1465 36.1632 41.9192 35.7098 41.7415 35.306C41.1992 34.0685 40.9315 33.6905 40.3015 33.2776C39.7513 32.9176 39.0437 32.8535 38.5116 33.1145C37.8118 33.4576 37.6172 34.352 38.1178 34.9178C38.317 35.1428 38.6882 35.3375 38.992 35.3746C39.1245 35.3922 39.2592 35.3811 39.387 35.3421C39.5149 35.3031 39.6329 35.2371 39.733 35.1486C39.8332 35.06 39.9132 34.951 39.9675 34.8289C40.0219 34.7069 40.0495 34.5745 40.0483 34.4408C40.0483 34.0673 39.9043 33.8558 39.5443 33.6927C39.0527 33.4711 38.524 33.7298 38.5262 34.1922C38.5273 34.3891 38.6128 34.5128 38.8108 34.6028C38.938 34.6591 38.9402 34.6647 38.8367 34.6433C38.3856 34.5488 38.2798 34.0055 38.6432 33.6443C39.0786 33.2101 39.9797 33.4013 40.2891 33.9931C40.4196 34.2417 40.4342 34.7378 40.3206 35.0371C40.0675 35.7065 39.3272 36.0575 38.5768 35.8662C38.0661 35.7357 37.858 35.5951 37.2426 34.9606C36.1727 33.8581 35.7576 33.6443 34.2141 33.4036L33.9182 33.3575L34.2557 33.0728H34.2546Z" fill="white"/>
    <path fill-rule="evenodd" clip-rule="evenodd" d="M28.9705 11.7687L29.0785 11.9004C33.25 17.0079 35.4055 19.6584 35.5427 19.8474C35.7677 20.1601 35.6833 20.4402 35.2963 20.6607C35.0815 20.7834 34.6382 20.9071 34.4177 20.9071C34.1668 20.9071 33.8845 20.7867 33.6786 20.5921C33.5335 20.4537 32.9473 19.5785 31.594 17.4781C30.9602 16.4854 30.3182 15.498 29.668 14.516C29.6128 14.4642 29.614 14.4654 31.4882 17.819C32.665 19.925 33.0632 20.6686 33.0632 20.7687C33.0632 20.9712 33.007 21.077 32.7572 21.356C32.341 21.8206 32.1553 22.3426 32.0203 23.4226C31.8696 24.6342 31.4466 25.4892 30.2721 26.9529C29.5858 27.8101 29.4733 27.9676 29.299 28.313C29.0807 28.7472 29.0211 28.9914 28.9963 29.5404C28.9705 30.1209 29.0211 30.4966 29.1988 31.0512C29.3541 31.5372 29.5161 31.859 29.9301 32.5002C30.2878 33.0549 30.4937 33.4666 30.4937 33.6275C30.4937 33.7557 30.5185 33.7557 31.0731 33.6309C32.3995 33.3316 33.4761 32.804 34.0825 32.1582C34.4571 31.7589 34.5448 31.5384 34.5482 30.9905C34.5493 30.6327 34.537 30.5574 34.4402 30.3515C34.2827 30.0162 33.9958 29.7372 33.3636 29.3052C32.5345 28.7382 32.1812 28.2815 32.0833 27.6549C32.0023 27.1407 32.0957 26.7774 32.5547 25.8166C33.0283 24.8221 33.1465 24.3991 33.2263 23.3967C33.277 22.7487 33.3478 22.4934 33.5346 22.2886C33.7281 22.0749 33.9036 22.0017 34.384 21.9365C35.167 21.8296 35.6653 21.6271 36.0748 21.2502C36.4303 20.9217 36.5788 20.6056 36.6013 20.1309L36.6193 19.7709L36.4202 19.5391C36.1345 19.2061 33.7708 16.5984 29.3282 11.7136L29.209 11.5842L28.9705 11.7699V11.7687ZM30.8987 30.1985C30.9772 30.0595 31.0006 29.8961 30.9644 29.7407C30.9281 29.5853 30.8348 29.4491 30.703 29.3592C30.4465 29.1882 30.0471 29.2692 30.0471 29.492C30.0471 29.5595 30.0842 29.609 30.1686 29.6529C30.3115 29.726 30.3216 29.8092 30.2102 29.9769C30.0966 30.1479 30.1056 30.2986 30.2361 30.401C30.4453 30.5652 30.7423 30.4741 30.8998 30.1985H30.8987ZM37.1132 22.1255C36.7453 22.238 36.3887 22.6284 36.2773 23.0367C36.2098 23.2854 36.2481 23.723 36.3493 23.858C36.5125 24.0762 36.6711 24.1336 37.0986 24.1302C37.9356 24.1246 38.6623 23.7657 38.7478 23.3169C38.8176 22.949 38.497 22.4394 38.0571 22.2144C37.8298 22.0996 37.3472 22.0535 37.1132 22.1255ZM38.092 22.8905C38.2213 22.7071 38.164 22.508 37.9457 22.3752C37.5272 22.1199 36.895 22.3302 36.895 22.7262C36.895 22.922 37.2246 23.1369 37.5261 23.1369C37.7286 23.1369 38.0031 23.0165 38.092 22.8905Z" fill="white"/>
</svg>
