<?xml version="1.0" encoding="UTF-8"?>
<svg width="512px" height="512px" viewBox="0 0 512 512" version="1.1" xmlns="http://www.w3.org/2000/svg" xmlns:xlink="http://www.w3.org/1999/xlink">
    <!-- Generator: Sketch 48.1 (47250) - http://www.bohemiancoding.com/sketch -->
    <title>USCrude</title>
    <desc>Created with Sketch.</desc>
    <defs></defs>
    <g id="Компании-BIG" stroke="none" stroke-width="1" fill="none" fill-rule="evenodd">
        <g id="USCrude" fill="#1D476E" fill-rule="nonzero">
            <g id="oil-pumpjack-extraction-copy" transform="translate(48.000000, 0.000000)">
                <path d="M410.934976,443.231451 L389.470959,443.231451 L389.470959,334.166566 C389.470959,331.293369 387.138638,328.963269 384.26433,328.963269 L360.039289,328.963269 L360.039289,245.627217 L362.574855,246.676761 C363.878733,247.215417 365.225926,247.470861 366.553128,247.470861 C370.6358,247.470861 374.511896,245.050801 376.171176,241.043651 L390.982525,205.27362 C392.036512,202.722506 392.036512,199.858193 390.980304,197.308189 C389.924095,194.758184 387.898308,192.733508 385.347193,191.677299 L160.417041,98.545499 C168.637918,82.8678591 176.024711,66.8959025 182.374178,51.0761021 C184.497701,45.7828439 181.966577,39.7665663 176.697753,37.5864014 L87.8452061,0.79459229 C82.5808243,-1.38779383 76.5323384,1.0778027 74.2944208,6.32330379 C52.2939696,57.8420543 38.103462,115.260466 29.6349154,187.021542 C29.0884859,191.648423 31.6851367,196.07428 35.9910456,197.85684 L74.0734056,213.62333 C78.3726508,215.404779 83.3382733,214.110896 86.2247983,210.453594 C102.743184,189.50602 117.003662,169.831226 129.81921,150.305256 L174.777475,168.919399 L172.565102,184.240527 L165.862456,230.644831 L135.165779,443.231451 L63.3091887,443.231451 L10.4054837,443.231451 C4.65908894,443.231451 0,447.888319 0,453.636935 L0,500.894202 C0,506.640597 4.65908894,511.299686 10.4054837,511.299686 L410.934976,511.299686 C416.681371,511.299686 421.34046,506.640597 421.34046,500.894202 L421.34046,453.636935 C421.34046,447.888319 416.681371,443.231451 410.934976,443.231451 Z M339.228321,328.963269 L315.00328,328.963269 C312.126751,328.963269 309.796651,331.293369 309.796651,334.166566 L309.796651,443.231451 L286.17357,443.231451 L255.474672,230.644831 L251.128781,200.533456 L339.224989,237.010957 L339.224989,328.963269 L339.228321,328.963269 Z M236.43849,258.481638 L199.866586,231.201256 L228.950629,206.619703 L236.43849,258.481638 Z M224.230456,277.844345 L177.848364,307.334879 L186.203627,249.476657 L224.230456,277.844345 Z M241.550716,293.878497 L252.722534,371.259356 L192.520885,325.051634 L241.550716,293.878497 Z M196.918976,443.231451 L256.846299,399.809187 L263.116911,443.231451 L196.918976,443.231451 Z M217.348998,186.545083 L192.223236,207.778089 L196.533588,177.926601 L217.348998,186.545083 Z M173.26813,339.041117 L235.688816,386.954766 L158.247983,443.064857 L173.26813,339.041117 Z" id="Shape"></path>
            </g>
        </g>
    </g>
</svg>