<svg width="80" height="52" viewBox="0 0 80 52" fill="none" xmlns="http://www.w3.org/2000/svg">
    <path d="M78.6205 52H1.37937C0.617655 52 0 51.3872 0 50.6315V1.36848C0 0.612779 0.617655 0 1.37937 0H78.6206C79.3823 0 80 0.612779 80 1.36848V50.6315C79.9998 51.3874 79.3822 52 78.6205 52Z" fill="#F6F5F3"/>
    <path fill-rule="evenodd" clip-rule="evenodd" d="M1.37937 51.5938H78.6205C79.1569 51.5938 79.591 51.1625 79.5911 50.6315V1.36848C79.5911 0.83766 79.157 0.40625 78.6206 0.40625H1.37937C0.842981 0.40625 0.408931 0.837661 0.408931 1.36848V50.6315C0.408931 51.1623 0.842981 51.5938 1.37937 51.5938ZM1.37937 52H78.6205C79.3822 52 79.9998 51.3874 80 50.6315V1.36848C80 0.612779 79.3823 0 78.6206 0H1.37937C0.617655 0 0 0.612779 0 1.36848V50.6315C0 51.3872 0.617655 52 1.37937 52Z" fill="#A9A9A9"/>
    <path d="M40 44C49.9411 44 58 35.9411 58 26C58 16.0589 49.9411 8 40 8C30.0589 8 22 16.0589 22 26C22 35.9411 30.0589 44 40 44Z" fill="#15BDFF"/>
    <path d="M38.5803 35.8257L29.92 18.1767C29.8884 18.1117 29.8739 18.0398 29.8777 17.9676C29.8815 17.8954 29.9035 17.8254 29.9417 17.764C29.9799 17.7027 30.033 17.652 30.0961 17.6168C30.1592 17.5815 30.2302 17.5628 30.3025 17.5625H33.304C33.4649 17.5625 33.6156 17.6525 33.6865 17.7943L40.0113 30.5979C40.5738 31.7454 42.2062 31.7454 42.7698 30.5979L49.0743 17.8044C49.1106 17.7344 49.1655 17.6757 49.233 17.6348C49.3005 17.5939 49.3779 17.5724 49.4568 17.5726H49.8303C50.0519 17.5726 50.1925 17.8044 50.0924 17.9956L41.3399 35.8269C40.7763 36.9744 39.145 36.9744 38.5803 35.8269V35.8257Z" fill="white"/>
</svg>
