<svg width="392" height="256" viewBox="0 0 392 256" fill="none" xmlns="http://www.w3.org/2000/svg">
<g clip-path="url(#clip0)">
<path d="M384.517 256H6.74623C3.02083 256 0 252.983 0 249.263V6.73714C0 3.01675 3.02083 0 6.74623 0H384.518C388.243 0 391.264 3.01675 391.264 6.73714V249.263C391.263 252.984 388.242 256 384.517 256Z" fill="#BABABA"/>
<path d="M160 255.5L220 1H280.5L220 255.5H160Z" fill="#BCBCBC"/>
<path d="M221 255.5L281 1H341.5L281 255.5H221Z" fill="#A9A9A9"/>
<path d="M99 255.5L159 1H219.5L159 255.5H99Z" fill="#D1D1D1"/>
<path d="M38 255.5L98 1H158.5L98 255.5H38Z" fill="#E2E2E2"/>
<path d="M33.8672 142.141L41.4609 141.086L77.25 48.625H89.1328L124.289 141.086L131.812 142.141V151H102.422V142.141L110.156 140.805L103.406 121.961H62.4141L55.4531 140.805L63.1875 142.141V151H33.8672V142.141ZM66.7031 110.359H99.1875L83.2969 66.4141H82.875L66.7031 110.359Z" fill="black"/>
<path d="M141.797 114.367C141.797 102.133 144.469 92.2656 149.812 84.7656C155.156 77.2656 162.539 73.5156 171.961 73.5156C176.742 73.5156 180.938 74.4531 184.547 76.3281C188.156 78.2031 191.18 80.9219 193.617 84.4844L194.883 74.9219H206.555V150.016C206.555 159.859 203.812 167.594 198.328 173.219C192.844 178.891 185.039 181.727 174.914 181.727C171.258 181.727 167.297 181.211 163.031 180.18C158.766 179.195 155.016 177.836 151.781 176.102L155.367 165.344C157.945 166.703 160.992 167.828 164.508 168.719C168.023 169.609 171.445 170.055 174.773 170.055C180.961 170.055 185.484 168.32 188.344 164.852C191.25 161.383 192.703 156.438 192.703 150.016V142.773C190.219 145.961 187.242 148.375 183.773 150.016C180.305 151.656 176.32 152.477 171.82 152.477C162.492 152.477 155.156 149.102 149.812 142.352C144.469 135.602 141.797 126.766 141.797 115.844V114.367ZM155.648 115.844C155.648 123.484 157.266 129.625 160.5 134.266C163.734 138.906 168.656 141.227 175.266 141.227C179.438 141.227 182.93 140.289 185.742 138.414C188.555 136.492 190.875 133.797 192.703 130.328V95.3125C190.922 92.0781 188.602 89.5234 185.742 87.6484C182.883 85.7266 179.438 84.7656 175.406 84.7656C168.797 84.7656 163.852 87.5312 160.57 93.0625C157.289 98.5938 155.648 105.695 155.648 114.367V115.844Z" fill="black"/>
<path d="M47.1035 209.32H36.3809L33.9727 216H30.4922L40.2656 190.406H43.2188L53.0098 216H49.5469L47.1035 209.32ZM37.4004 206.543H46.1016L41.7422 194.572L37.4004 206.543Z" fill="black"/>
<path d="M65.1387 199.898C64.6465 199.816 64.1133 199.775 63.5391 199.775C61.4062 199.775 59.959 200.684 59.1973 202.5V216H55.9453V196.98H59.1094L59.1621 199.178C60.2285 197.479 61.7402 196.629 63.6973 196.629C64.3301 196.629 64.8105 196.711 65.1387 196.875V199.898Z" fill="black"/>
<path d="M67.0195 206.332C67.0195 203.367 67.7051 201.012 69.0762 199.266C70.4473 197.508 72.2637 196.629 74.5254 196.629C76.8457 196.629 78.6562 197.449 79.957 199.09L80.1152 196.98H83.0859V215.543C83.0859 218.004 82.3535 219.943 80.8887 221.361C79.4355 222.779 77.4785 223.488 75.0176 223.488C73.6465 223.488 72.3047 223.195 70.9922 222.609C69.6797 222.023 68.6777 221.221 67.9863 220.201L69.6738 218.25C71.0684 219.973 72.7734 220.834 74.7891 220.834C76.3711 220.834 77.6016 220.389 78.4805 219.498C79.3711 218.607 79.8164 217.354 79.8164 215.736V214.102C78.5156 215.602 76.7402 216.352 74.4902 216.352C72.2637 216.352 70.459 215.455 69.0762 213.662C67.7051 211.869 67.0195 209.426 67.0195 206.332ZM70.2891 206.701C70.2891 208.846 70.7285 210.533 71.6074 211.764C72.4863 212.982 73.7168 213.592 75.2988 213.592C77.3496 213.592 78.8555 212.66 79.8164 210.797V202.113C78.8203 200.297 77.3262 199.389 75.334 199.389C73.752 199.389 72.5156 200.004 71.625 201.234C70.7344 202.465 70.2891 204.287 70.2891 206.701Z" fill="black"/>
<path d="M95.9004 216.352C93.3223 216.352 91.2246 215.508 89.6074 213.82C87.9902 212.121 87.1816 209.854 87.1816 207.018V206.42C87.1816 204.533 87.5391 202.852 88.2539 201.375C88.9805 199.887 89.9883 198.727 91.2773 197.895C92.5781 197.051 93.9844 196.629 95.4961 196.629C97.9688 196.629 99.8906 197.443 101.262 199.072C102.633 200.701 103.318 203.033 103.318 206.068V207.422H90.4336C90.4805 209.297 91.0254 210.814 92.0684 211.975C93.123 213.123 94.459 213.697 96.0762 213.697C97.2246 213.697 98.1973 213.463 98.9941 212.994C99.791 212.525 100.488 211.904 101.086 211.131L103.072 212.678C101.479 215.127 99.0879 216.352 95.9004 216.352ZM95.4961 199.301C94.1836 199.301 93.082 199.781 92.1914 200.742C91.3008 201.691 90.75 203.027 90.5391 204.75H100.066V204.504C99.9727 202.852 99.5273 201.574 98.7305 200.672C97.9336 199.758 96.8555 199.301 95.4961 199.301Z" fill="black"/>
<path d="M110.174 196.98L110.279 199.371C111.732 197.543 113.631 196.629 115.975 196.629C119.994 196.629 122.021 198.896 122.057 203.432V216H118.805V203.414C118.793 202.043 118.477 201.029 117.855 200.373C117.246 199.717 116.291 199.389 114.99 199.389C113.936 199.389 113.01 199.67 112.213 200.232C111.416 200.795 110.795 201.533 110.35 202.447V216H107.098V196.98H110.174Z" fill="black"/>
<path d="M131.373 192.375V196.98H134.924V199.494H131.373V211.289C131.373 212.051 131.531 212.625 131.848 213.012C132.164 213.387 132.703 213.574 133.465 213.574C133.84 213.574 134.355 213.504 135.012 213.363V216C134.156 216.234 133.324 216.352 132.516 216.352C131.062 216.352 129.967 215.912 129.229 215.033C128.49 214.154 128.121 212.906 128.121 211.289V199.494H124.658V196.98H128.121V192.375H131.373Z" fill="black"/>
<path d="M150.48 214.119C149.215 215.607 147.357 216.352 144.908 216.352C142.881 216.352 141.334 215.766 140.268 214.594C139.213 213.41 138.68 211.664 138.668 209.355V196.98H141.92V209.268C141.92 212.15 143.092 213.592 145.436 213.592C147.92 213.592 149.572 212.666 150.393 210.814V196.98H153.645V216H150.551L150.48 214.119Z" fill="black"/>
<path d="M161.66 196.98L161.748 199.09C163.143 197.449 165.023 196.629 167.391 196.629C170.051 196.629 171.861 197.648 172.822 199.688C173.455 198.773 174.275 198.035 175.283 197.473C176.303 196.91 177.504 196.629 178.887 196.629C183.059 196.629 185.18 198.838 185.25 203.256V216H181.998V203.449C181.998 202.09 181.688 201.076 181.066 200.408C180.445 199.729 179.402 199.389 177.938 199.389C176.73 199.389 175.729 199.752 174.932 200.479C174.135 201.193 173.672 202.16 173.543 203.379V216H170.273V203.537C170.273 200.771 168.92 199.389 166.213 199.389C164.08 199.389 162.621 200.297 161.836 202.113V216H158.584V196.98H161.66Z" fill="black"/>
</g>
<defs>
<clipPath id="clip0">
<rect width="391.264" height="256" fill="white"/>
</clipPath>
</defs>
</svg>

