<svg width="392" height="256" viewBox="0 0 392 256" fill="none" xmlns="http://www.w3.org/2000/svg">
<g clip-path="url(#clip0)">
<path d="M384.517 256H6.74623C3.02083 256 0 252.983 0 249.263V6.73714C0 3.01675 3.02083 0 6.74623 0H384.518C388.243 0 391.264 3.01675 391.264 6.73714V249.263C391.263 252.984 388.242 256 384.517 256Z" fill="#FFE26D"/>
<path d="M160 255.5L220 1H280.5L220 255.5H160Z" fill="#FFE371"/>
<path d="M221 255.5L281 1H341.5L281 255.5H221Z" fill="#FFDC50"/>
<path d="M99 255.5L159 1H219.5L159 255.5H99Z" fill="#FFE88C"/>
<path d="M38 255.5L98 1H158.5L98 255.5H38Z" fill="#FFEC9F"/>
<path d="M33.8672 142.141L41.4609 141.086L77.25 48.625H89.1328L124.289 141.086L131.812 142.141V151H102.422V142.141L110.156 140.805L103.406 121.961H62.4141L55.4531 140.805L63.1875 142.141V151H33.8672V142.141ZM66.7031 110.359H99.1875L83.2969 66.4141H82.875L66.7031 110.359Z" fill="black"/>
<path d="M191.086 139.75C188.695 143.828 185.602 146.969 181.805 149.172C178.055 151.375 173.719 152.477 168.797 152.477C160.547 152.477 154.102 149.828 149.461 144.531C144.82 139.234 142.5 130.984 142.5 119.781V85.8203L133.781 83.8516V74.9219H142.5H156.352V119.922C156.352 128.031 157.547 133.609 159.938 136.656C162.328 139.703 166.055 141.227 171.117 141.227C176.039 141.227 180.094 140.242 183.281 138.273C186.516 136.258 188.953 133.422 190.594 129.766V85.8203L180.398 83.8516V74.9219H190.594H204.445V140.172L213.164 142.141V151H192L191.086 139.75Z" fill="black"/>
<path d="M47.1035 209.32H36.3809L33.9727 216H30.4922L40.2656 190.406H43.2188L53.0098 216H49.5469L47.1035 209.32ZM37.4004 206.543H46.1016L41.7422 194.572L37.4004 206.543Z" fill="black"/>
<path d="M67.4766 214.119C66.2109 215.607 64.3535 216.352 61.9043 216.352C59.877 216.352 58.3301 215.766 57.2637 214.594C56.209 213.41 55.6758 211.664 55.6641 209.355V196.98H58.916V209.268C58.916 212.15 60.0879 213.592 62.4316 213.592C64.916 213.592 66.5684 212.666 67.3887 210.814V196.98H70.6406V216H67.5469L67.4766 214.119Z" fill="black"/>
<path d="M84.791 199.898C84.2988 199.816 83.7656 199.775 83.1914 199.775C81.0586 199.775 79.6113 200.684 78.8496 202.5V216H75.5977V196.98H78.7617L78.8145 199.178C79.8809 197.479 81.3926 196.629 83.3496 196.629C83.9824 196.629 84.4629 196.711 84.791 196.875V199.898Z" fill="black"/>
<path d="M99.5391 214.119C98.2734 215.607 96.416 216.352 93.9668 216.352C91.9395 216.352 90.3926 215.766 89.3262 214.594C88.2715 213.41 87.7383 211.664 87.7266 209.355V196.98H90.9785V209.268C90.9785 212.15 92.1504 213.592 94.4941 213.592C96.9785 213.592 98.6309 212.666 99.4512 210.814V196.98H102.703V216H99.6094L99.5391 214.119Z" fill="black"/>
<path d="M110.719 196.98L110.807 199.09C112.201 197.449 114.082 196.629 116.449 196.629C119.109 196.629 120.92 197.648 121.881 199.688C122.514 198.773 123.334 198.035 124.342 197.473C125.361 196.91 126.562 196.629 127.945 196.629C132.117 196.629 134.238 198.838 134.309 203.256V216H131.057V203.449C131.057 202.09 130.746 201.076 130.125 200.408C129.504 199.729 128.461 199.389 126.996 199.389C125.789 199.389 124.787 199.752 123.99 200.479C123.193 201.193 122.73 202.16 122.602 203.379V216H119.332V203.537C119.332 200.771 117.979 199.389 115.271 199.389C113.139 199.389 111.68 200.297 110.895 202.113V216H107.643V196.98H110.719Z" fill="black"/>
</g>
<defs>
<clipPath id="clip0">
<rect width="391.264" height="256" fill="white"/>
</clipPath>
</defs>
</svg>

