<svg width="419" height="355" viewBox="0 0 419 355" xmlns="http://www.w3.org/2000/svg">
    <path d="M398.977 306H19.7718C16.0323 306 13 302.971 13 299.237V55.7635C13 52.0285 16.0323 49 19.7718 49H398.977C402.717 49 405.749 52.0285 405.749 55.7635V299.237C405.748 302.972 402.716 306 398.977 306Z" fill="#F6F5F3"/>
    <path d="M398.977 305.25C402.302 305.25 404.999 302.558 404.999 299.237V55.7635C404.999 52.443 402.303 49.75 398.977 49.75H19.7718C16.4463 49.75 13.75 52.443 13.75 55.7635V299.237C13.75 302.557 16.4463 305.25 19.7718 305.25H398.977Z" stroke="#A9A9A9" stroke-width="1.5" fill="#f6f5f3"/>
    <path d="M291.538 106.499L263.843 120.627L130.111 188.831C129.659 185.378 129.432 181.898 129.43 178.415C129.449 164.518 133.093 150.867 140.001 138.814C146.91 126.76 156.844 116.724 168.818 109.697C180.793 102.671 194.393 98.8991 208.272 98.7551C222.15 98.6111 235.826 102.1 247.943 108.876L263.795 100.789L266.159 99.5811C251.638 89.0279 234.486 82.7002 216.598 81.2975C198.71 79.8947 180.782 83.4715 164.797 91.6326C148.813 99.7936 135.392 112.221 126.02 127.541C116.648 142.862 111.689 160.478 111.691 178.444C111.691 180.926 111.785 183.397 111.973 185.859C112.236 189.345 111.464 192.832 109.754 195.88C108.043 198.928 105.47 201.401 102.359 202.988L94 207.256V227.162L118.609 214.602L126.579 210.53L134.432 206.525L275.414 134.599L291.255 126.522L324 109.812V89.9156L291.538 106.499Z" fill="black"/>
    <path d="M324 129.727L142.441 222.289L126.599 230.386L94 247.018V266.904L126.375 250.389L154.069 236.261L287.937 167.96C288.39 171.436 288.617 174.938 288.618 178.444C288.61 192.357 284.967 206.026 278.052 218.094C271.136 230.162 261.189 240.209 249.197 247.237C237.205 254.266 223.585 258.031 209.691 258.16C195.796 258.289 182.109 254.777 169.989 247.973L169.016 248.489L151.831 257.258C166.349 267.812 183.498 274.141 201.383 275.548C219.268 276.954 237.194 273.382 253.179 265.226C269.164 257.071 282.586 244.649 291.962 229.334C301.338 214.019 306.303 196.407 306.309 178.444C306.309 175.94 306.212 173.436 306.027 170.961C305.764 167.476 306.535 163.991 308.244 160.943C309.953 157.896 312.523 155.422 315.631 153.832L324 149.564V129.727Z" fill="black"/>
</svg>
