<?xml version="1.0" encoding="UTF-8"?>
<svg width="512px" height="512px" viewBox="0 0 512 512" version="1.1" xmlns="http://www.w3.org/2000/svg" xmlns:xlink="http://www.w3.org/1999/xlink">
    <!-- Generator: Sketch 49 (51002) - http://www.bohemiancoding.com/sketch -->
    <title>Monero</title>
    <desc>Created with Sketch.</desc>
    <defs>
        <path d="M503.171017,334.819338 L8.82798276,334.819338 C3.95299228,334.819338 0,330.873758 0,326.007909 L0,8.81142922 C0,3.94557994 3.95299228,0 8.82798276,0 L503.172017,0 C508.047008,0 512,3.94557994 512,8.81142922 L512,326.007909 C511.999,330.874757 508.046008,334.819338 503.171017,334.819338 Z" id="path-1"></path>
    </defs>
    <g id="Monero" stroke="none" stroke-width="1" fill="none" fill-rule="evenodd">
        <g id="Group-Copy" transform="translate(0.000000, 89.000000)" fill-rule="nonzero">
            <g id="LiteCoin-Copy">
                <g id="Shape-Copy">
                    <use fill="#F6F5F3" fill-rule="evenodd" xlink:href="#path-1"></use>
                    <path stroke="#A9A9A9" stroke-width="1.5" d="M503.171017,334.069338 C507.632352,334.069338 511.249085,330.459952 511.25,326.007909 L511.25,8.81142922 C511.25,4.36010894 507.633109,0.75 503.172017,0.75 L8.82798276,0.75 C4.36689105,0.75 0.75,4.36010894 0.75,8.81142922 L0.75,326.007909 C0.75,330.459229 4.36689105,334.069338 8.82798276,334.069338 L503.171017,334.069338 Z"></path>
                </g>
            </g>
            <g id="monero" transform="translate(138.096692, 49.506361)">
                <path d="M116.79385,0 C52.3007384,0 0,52.2998259 0,116.794763 C0,129.685173 2.08954763,142.084676 5.94745478,153.685772 L40.8784864,153.685772 L40.8784864,55.4168105 L116.795675,131.333999 L192.711039,55.4168105 L192.711039,153.684859 L227.642071,153.684859 C231.502715,142.083764 233.592263,129.684261 233.592263,116.79385 C233.591351,52.2970885 181.2897,0 116.79385,0" id="Shape" fill="#FF6600"></path>
                <path d="M99.3374592,148.788566 L66.205811,115.656005 L66.205811,177.489278 L16.9928583,177.489278 C37.4959741,211.12552 74.5247655,233.587701 116.792025,233.587701 C159.059285,233.587701 196.091727,211.12552 216.592105,177.489278 L167.380065,177.489278 L167.380065,115.655093 L134.248417,148.786741 L116.792938,166.241307 L99.3392842,148.787653 L99.3374592,148.787653 L99.3374592,148.788566 Z" id="Shape" fill="#4C4C4C"></path>
            </g>
        </g>
    </g>
</svg>