<svg width="392" height="256" viewBox="0 0 392 256" fill="none" xmlns="http://www.w3.org/2000/svg">
    <g clip-path="url(#clip0_17099_31251)">
        <path d="M384.517 256H6.74623C3.02083 256 0 252.983 0 249.263V6.73714C0 3.01675 3.02083 0 6.74623 0H384.518C388.243 0 391.264 3.01675 391.264 6.73714V249.263C391.263 252.984 388.242 256 384.517 256Z" fill="#3498DB"/>
        <path d="M160 255.5L220 1H280.5L220 255.5H160Z" fill="#5AA9DD"/>
        <path d="M221 255.5L281 1H341.5L281 255.5H221Z" fill="#358CC6"/>
        <path d="M99 255.5L159 1H219.5L159 255.5H99Z" fill="#479AD2"/>
        <path d="M38 255.5L98 1H158.5L98 255.5H38Z" fill="#40A3E5"/>
        <path d="M197.913 107.379C197.381 106.92 196.701 106.668 195.999 106.668C195.296 106.668 194.616 106.92 194.084 107.379C186.641 113.936 169.332 131.435 169.332 152.267C169.332 180.448 190.257 197.83 195.999 202.064C201.732 197.819 222.665 180.379 222.665 152.267C222.665 131.435 205.356 113.936 197.913 107.379Z" fill="white"/>
        <path d="M211.905 71.75C206.484 65.71 200.879 59.4673 195.951 53.334C191.124 59.4673 185.519 65.7153 180.097 71.7553C161.695 92.2673 142.668 113.462 142.668 137.142C142.668 168.819 163.756 188.075 181.444 198.633C182.954 199.513 184.542 200.252 186.188 200.841C177.127 192.345 164.001 175.958 164.001 152.267C164.001 129.254 182.575 110.401 190.561 103.371C192.066 102.05 193.999 101.322 196.001 101.322C198.003 101.322 199.937 102.05 201.441 103.371C209.425 110.401 228.001 129.262 228.001 152.267C228.001 175.95 214.876 192.337 205.815 200.833C207.461 200.245 209.049 199.506 210.559 198.625C228.249 188.065 249.335 168.819 249.335 137.142C249.335 113.459 230.305 92.2673 211.905 71.75Z" fill="white"/>
    </g>
    <defs>
        <clipPath id="clip0_17099_31251">
            <rect width="391.264" height="256" fill="white"/>
        </clipPath>
    </defs>
</svg>
