<?xml version="1.0" encoding="UTF-8"?>
<svg width="512px" height="512px" viewBox="0 0 512 512" version="1.1" xmlns="http://www.w3.org/2000/svg" xmlns:xlink="http://www.w3.org/1999/xlink">
    <!-- Generator: Sketch 49 (51002) - http://www.bohemiancoding.com/sketch -->
    <title>Ripple</title>
    <desc>Created with Sketch.</desc>
    <defs>
        <path d="M503.171017,334.819338 L8.82798276,334.819338 C3.95299228,334.819338 0,330.873758 0,326.007909 L0,8.81142922 C0,3.94557994 3.95299228,0 8.82798276,0 L503.172017,0 C508.047008,0 512,3.94557994 512,8.81142922 L512,326.007909 C511.999,330.874757 508.046008,334.819338 503.171017,334.819338 Z" id="path-1"></path>
    </defs>
    <g id="Ripple" stroke="none" stroke-width="1" fill="none" fill-rule="evenodd">
        <g id="Group-2-Copy" transform="translate(0.000000, 89.000000)">
            <g id="Group" fill-rule="nonzero">
                <g id="LiteCoin-Copy-2">
                    <g id="Shape-Copy">
                        <use fill="#F6F5F3" fill-rule="evenodd" xlink:href="#path-1"></use>
                        <path stroke="#A9A9A9" stroke-width="1.5" d="M503.171017,334.069338 C507.632352,334.069338 511.249085,330.459952 511.25,326.007909 L511.25,8.81142922 C511.25,4.36010894 507.633109,0.75 503.172017,0.75 L8.82798276,0.75 C4.36689105,0.75 0.75,4.36010894 0.75,8.81142922 L0.75,326.007909 C0.75,330.459229 4.36689105,334.069338 8.82798276,334.069338 L503.171017,334.069338 Z"></path>
                    </g>
                </g>
                <path d="M273.703742,59.5948172 C258.712104,68.4616383 249.83531,84.4736012 249.83531,101.358463 C249.83531,110.225285 253.371881,119.161019 257.79944,127.133118 C261.336011,134.25414 263.070072,146.682621 250.726298,152.907772 C241.917954,158.214082 230.394437,154.676542 225.123805,145.78675 C219.852032,138.665728 213.668737,131.544706 205.704607,126.237247 C190.712968,117.370426 173.027831,117.370426 158.035052,126.237247 C143.042272,135.104069 134.188295,151.156231 134.188295,168.045687 C134.188295,184.935144 142.996639,200.941364 158.031629,209.832305 C173.023268,218.699126 190.708405,218.699126 205.701185,209.832305 C213.665315,205.375923 219.847469,198.300843 224.230536,190.282802 C227.767107,184.05765 237.488114,176.040757 249.833028,183.16178 C258.641372,188.46809 261.288096,200.069613 256.906171,208.936434 C252.479753,216.953327 249.833028,225.844267 249.833028,234.711089 C249.833028,251.618922 258.641372,267.606765 273.701461,276.474735 C288.6931,285.341556 306.378237,285.341556 321.371016,276.474735 C336.363796,267.607914 345.24173,251.595951 345.24173,234.711089 C345.24173,217.826226 336.41057,201.815412 321.373298,192.924471 C313.409168,188.46809 304.578008,186.69932 294.879817,186.69932 C286.915687,186.69932 276.350467,181.39301 276.350467,168.045687 C276.350467,157.364154 284.314596,149.392055 294.879817,149.392055 C303.688161,149.392055 313.409168,147.623285 321.373298,143.166903 C336.364937,134.300082 345.24173,118.288119 345.24173,101.404406 C345.24173,84.5206918 336.41057,68.5087289 321.373298,59.6407593 C314.300156,55.1843777 305.490671,53.4156077 297.529964,53.4156077 C289.611467,53.3696656 280.734674,55.1843777 273.707165,59.5948172" id="Shape" fill="#0676AD"></path>
            </g>
            <g id="ripple-2-copy" transform="translate(134.188295, 53.414758)"></g>
        </g>
    </g>
</svg>