<svg width="419" height="355" viewBox="0 0 419 355" fill="none" xmlns="http://www.w3.org/2000/svg">
    <path d="M398.977 306H19.7718C16.0323 306 13 302.971 13 299.237V55.7635C13 52.0285 16.0323 49 19.7718 49H398.977C402.717 49 405.749 52.0285 405.749 55.7635V299.237C405.748 302.972 402.716 306 398.977 306Z" fill="#F6F5F3"/>
    <path d="M398.977 305.25C402.302 305.25 404.999 302.558 404.999 299.237V55.7635C404.999 52.443 402.303 49.75 398.977 49.75H19.7718C16.4463 49.75 13.75 52.443 13.75 55.7635V299.237C13.75 302.557 16.4463 305.25 19.7718 305.25H398.977Z" stroke="#A9A9A9" stroke-width="1.5" fill="#f6f5f3"/>
    <g clip-path="url(#clip0)">
        <path d="M230.141 272C216.732 272 206.945 268.769 200.78 262.306C195.068 256.836 191.754 249.325 191.561 241.417C191.491 239.015 192.048 236.635 193.176 234.513C194.228 232.68 195.747 231.158 197.579 230.104C199.709 229.042 202.056 228.489 204.435 228.489C206.815 228.489 209.162 229.042 211.291 230.104C213.12 231.154 214.632 232.677 215.67 234.513C216.83 236.625 217.408 239.008 217.343 241.417C217.462 244.294 216.637 247.131 214.994 249.495C213.624 251.425 211.666 252.858 209.413 253.581C211.616 256.387 214.733 258.331 218.221 259.075C222.124 260.209 226.166 260.792 230.23 260.807C235.61 260.854 240.88 259.278 245.351 256.284C249.99 253.005 253.449 248.318 255.217 242.918C257.457 236.491 258.55 229.72 258.446 222.915C258.627 215.819 257.43 208.756 254.923 202.117C253.037 196.806 249.456 192.264 244.734 189.191C240.345 186.413 235.25 184.955 230.056 184.991C225.531 185.375 221.166 186.857 217.343 189.309L207.915 194.038V189.309L250.283 132.446H191.561V191.454C191.395 195.712 192.521 199.921 194.791 203.527C195.889 205.098 197.374 206.359 199.102 207.188C200.831 208.016 202.744 208.384 204.656 208.256C208.189 208.184 211.606 206.98 214.403 204.819C217.574 202.494 220.333 199.655 222.566 196.418C222.767 195.85 223.138 195.358 223.628 195.008C224.021 194.668 224.523 194.481 225.043 194.48C226.063 194.573 227.029 194.984 227.803 195.654C228.785 196.751 229.319 198.177 229.3 199.649C229.187 200.638 229.01 201.619 228.772 202.586C226.686 207.638 223.189 211.981 218.7 215.096C214.531 217.918 209.607 219.415 204.573 219.389C191.859 219.389 183.051 216.883 178.15 211.869C175.63 209.099 173.689 205.853 172.438 202.322C171.188 198.791 170.654 195.046 170.868 191.306V132.446H141V121.482H171.007V96.4838L164.137 89.6058V84H184.073L191.561 87.878V121.482L269.132 121.246L276.855 129.001L229.29 176.82C232.163 175.664 235.19 174.931 238.274 174.646C244.378 174.913 250.333 176.614 255.659 179.611C261.826 182.543 267.023 187.183 270.634 192.981C273.87 197.889 276.16 203.358 277.387 209.108C278.396 213.643 278.937 218.27 279.002 222.916C279.034 231.782 277.025 240.536 273.13 248.501C269.437 256.213 263.221 262.431 255.513 266.126C247.622 270.016 238.938 272.027 230.141 272Z" fill="#2C7DF7"/>
    </g>
    <defs>
        <clipPath id="clip0">
            <rect width="138" height="188" fill="white" transform="translate(141 84)"/>
        </clipPath>
    </defs>
</svg>
