<svg width="80" height="52" viewBox="0 0 80 52" fill="none" xmlns="http://www.w3.org/2000/svg">
    <path d="M78.6205 52H1.37937C0.617655 52 0 51.3872 0 50.6315V1.36848C0 0.612779 0.617655 0 1.37937 0H78.6206C79.3823 0 80 0.612779 80 1.36848V50.6315C79.9998 51.3874 79.3822 52 78.6205 52Z" fill="#F6F5F3"/>
    <path fill-rule="evenodd" clip-rule="evenodd" d="M1.37937 51.5938H78.6205C79.1569 51.5938 79.591 51.1625 79.5911 50.6315V1.36848C79.5911 0.83766 79.157 0.40625 78.6206 0.40625H1.37937C0.842981 0.40625 0.408931 0.837661 0.408931 1.36848V50.6315C0.408931 51.1623 0.842981 51.5938 1.37937 51.5938ZM1.37937 52H78.6205C79.3822 52 79.9998 51.3874 80 50.6315V1.36848C80 0.612779 79.3823 0 78.6206 0H1.37937C0.617655 0 0 0.612779 0 1.36848V50.6315C0 51.3872 0.617655 52 1.37937 52Z" fill="#A9A9A9"/>
    <path d="M40 44C49.9411 44 58 35.9411 58 26C58 16.0589 49.9411 8 40 8C30.0589 8 22 16.0589 22 26C22 35.9411 30.0589 44 40 44Z" fill="#006AE3"/>
    <path d="M39.1112 33.1549V18.9731H40.6547V33.1549H39.1112Z" fill="white"/>
    <path d="M46.9716 23.6982L42.2016 24.9627L41.1385 20.0127L42.556 19.6932L43.1163 22.0377C43.1163 22.0377 44.4044 19.925 42.6865 17.7357C41.674 16.6107 41.1936 16.5635 40.0585 16.3857C39.0595 16.2429 36.7375 16.5804 36.0456 19.2905C35.7531 21.0365 36.0827 22.328 38.3327 24.0189L38.2067 25.901C38.2067 25.901 35.6946 24.1314 35.0466 22.8905C34.546 21.9084 33.6854 19.9689 35.2379 17.2689C36.0726 15.9189 37.7196 14.624 40.621 14.7601C42.079 14.8209 45.6419 16.6051 45.0895 20.7699C44.9939 21.5506 44.5889 22.5901 44.5889 22.5901L46.5464 22.1547L46.9716 23.6982ZM44.248 34.7952C43.375 36.1216 41.6942 37.3715 38.7996 37.1611C37.3405 37.0621 33.8294 35.1834 34.4909 31.0344C34.6067 30.2581 35.0399 29.231 35.0399 29.231L33.0723 29.6135L32.6875 28.0621L37.4913 26.9236L38.425 31.9006L36.9963 32.1841L36.499 29.8216C36.499 29.8216 35.1557 31.8972 36.8129 34.1337C37.7939 35.2857 38.272 35.3442 39.4071 35.5512C40.3994 35.7222 42.7304 35.4432 43.4943 32.7534C43.8318 31.0175 43.5347 29.7159 41.3331 27.9631L41.5097 26.0844C41.5097 26.0844 43.9746 27.9181 44.5889 29.177C45.0591 30.176 45.8669 32.1391 44.248 34.7952Z" fill="white"/>
</svg>
