<svg width="80" height="52" viewBox="0 0 80 52" fill="none" xmlns="http://www.w3.org/2000/svg">
<path d="M78.6205 52H1.37937C0.617655 52 0 51.3872 0 50.6315V1.36848C0 0.612779 0.617655 0 1.37937 0H78.6206C79.3823 0 80 0.612779 80 1.36848V50.6315C79.9998 51.3874 79.3822 52 78.6205 52Z" fill="#F6F5F3"/>
<path fill-rule="evenodd" clip-rule="evenodd" d="M1.37937 51.5938H78.6205C79.1569 51.5938 79.591 51.1625 79.5911 50.6315V1.36848C79.5911 0.83766 79.157 0.40625 78.6206 0.40625H1.37937C0.842981 0.40625 0.408931 0.837661 0.408931 1.36848V50.6315C0.408931 51.1623 0.842981 51.5938 1.37937 51.5938ZM1.37937 52H78.6205C79.3822 52 79.9998 51.3874 80 50.6315V1.36848C80 0.612779 79.3823 0 78.6206 0H1.37937C0.617655 0 0 0.612779 0 1.36848V50.6315C0 51.3872 0.617655 52 1.37937 52Z" fill="#A9A9A9"/>
<path d="M58 26C58 35.9411 49.9411 44 40 44C30.0589 44 22 35.9411 22 26C22 16.0589 30.0589 8 40 8C49.9411 8 58 16.0589 58 26Z" fill="#D9C172"/>
<path d="M56.7634 25.9999C56.7634 35.2581 49.2582 42.7633 40.0001 42.7633C30.7419 42.7633 23.2367 35.2581 23.2367 25.9999C23.2367 16.7418 30.7419 9.23657 40.0001 9.23657C49.2582 9.23657 56.7634 16.7418 56.7634 25.9999Z" fill="black"/>
<path d="M48.9861 17.4396L40.3382 13.9806C40.1213 13.8935 39.8786 13.8935 39.6617 13.9806L31.0138 17.4396C30.6684 17.5782 30.4418 17.913 30.4418 18.285V24.9621C30.4418 30.7088 33.8892 35.8013 39.2243 37.9349C39.4746 38.0354 39.7373 38.0851 40 38.0851C40.2627 38.0851 40.525 38.0353 40.7747 37.9352C46.1108 35.8013 49.5582 30.7088 49.5582 24.9621V18.285C49.5582 17.913 49.3315 17.5782 48.9861 17.4396Z" fill="#002788"/>
<path fill-rule="evenodd" clip-rule="evenodd" d="M40.3382 13.9806C40.1213 13.8935 39.8786 13.8935 39.6617 13.9806L31.0138 17.4396C30.6684 17.5782 30.4418 17.913 30.4418 18.285V24.9621C30.4418 30.7088 33.8892 35.8013 39.2243 37.9349C39.4746 38.0354 39.7373 38.0851 40 38.0851C40.2627 38.0851 40.525 38.0353 40.7747 37.9352C46.1108 35.8013 49.5582 30.7088 49.5582 24.9621V18.285C49.5582 17.913 49.3315 17.5782 48.9861 17.4396L40.3382 13.9806ZM48.1841 18.5987L40 15.3252L31.8158 18.5987V24.9621C31.8158 30.1471 34.9213 34.7342 39.7345 36.659L39.7364 36.6598C39.8225 36.6944 39.9113 36.711 40 36.711C40.0882 36.711 40.1771 36.6944 40.2639 36.6597L40.2645 36.6594C45.0788 34.7341 48.1841 30.1471 48.1841 24.9621V18.5987Z" fill="#D9C172"/>
<path d="M38.0407 30.1617H38.4231C38.6448 30.1617 38.8 30.1119 38.8886 30.0121C38.9884 29.9123 39.0383 29.7572 39.0383 29.5466V27.4184L36.3449 22.4639C36.2008 22.209 36.0567 22.0372 35.9126 21.9485C35.7685 21.8488 35.5635 21.7989 35.2974 21.7989H34.915V20.6018H38.5395V21.7989H38.3067C38.0629 21.7989 37.941 21.8709 37.941 22.015C37.941 22.1148 37.9853 22.2422 38.074 22.3974L39.9195 25.972L41.7483 22.3974C41.8259 22.2533 41.8647 22.1259 41.8647 22.015C41.8647 21.8709 41.7483 21.7989 41.5155 21.7989H41.2662V20.6018H44.8906V21.7989H44.5082C44.2422 21.7989 44.0371 21.8488 43.8931 21.9485C43.749 22.0372 43.6049 22.209 43.4608 22.4639L40.784 27.4184V29.5466C40.784 29.7572 40.8339 29.9123 40.9336 30.0121C41.0334 30.1119 41.1886 30.1617 41.3992 30.1617H41.7816V31.3588H38.0407V30.1617Z" fill="white"/>
</svg>
