<?xml version="1.0" encoding="UTF-8"?>
<svg width="512px" height="512px" viewBox="0 0 512 512" version="1.1" xmlns="http://www.w3.org/2000/svg" xmlns:xlink="http://www.w3.org/1999/xlink">
    <!-- Generator: Sketch 49 (51002) - http://www.bohemiancoding.com/sketch -->
    <title>ZCash</title>
    <desc>Created with Sketch.</desc>
    <defs>
        <path d="M503.171017,334.819338 L8.82798276,334.819338 C3.95299228,334.819338 0,330.873758 0,326.007909 L0,8.81142922 C0,3.94557994 3.95299228,0 8.82798276,0 L503.172017,0 C508.047008,0 512,3.94557994 512,8.81142922 L512,326.007909 C511.999,330.874757 508.046008,334.819338 503.171017,334.819338 Z" id="path-1"></path>
    </defs>
    <g id="ZCash" stroke="none" stroke-width="1" fill="none" fill-rule="evenodd">
        <g id="Group-Copy" transform="translate(0.000000, 89.000000)" fill-rule="nonzero">
            <g id="LiteCoin-Copy-2">
                <g id="Shape-Copy">
                    <use fill="#F6F5F3" fill-rule="evenodd" xlink:href="#path-1"></use>
                    <path stroke="#A9A9A9" stroke-width="1.5" d="M503.171017,334.069338 C507.632352,334.069338 511.249085,330.459952 511.25,326.007909 L511.25,8.81142922 C511.25,4.36010894 507.633109,0.75 503.172017,0.75 L8.82798276,0.75 C4.36689105,0.75 0.75,4.36010894 0.75,8.81142922 L0.75,326.007909 C0.75,330.459229 4.36689105,334.069338 8.82798276,334.069338 L503.171017,334.069338 Z"></path>
                </g>
            </g>
            <g id="zcash-zec" transform="translate(138.096692, 48.203562)" fill="#000000">
                <path d="M117.916105,235.806616 C101.996023,235.806616 86.5622462,232.684027 72.0242936,226.54123 C57.9726457,220.603193 45.3799121,212.105658 34.5532325,201.278978 C23.726553,190.452299 15.2290173,177.83397 9.2909803,163.807917 C3.12258842,149.24437 0,133.810592 0,117.89051 C0,101.970428 3.12258842,86.5366512 9.26538532,71.9986986 C15.2034223,57.9470507 23.700958,45.3543171 34.5276375,34.5276375 C45.3543171,23.700958 57.9726457,15.2034223 71.9986986,9.26538532 C86.5366512,3.12258842 101.996023,0 117.89051,0 C133.784997,0 149.269965,3.09699343 163.807917,9.23979033 C177.859565,15.1778273 190.452299,23.675363 201.278978,34.5020426 C212.105658,45.3287221 220.603193,57.9470507 226.54123,71.9731036 C232.684027,86.5110563 235.806616,101.970428 235.806616,117.864915 C235.806616,133.784997 232.684027,149.218775 226.54123,163.756727 C220.603193,177.808375 212.105658,190.401109 201.278978,201.227788 C190.452299,212.054468 177.83397,220.552003 163.807917,226.49004 C149.269965,232.684027 133.836187,235.806616 117.916105,235.806616 Z M117.916105,26.1836718 C93.4217028,26.1836718 70.3862144,35.7306019 53.0584082,53.0328132 C35.7306019,70.3606194 26.2092667,93.3961078 26.2092667,117.89051 C26.2092667,142.384913 35.7561969,165.420401 53.0584082,182.748208 C70.3862144,200.050419 93.4217028,209.597349 117.916105,209.597349 C142.410508,209.597349 165.445996,200.050419 182.773803,182.748208 C200.076014,165.420401 209.622944,142.384913 209.622944,117.89051 C209.622944,93.3961078 200.076014,70.3606194 182.773803,53.0328132 C165.445996,35.7306019 142.410508,26.1836718 117.916105,26.1836718 Z" id="Shape"></path>
                <path d="M110.649959,148.041346 L161.448854,148.041346 L161.448854,173.740574 L130.170376,173.740574 C130.679383,181.094192 130.959337,187.90974 131.468344,195.237736 L105.152683,195.237736 L105.152683,173.996798 L73.8742051,173.996798 C73.8742051,165.592663 72.8307408,157.214151 74.3832121,149.348086 C75.1721729,145.146019 79.855037,141.482021 82.7309264,137.818024 C92.6311119,126.006115 102.531297,114.476052 112.685986,102.664144 C116.60534,98.2058528 120.499243,94.0037856 124.927604,89.0330474 L76.2156372,89.0330474 L76.2156372,63.3338189 L105.127233,63.3338189 L105.127233,41.8366576 L130.399429,41.8366576 L130.399429,62.8213717 L161.932411,62.8213717 C161.932411,71.4817298 162.975875,79.860242 161.423404,87.7519294 C160.634443,91.9539966 155.951579,95.6179943 152.821186,99.281992 C142.921,111.093901 133.020815,122.623963 122.866126,134.435872 C118.997673,139.124764 115.10377,143.301209 110.649959,148.041346 Z" id="Shape"></path>
            </g>
        </g>
    </g>
</svg>