<svg width="419" height="355" viewBox="0 0 419 355" fill="none" xmlns="http://www.w3.org/2000/svg">
    <path d="M398.977 306H19.7718C16.0323 306 13 302.971 13 299.237V55.7635C13 52.0285 16.0323 49 19.7718 49H398.977C402.717 49 405.749 52.0285 405.749 55.7635V299.237C405.748 302.972 402.716 306 398.977 306Z" fill="#F6F5F3"/>
    <path d="M398.977 305.25C402.302 305.25 404.999 302.558 404.999 299.237V55.7635C404.999 52.443 402.303 49.75 398.977 49.75H19.7718C16.4463 49.75 13.75 52.443 13.75 55.7635V299.237C13.75 302.557 16.4463 305.25 19.7718 305.25H398.977Z" stroke="#A9A9A9" stroke-width="1.5" fill="#f6f5f3"/>
    <g clip-path="url(#clip0)">
        <path d="M284.996 159.601L254.422 173.211L173.312 214.429L254.422 253.363V189.008L284.996 175.252V270.326L254.422 283.936L134.996 226.872V196.542L217.664 156.052L134.996 116.39V85.6216L166.057 72.0117L284.996 129.173V159.601Z" fill="black"/>
        <path d="M134.996 85.6216L254.422 142.783L284.996 129.173L166.057 72.0117L134.996 85.6216Z" fill="#34788C"/>
        <path d="M254.422 142.657L284.996 129.047V159.475L254.422 173.084V142.657Z" fill="#478C95"/>
        <path d="M134.996 85.6484V116.416L217.664 156.079L134.996 196.569V226.899L254.422 283.963V253.438L173.312 214.456L254.422 173.237V142.81L134.996 85.6484Z" fill="#6ABEBE"/>
        <path d="M254.422 283.739L284.996 270.129V175.055L254.422 188.81V283.739Z" fill="#478C95"/>
    </g>
    <defs>
        <clipPath id="clip0">
            <rect width="150" height="212" fill="white" transform="translate(135 72)"/>
        </clipPath>
    </defs>
</svg>
